<svg width="363" height="249" viewBox="0 0 363 249" fill="none" xmlns="http://www.w3.org/2000/svg">
<g filter="url(#filter0_dddddd_40_1345)">
<path d="M274.556 1.29633H87.4829C83.3674 1.29633 80 5.06396 80 9.6689V59.9041C80 64.509 83.3673 68.2766 87.4829 68.2766H274.556C278.672 68.2766 282.039 64.509 282.039 59.9041V9.6689C282.039 5.06396 278.672 1.29633 274.556 1.29633Z" fill="black"/>
<path fill-rule="evenodd" clip-rule="evenodd" d="M87.4829 1.29633H274.556C278.672 1.29633 282.039 5.06396 282.039 9.6689V59.9041C282.039 64.509 278.672 68.2766 274.556 68.2766H87.4829C83.3673 68.2766 80 64.509 80 59.9041V9.6689C80 5.06396 83.3674 1.29633 87.4829 1.29633Z" fill="black"/>
</g>
<path d="M273.706 67.2963H88.3729C84.3396 67.2963 81.0396 63.6401 81.0396 59.1714V10.4214C81.0396 5.95257 84.3395 2.29633 88.3729 2.29633H273.706C277.74 2.29633 281.04 5.95257 281.04 10.4214V59.1713C281.04 63.6401 277.74 67.2963 273.706 67.2963Z" fill="black"/>
<path d="M150.966 18.4491C150.966 19.852 150.594 20.9692 149.851 21.8026C149.006 22.7936 147.905 23.2894 146.552 23.2894C145.256 23.2894 144.154 22.7871 143.248 21.781C142.34 20.7757 141.887 19.529 141.887 18.0415C141.887 16.5534 142.34 15.3075 143.248 14.3013C144.154 13.296 145.256 12.7929 146.552 12.7929C147.195 12.7929 147.811 12.9336 148.395 13.2143C148.98 13.4956 149.449 13.869 149.799 14.3366L149.01 15.2203C148.416 14.4256 147.597 14.0285 146.552 14.0285C145.607 14.0285 144.789 14.4002 144.099 15.1438C143.41 15.8883 143.065 16.8537 143.065 18.0415C143.065 19.2294 143.41 20.1948 144.099 20.9393C144.789 21.6829 145.606 22.0545 146.552 22.0545C147.554 22.0545 148.39 21.6809 149.06 20.9327C149.494 20.4453 149.745 19.7677 149.813 18.8977H146.552V17.6909H150.903C150.945 17.9533 150.966 18.2051 150.966 18.4491" fill="white"/>
<path d="M150.966 18.4492H150.816C150.815 19.8201 150.457 20.8849 149.745 21.6843L149.743 21.6857L149.743 21.687C148.925 22.6438 147.874 23.1201 146.552 23.1221C145.29 23.1201 144.235 22.6386 143.353 21.6627C142.473 20.6848 142.038 19.491 142.036 18.0416C142.038 16.5915 142.473 15.3984 143.353 14.4212C144.235 13.4446 145.29 12.9625 146.552 12.9604C147.176 12.9604 147.77 13.0967 148.336 13.368C148.903 13.6415 149.351 13.9999 149.685 14.4448L149.799 14.3367L149.694 14.2184L148.904 15.1026L149.01 15.2204L149.125 15.1132C148.503 14.2792 147.63 13.8587 146.552 13.8612C145.572 13.8598 144.709 14.2518 143.996 15.0237C143.276 15.7981 142.914 16.8178 142.915 18.0416C142.914 19.2655 143.276 20.2851 143.996 21.0596C144.709 21.8315 145.572 22.2234 146.552 22.222C147.588 22.2241 148.471 21.8308 149.166 21.0512C149.63 20.5304 149.893 19.8091 149.962 18.9122L149.976 18.7304H146.702V17.8584H150.903V17.691L150.756 17.7204C150.797 17.9743 150.816 18.2156 150.816 18.4492H151.115C151.115 18.1947 151.094 17.9331 151.05 17.661L151.028 17.5235H146.402V19.0652H149.813V18.8978L149.664 18.8834C149.598 19.726 149.358 20.3605 148.954 20.8145C148.311 21.5313 147.522 21.8851 146.552 21.8871C145.642 21.8858 144.869 21.5352 144.204 20.8189C143.544 20.1053 143.216 19.1942 143.215 18.0416C143.216 16.8891 143.544 15.9779 144.204 15.2643C144.869 14.5481 145.642 14.1974 146.552 14.1961C147.564 14.1988 148.328 14.5729 148.896 15.3284L149.001 15.4684L149.905 14.4552L150.002 14.3467L149.914 14.2294C149.546 13.739 149.056 13.3497 148.454 13.0607C147.851 12.7708 147.214 12.6256 146.552 12.6256C145.221 12.6243 144.073 13.1475 143.142 14.1831C142.207 15.2166 141.736 16.5156 141.737 18.0416C141.736 19.5669 142.207 20.8667 143.143 21.9008C144.073 22.9357 145.221 23.4583 146.552 23.457C147.937 23.4583 149.087 22.9434 149.959 21.9184L149.851 21.8027L149.957 21.9212C150.732 21.0544 151.116 19.8836 151.115 18.4492H150.966H150.966ZM157.864 14.2524H153.775V17.438H157.462V18.6452H153.775V21.8308H157.864V23.0651H152.622V13.0181H157.864V14.2524Z" fill="white"/>
<path d="M157.864 14.2521V14.0847H153.625V17.6052H157.313V18.4771L153.625 18.4776V21.998H157.714V22.8974H152.771V13.1853H157.714V14.2521H157.864V14.0847V14.2521H158.014V12.8504H152.472V23.2323H158.014V21.6632H153.924V18.8124H157.612V17.2703H153.924V14.4196H158.014V14.2521H157.864ZM162.73 23.065H161.575V14.2521H159.067V13.0178H165.238V14.2521H162.73V23.0648" fill="white"/>
<path d="M162.73 23.065V22.8974H161.725V14.0847H159.217V13.1854H165.088V14.0847H162.58V23.0649H162.73V22.8974V23.0649H162.879V14.4196H165.387V12.8504H158.917V14.4195H161.425V23.2323H162.879V23.0648H162.73V23.065ZM169.702 23.065V13.0178H170.856V23.0648H169.702" fill="white"/>
<path d="M169.702 23.065H169.852V13.1853H170.706V22.8974H169.702V23.0649H169.852H169.702V23.2323H171.005V12.8504H169.552V23.2323H169.702V23.0649V23.065ZM175.973 23.065H174.819V14.2521H172.311V13.0178H178.481V14.2521H175.973V23.0648" fill="white"/>
<path d="M175.974 23.0651V22.8976H174.969V14.0848H172.461V13.1855H178.332V14.0848H175.824V23.065H175.974V22.8976V23.065H176.123V14.4197H178.631V12.8506H172.162V14.4197H174.669V23.2324H176.123V23.065H175.974V23.0651ZM184.431 20.9256C185.095 21.6784 185.909 22.0544 186.87 22.0544C187.832 22.0544 188.646 21.6784 189.309 20.9256C189.974 20.1727 190.308 19.2103 190.308 18.0415C190.308 16.8728 189.974 15.9104 189.309 15.1575C188.646 14.4047 187.832 14.0285 186.87 14.0285C185.909 14.0285 185.095 14.4047 184.431 15.1575C183.767 15.9104 183.434 16.8727 183.434 18.0415C183.434 19.2103 183.767 20.1727 184.431 20.9256ZM190.163 21.7666C189.28 22.7824 188.182 23.2894 186.87 23.2894C185.557 23.2894 184.46 22.7824 183.579 21.7666C182.695 20.752 182.256 19.5101 182.256 18.0415C182.256 16.573 182.695 15.3308 183.579 14.3164C184.46 13.3004 185.557 12.7929 186.87 12.7929C188.175 12.7929 189.27 13.3031 190.157 14.3229C191.043 15.3427 191.486 16.5821 191.486 18.0415C191.486 19.5101 191.044 20.752 190.163 21.7666Z" fill="white"/>
<path d="M184.431 20.9257L184.324 21.0434C185.014 21.8263 185.874 22.2241 186.87 22.222C187.866 22.2241 188.728 21.8263 189.416 21.0434C190.11 20.2596 190.459 19.2458 190.457 18.0416C190.459 16.8375 190.11 15.8236 189.416 15.0399C188.728 14.2569 187.866 13.8592 186.87 13.8612C185.874 13.8592 185.014 14.2569 184.324 15.0399C183.632 15.8236 183.283 16.8375 183.284 18.0416C183.283 19.2457 183.632 20.2596 184.324 21.0434L184.431 20.9257L184.537 20.8079C183.902 20.085 183.585 19.1758 183.584 18.0416C183.585 16.9075 183.902 15.9982 184.537 15.2753C185.178 14.5526 185.943 14.1981 186.87 14.1962C187.797 14.1981 188.564 14.5526 189.203 15.2753C189.839 15.9982 190.156 16.9075 190.158 18.0416C190.156 19.1757 189.839 20.085 189.203 20.8079C188.564 21.5306 187.797 21.8851 186.87 21.8871C185.943 21.8851 185.178 21.5306 184.537 20.8079L184.431 20.9257ZM190.163 21.7667L190.056 21.6504C189.198 22.6341 188.148 23.1201 186.87 23.1221C185.592 23.1201 184.542 22.6341 183.686 21.6504L183.682 21.6451L183.686 21.6504C182.83 20.6632 182.407 19.4728 182.406 18.0416C182.407 16.6104 182.83 15.42 183.686 14.4329C184.542 13.4491 185.592 12.9625 186.87 12.9605C188.14 12.9625 189.187 13.4511 190.05 14.4401C190.909 15.4317 191.334 16.6202 191.336 18.0416C191.334 19.4728 190.911 20.6632 190.056 21.6504L190.163 21.7667L190.27 21.8831C191.178 20.8405 191.637 19.5473 191.636 18.0416C191.637 16.5445 191.176 15.2539 190.264 14.2067C189.353 13.1554 188.21 12.6237 186.87 12.6256C185.523 12.6237 184.378 13.1529 183.471 14.2001V14.1994C182.562 15.2427 182.105 16.5359 182.106 18.0416C182.105 19.5473 182.562 20.8405 183.471 21.8838L183.476 21.8885L183.471 21.8831C184.378 22.9303 185.523 23.4583 186.87 23.457C188.217 23.4583 189.362 22.9303 190.27 21.8831L190.163 21.7667ZM193.105 23.0652V13.018H194.509L198.873 20.8339H198.923L198.873 18.8977V13.018H200.028V23.0651H198.824L194.258 14.8704H194.208L194.258 16.8073V23.0651H193.105" fill="white"/>
<path d="M193.105 23.065H193.255V13.1853H194.426L198.79 21.0012H199.077L199.023 18.8951V13.1854H199.878V22.8974H198.907L194.341 14.7028H194.054L194.108 16.8098V22.8974H193.105V23.0649H193.255H193.105V23.2323H194.407V16.8045L194.358 14.8657L194.208 14.8702V15.0377H194.258V14.8702L194.131 14.9592L198.74 23.2323H200.177V12.8504H198.724V18.8995L198.773 20.8383L198.923 20.8338V20.6663H198.873V20.8338L199 20.7449L194.592 12.8504H192.955V23.2323H193.105V23.0649L193.105 23.065ZM240.039 51.5315H242.831V30.5982H240.039L240.039 51.5315ZM265.192 38.1389L261.991 47.2145H261.895L258.572 38.1388H255.564L260.546 50.8237L257.706 57.8796H260.62L268.297 38.1388L265.192 38.1389ZM249.355 49.154C248.439 49.154 247.164 48.6424 247.164 47.3761C247.164 45.7603 248.753 45.141 250.124 45.141C251.353 45.141 251.929 45.4372 252.676 45.8416C252.459 47.7803 250.967 49.154 249.355 49.154ZM249.692 37.6809C247.67 37.6809 245.576 38.6777 244.71 40.8861L247.188 42.0438C247.718 40.8861 248.704 40.5086 249.74 40.5086C251.184 40.5086 252.652 41.4786 252.676 43.2022V43.4175C252.17 43.0942 251.088 42.6096 249.764 42.6096C247.092 42.6096 244.371 44.252 244.371 47.3224C244.371 50.1233 246.562 51.9279 249.017 51.9279C250.895 51.9279 251.929 50.9853 252.58 49.8813H252.676V51.4969H255.371V43.471C255.371 39.7551 252.893 37.6809 249.692 37.6809ZM232.433 40.6871H228.461V33.5117H232.433C234.521 33.5117 235.706 35.4458 235.706 37.0993C235.706 38.7215 234.521 40.6871 232.433 40.6871ZM232.361 30.5982H225.67V51.5315H228.461V43.6006H232.361C235.456 43.6006 238.499 41.0933 238.499 37.0993C238.499 33.1054 235.456 30.5982 232.361 30.5982ZM195.873 49.1578C193.944 49.1578 192.328 47.3505 192.328 44.8682C192.328 42.3598 193.944 40.525 195.873 40.525C197.778 40.525 199.272 42.3597 199.272 44.8682C199.272 47.3505 197.778 49.1578 195.873 49.1578H195.873ZM199.08 39.311H198.983C198.356 38.4749 197.15 37.7196 195.632 37.7196C192.449 37.7196 189.532 40.8487 189.532 44.8682C189.532 48.8609 192.449 51.9633 195.632 51.9633C197.15 51.9633 198.356 51.2077 198.983 50.345H199.08V51.37C199.08 54.0951 197.778 55.5517 195.68 55.5517C193.968 55.5517 192.907 54.1754 192.473 53.0157L190.038 54.1486C190.737 56.037 192.594 58.3572 195.68 58.3572C198.959 58.3572 201.732 56.1986 201.732 50.9383V38.1512H199.08V39.311ZM203.66 51.5315H206.457V30.5975H203.66V51.5315ZM210.58 44.6255C210.508 41.8736 212.485 40.4712 213.907 40.4712C215.017 40.4712 215.957 41.0914 216.27 41.9824L210.58 44.6255ZM219.26 42.2517C218.73 40.6596 217.114 37.7196 213.811 37.7196C210.532 37.7196 207.808 40.606 207.808 44.8414C207.808 48.8341 210.508 51.9633 214.124 51.9633C217.042 51.9633 218.73 49.9669 219.429 48.8071L217.259 47.1882C216.536 48.3754 215.547 49.1578 214.124 49.1578C212.702 49.1578 211.69 48.4292 211.038 46.9998L219.549 43.0609L219.26 42.2517ZM151.453 39.9048V42.9261H157.914C157.721 44.6255 157.215 45.8664 156.443 46.7297C155.503 47.7822 154.032 48.942 151.452 48.942C147.474 48.942 144.364 45.3541 144.364 40.9029C144.364 36.4518 147.474 32.8635 151.453 32.8635C153.598 32.8635 155.165 33.8079 156.323 35.0219L158.227 32.8909C156.612 31.164 154.466 29.8422 151.453 29.8422C146.003 29.8422 141.422 34.8061 141.422 40.9029C141.422 46.9998 146.003 51.9633 151.453 51.9633C154.394 51.9633 156.612 50.8847 158.348 48.8609C160.132 46.8645 160.687 44.0591 160.687 41.7933C160.687 41.0914 160.639 40.4445 160.542 39.9048H151.453ZM168.033 49.1578C166.104 49.1578 164.44 47.3772 164.44 44.8414C164.44 42.2785 166.104 40.525 168.033 40.525C169.962 40.525 171.625 42.2785 171.625 44.8414C171.625 47.3773 169.962 49.1578 168.033 49.1578ZM168.033 37.7196C164.512 37.7196 161.643 40.7139 161.643 44.8414C161.643 48.942 164.512 51.9633 168.033 51.9633C171.553 51.9633 174.422 48.942 174.422 44.8414C174.422 40.7139 171.553 37.7196 168.033 37.7196ZM181.971 49.1578C180.043 49.1578 178.379 47.3772 178.379 44.8414C178.379 42.2785 180.043 40.525 181.971 40.525C183.9 40.525 185.563 42.2785 185.563 44.8414C185.563 47.3773 183.9 49.1578 181.971 49.1578H181.971ZM181.971 37.7196C178.451 37.7196 175.582 40.7139 175.582 44.8414C175.582 48.942 178.451 51.9633 181.971 51.9633C185.491 51.9633 188.36 48.942 188.36 44.8414C188.36 40.7139 185.491 37.7196 181.971 37.7196H181.971Z" fill="white"/>
<path d="M95.7268 14.0418C95.2246 14.5488 94.9248 15.3945 94.9248 16.517V16.2632V53.3052V53.0612C94.9248 54.0979 95.182 54.8984 95.6174 55.414L95.7286 55.5331V55.5336C96.0811 55.8895 96.533 56.0785 97.051 56.0779C97.5572 56.0779 98.1266 55.8973 98.7276 55.5161L120.451 41.7059L127.913 36.9617C128.86 36.3593 129.392 35.5822 129.481 34.7907V34.7874C129.392 33.9941 128.86 33.2176 127.913 32.6152L120.45 27.8715L98.7277 14.0614C98.1254 13.6794 97.5556 13.4982 97.0481 13.4982C96.5307 13.4982 96.0793 13.6866 95.727 14.0418H95.7268Z" fill="#00C1FF"/>
<path d="M95.7287 55.5328L95.6174 55.4137C95.182 54.8982 94.9248 54.0976 94.9248 53.0609V53.3049V16.2721V16.5167C94.9248 15.3942 95.2246 14.5485 95.7268 14.0415L114.269 34.7878L95.7287 55.5328Z" fill="url(#paint0_linear_40_1345)"/>
<path d="M120.451 41.7059L114.27 34.7881L120.451 27.8716L127.913 32.6151C128.861 33.2176 129.393 33.994 129.482 34.7875V34.7906C129.393 35.5822 128.861 36.3594 127.913 36.9616L120.451 41.7058" fill="url(#paint1_linear_40_1345)"/>
<path d="M97.0513 56.0775C96.5334 56.078 96.0814 55.8889 95.729 55.5331V55.5326L114.27 34.7876L120.451 41.7054L98.7279 55.5156C98.1269 55.8969 97.5575 56.0775 97.0513 56.0775Z" fill="url(#paint2_linear_40_1345)"/>
<path d="M114.27 34.7884L95.7271 14.0421C96.0795 13.6869 96.5309 13.4985 97.0482 13.4985C97.5557 13.4985 98.1257 13.6796 98.7279 14.0616L120.451 27.8718L114.269 34.7884" fill="url(#paint3_linear_40_1345)"/>
<path d="M97.0518 56.3235C96.5338 56.3235 96.0812 56.1345 95.7288 55.7787L95.7282 55.7793C95.7267 55.7777 95.7252 55.7762 95.7235 55.7748L95.6271 55.6694C95.6241 55.6661 95.6212 55.6623 95.6177 55.6584L95.7288 55.534C96.0813 55.8898 96.5332 56.0789 97.0513 56.0782C97.5574 56.0782 98.1268 55.8977 98.7278 55.5164L120.451 41.7063L120.59 41.862L120.449 41.9516L98.7278 55.761C98.1801 56.1084 97.6591 56.2895 97.1885 56.3197C97.143 56.3222 97.0974 56.3235 97.0518 56.3235" fill="url(#paint4_linear_40_1345)"/>
<path d="M95.6174 55.6578C95.182 55.1423 94.9248 54.3423 94.9248 53.305V53.061C94.9248 54.0976 95.182 54.8982 95.6174 55.4138L95.7286 55.5329L95.6174 55.6578Z" fill="url(#paint5_linear_40_1345)"/>
<path d="M120.59 41.8608L120.451 41.705L127.912 36.9609C128.86 36.3586 129.392 35.5814 129.481 34.7899C129.481 35.0804 129.423 35.3708 129.308 35.6534C129.076 36.2231 128.611 36.7614 127.913 37.2055L120.59 41.8609" fill="url(#paint6_linear_40_1345)"/>
<path d="M129.481 34.7879C129.392 33.9945 128.86 33.2181 127.913 32.6156L120.45 27.872L120.589 27.7162H120.59L127.913 32.3716C128.957 33.0362 129.481 33.9119 129.481 34.7879Z" fill="url(#paint7_linear_40_1345)"/>
<path d="M94.9248 16.5167V16.2608C94.9248 16.1685 94.927 16.0783 94.9313 15.9907V15.9867C94.9313 15.9855 94.9313 15.9842 94.9317 15.9829V15.973C94.9767 15.0801 95.2246 14.3836 95.6174 13.9185L95.7268 14.0414C95.2246 14.5485 94.9248 15.3941 94.9248 16.5167Z" fill="url(#paint8_linear_40_1345)"/>
<path d="M120.45 27.8715L98.7278 14.0612C98.1256 13.6793 97.5557 13.4981 97.0483 13.4981C96.5309 13.4981 96.0795 13.6865 95.7271 14.0417L95.6177 13.9188C95.6518 13.8783 95.6873 13.8392 95.7241 13.8017C95.7253 13.8004 95.7271 13.799 95.7282 13.7977C96.0779 13.4452 96.5245 13.2569 97.0372 13.2535H97.0483C97.5557 13.2535 98.1256 13.4347 98.7278 13.8168L120.59 27.7152L120.59 27.7157L120.45 27.8715Z" fill="url(#paint9_linear_40_1345)"/>
<defs>
<filter id="filter0_dddddd_40_1345" x="0" y="2.94447e-05" width="362.039" height="248.277" filterUnits="userSpaceOnUse" color-interpolation-filters="sRGB">
<feFlood flood-opacity="0" result="BackgroundImageFix"/>
<feColorMatrix in="SourceAlpha" type="matrix" values="0 0 0 0 0 0 0 0 0 0 0 0 0 0 0 0 0 0 127 0" result="hardAlpha"/>
<feOffset dy="1.85185"/>
<feGaussianBlur stdDeviation="1.57407"/>
<feColorMatrix type="matrix" values="0 0 0 0 0.219608 0 0 0 0 0.219608 0 0 0 0 0.219608 0 0 0 0.0240741 0"/>
<feBlend mode="normal" in2="BackgroundImageFix" result="effect1_dropShadow_40_1345"/>
<feColorMatrix in="SourceAlpha" type="matrix" values="0 0 0 0 0 0 0 0 0 0 0 0 0 0 0 0 0 0 127 0" result="hardAlpha"/>
<feOffset dy="8.14815"/>
<feGaussianBlur stdDeviation="3.25926"/>
<feColorMatrix type="matrix" values="0 0 0 0 0.219608 0 0 0 0 0.219608 0 0 0 0 0.219608 0 0 0 0.0392593 0"/>
<feBlend mode="normal" in2="effect1_dropShadow_40_1345" result="effect2_dropShadow_40_1345"/>
<feColorMatrix in="SourceAlpha" type="matrix" values="0 0 0 0 0 0 0 0 0 0 0 0 0 0 0 0 0 0 127 0" result="hardAlpha"/>
<feOffset dy="20"/>
<feGaussianBlur stdDeviation="6.5"/>
<feColorMatrix type="matrix" values="0 0 0 0 0.219608 0 0 0 0 0.219608 0 0 0 0 0.219608 0 0 0 0.05 0"/>
<feBlend mode="normal" in2="effect2_dropShadow_40_1345" result="effect3_dropShadow_40_1345"/>
<feColorMatrix in="SourceAlpha" type="matrix" values="0 0 0 0 0 0 0 0 0 0 0 0 0 0 0 0 0 0 127 0" result="hardAlpha"/>
<feOffset dy="38.5185"/>
<feGaussianBlur stdDeviation="12.7407"/>
<feColorMatrix type="matrix" values="0 0 0 0 0.219608 0 0 0 0 0.219608 0 0 0 0 0.219608 0 0 0 0.0607407 0"/>
<feBlend mode="normal" in2="effect3_dropShadow_40_1345" result="effect4_dropShadow_40_1345"/>
<feColorMatrix in="SourceAlpha" type="matrix" values="0 0 0 0 0 0 0 0 0 0 0 0 0 0 0 0 0 0 127 0" result="hardAlpha"/>
<feOffset dy="64.8148"/>
<feGaussianBlur stdDeviation="23.4259"/>
<feColorMatrix type="matrix" values="0 0 0 0 0.219608 0 0 0 0 0.219608 0 0 0 0 0.219608 0 0 0 0.0759259 0"/>
<feBlend mode="normal" in2="effect4_dropShadow_40_1345" result="effect5_dropShadow_40_1345"/>
<feColorMatrix in="SourceAlpha" type="matrix" values="0 0 0 0 0 0 0 0 0 0 0 0 0 0 0 0 0 0 127 0" result="hardAlpha"/>
<feOffset dy="100"/>
<feGaussianBlur stdDeviation="40"/>
<feColorMatrix type="matrix" values="0 0 0 0 0.219608 0 0 0 0 0.219608 0 0 0 0 0.219608 0 0 0 0.1 0"/>
<feBlend mode="normal" in2="effect5_dropShadow_40_1345" result="effect6_dropShadow_40_1345"/>
<feBlend mode="normal" in="SourceGraphic" in2="effect6_dropShadow_40_1345" result="shape"/>
</filter>
<linearGradient id="paint0_linear_40_1345" x1="106.775" y1="15.8807" x2="89.03" y2="31.791" gradientUnits="userSpaceOnUse">
<stop stop-color="#00A0FF"/>
<stop offset="0.00657" stop-color="#00A1FF"/>
<stop offset="0.2601" stop-color="#00BEFF"/>
<stop offset="0.5122" stop-color="#00D2FF"/>
<stop offset="0.7604" stop-color="#00DFFF"/>
<stop offset="1" stop-color="#00E3FF"/>
</linearGradient>
<linearGradient id="paint1_linear_40_1345" x1="130.636" y1="34.6686" x2="94.4233" y2="34.6686" gradientUnits="userSpaceOnUse">
<stop stop-color="#FFE000"/>
<stop offset="0.4087" stop-color="#FFBD00"/>
<stop offset="0.7754" stop-color="#FFA500"/>
<stop offset="1" stop-color="#FF9C00"/>
</linearGradient>
<linearGradient id="paint2_linear_40_1345" x1="117.169" y1="41.3647" x2="87.1241" y2="68.1075" gradientUnits="userSpaceOnUse">
<stop stop-color="#FF3A44"/>
<stop offset="1" stop-color="#C31162"/>
</linearGradient>
<linearGradient id="paint3_linear_40_1345" x1="90.9481" y1="10.9663" x2="104.341" y2="22.9053" gradientUnits="userSpaceOnUse">
<stop stop-color="#32A071"/>
<stop offset="0.0685" stop-color="#2DA771"/>
<stop offset="0.4762" stop-color="#15CF74"/>
<stop offset="0.8009" stop-color="#06E775"/>
<stop offset="1" stop-color="#00F076"/>
</linearGradient>
<linearGradient id="paint4_linear_40_1345" x1="117.156" y1="46.1641" x2="93.0745" y2="67.7563" gradientUnits="userSpaceOnUse">
<stop stop-color="#CC2E36"/>
<stop offset="1" stop-color="#9C0E4E"/>
</linearGradient>
<linearGradient id="paint5_linear_40_1345" x1="97.3949" y1="15.8807" x2="81.7622" y2="29.8978" gradientUnits="userSpaceOnUse">
<stop stop-color="#008DE0"/>
<stop offset="0.00657" stop-color="#008DE0"/>
<stop offset="0.2601" stop-color="#00A7E0"/>
<stop offset="0.5122" stop-color="#00B8E0"/>
<stop offset="0.7604" stop-color="#00C4E0"/>
<stop offset="1" stop-color="#00C7E0"/>
</linearGradient>
<linearGradient id="paint6_linear_40_1345" x1="130.636" y1="34.7884" x2="94.4228" y2="34.7884" gradientUnits="userSpaceOnUse">
<stop stop-color="#E0C500"/>
<stop offset="0.4087" stop-color="#E0A600"/>
<stop offset="0.7754" stop-color="#E09100"/>
<stop offset="1" stop-color="#E08900"/>
</linearGradient>
<linearGradient id="paint7_linear_40_1345" x1="130.636" y1="34.7896" x2="94.423" y2="34.7896" gradientUnits="userSpaceOnUse">
<stop stop-color="#FFE840"/>
<stop offset="0.4087" stop-color="#FFCE40"/>
<stop offset="0.7754" stop-color="#FFBC40"/>
<stop offset="1" stop-color="#FFB540"/>
</linearGradient>
<linearGradient id="paint8_linear_40_1345" x1="97.3797" y1="15.9091" x2="82.3957" y2="28.7622" gradientUnits="userSpaceOnUse">
<stop stop-color="#40B8FF"/>
<stop offset="0.00657" stop-color="#40B9FF"/>
<stop offset="0.2601" stop-color="#40CEFF"/>
<stop offset="0.5122" stop-color="#40DDFF"/>
<stop offset="0.7604" stop-color="#40E7FF"/>
<stop offset="1" stop-color="#40EAFF"/>
</linearGradient>
<linearGradient id="paint9_linear_40_1345" x1="90.9211" y1="15.3534" x2="101.674" y2="24.9954" gradientUnits="userSpaceOnUse">
<stop stop-color="#65B895"/>
<stop offset="0.0685" stop-color="#62BD95"/>
<stop offset="0.4762" stop-color="#50DB97"/>
<stop offset="0.8009" stop-color="#44ED98"/>
<stop offset="1" stop-color="#40F498"/>
</linearGradient>
</defs>
</svg>
