<svg width="361" height="208" viewBox="0 0 361 208" fill="none" xmlns="http://www.w3.org/2000/svg">
<g filter="url(#filter0_d_40_1422)">
<rect x="50" y="30" width="261" height="108" rx="10" fill="white"/>
</g>
<path d="M173.19 51.3001L174.04 50.9001C172.55 49.9701 168.38 48.9001 164.92 47.8301L167.12 48.7001C166.65 48.9901 168.53 49.7901 168.39 50.1401C168.55 49.3301 171.48 50.8901 173.19 51.3001Z" fill="#424242"/>
<path d="M179.42 51.8901L173.55 50.4399L175.87 51.4201L179.42 51.8901Z" fill="#424242"/>
<path d="M178.41 52.8701C178.711 53.0309 179.026 53.1648 179.35 53.2701C179.046 53.1158 178.732 52.9821 178.41 52.8701Z" fill="#FC8156"/>
<path d="M187.27 54.6999C184.618 54.0181 182.013 53.1664 179.47 52.15C180.118 52.4988 180.786 52.8094 181.47 53.08C179.64 52.56 177.11 52.08 174.96 51.51C175.76 52.26 177.05 52.37 178.41 52.85C178.06 52.65 177.96 52.49 178.62 52.56C180.55 53.6499 182.03 53.37 183.84 54.3499L181.94 53.9999C182.04 54.5799 185.94 54.6399 185.57 55.4999C188.25 55.6399 183.91 54.1999 187.27 54.6999Z" fill="#424242"/>
<path d="M189.15 55.53C188.95 55.53 188.89 55.6101 188.93 55.6801C188.97 55.7501 189.23 55.6 189.15 55.53Z" fill="#FC8156"/>
<path d="M188.54 56.1599C190.49 56.8 193.54 57.7201 194.24 57.21C192.32 56.11 191.78 56.57 190.76 56.57C190.119 56.342 189.505 56.0435 188.93 55.6799C188.57 55.7499 188 55.8099 188.54 56.1599Z" fill="#424242"/>
<path d="M197.83 58.42L196.83 58.25V57.79C196.345 57.9966 195.823 58.1031 195.295 58.1031C194.768 58.1031 194.245 57.9966 193.76 57.79C194.69 58.43 195.15 58.14 196.15 58.6L197.83 58.42Z" fill="#424242"/>
<path d="M195.56 55.31C194.353 55.1456 193.138 55.0455 191.92 55.01C194.19 55.25 197.82 57.0098 197.58 55.7999C196.857 55.5762 196.113 55.4288 195.36 55.36L195.56 55.31Z" fill="#424242"/>
<path d="M197.71 55.8401C198.817 56.3748 200.008 56.7131 201.23 56.8401C200.14 56.5201 198.83 56.1401 197.71 55.8401Z" fill="#424242"/>
<path d="M197.58 55.8H197.71L197.58 55.73V55.8Z" fill="#FC8156"/>
<path d="M202.34 60.2699L199.39 59.1699L200.07 59.5799L202.34 60.2699Z" fill="#424242"/>
<path d="M199.29 57.3901C201.67 58.2001 198.11 56.5201 200.38 57.2101C201.01 57.3301 197.04 56.2101 196.78 56.4601C197.34 56.7501 199.19 56.8101 199.29 57.3901Z" fill="#424242"/>
<path d="M206.71 61.7C207.71 61.7 209.15 62.8 210.41 63.03L211 62.8601C208.17 62.6401 208.11 61.14 206.71 61.7Z" fill="#424242"/>
<path d="M217.35 64.3301C216.96 64.4401 216.21 64.21 216.26 64.5C215.38 64.15 215.65 63.92 215.08 63.63C213.43 63.51 211.08 62.53 209.78 62.47C210.194 62.5493 210.595 62.6874 210.97 62.88C213.28 63.88 216.65 64.3801 218.18 65.6001C217.89 65.0801 219.42 65.0801 217.35 64.3301Z" fill="#424242"/>
<path d="M208.35 60.1499C207.83 59.98 207.35 59.8101 206.89 59.6401C207.346 59.8917 207.839 60.0704 208.35 60.1699V60.1499Z" fill="#424242"/>
<path d="M208.71 60.0501C209.5 59.8201 211.3 60.8001 211.76 60.5201C211.76 60.3101 210.67 59.8701 210.36 59.6601C209.67 60.2701 207.63 58.8201 208.36 60.1501C209.171 60.413 209.995 60.63 210.83 60.8001L208.71 60.0501Z" fill="#424242"/>
<path d="M204.79 58.49L203.79 58.78C204.833 58.993 205.859 59.2805 206.86 59.6401C206.41 59.3001 206.8 59.0501 204.79 58.49Z" fill="#424242"/>
<path d="M210.39 59.7C210.432 59.6614 210.469 59.6177 210.5 59.5701C210.26 59.5201 210.27 59.5701 210.39 59.7Z" fill="#FC8156"/>
<path d="M220.19 63.6299L219.44 63.4099L219.66 63.4999L220.14 63.6899L220.68 63.8899C221.23 64.0799 221.77 64.2599 222.32 64.4299C221.9 64.2499 221.46 64.0799 220.98 63.8999L220.19 63.6299Z" fill="#424242"/>
<path d="M217.94 62.6999C218.6 63.0899 218.83 63.44 217.79 63.2499L216.93 62.4399L214.06 62.3799C216.23 62.4999 218.26 64.17 218.93 63.38L219.86 64.01L219.45 63.39L218.77 63.0999L217.94 62.6999Z" fill="#424242"/>
<path d="M225.71 65.17L225.84 65.2799C224.654 65.0879 223.484 64.8072 222.34 64.4399L222.62 64.5599C223.432 64.9057 224.215 65.3171 224.96 65.7899C224.31 67.0799 223.72 68.08 223.28 68.9C223.13 69.18 222.99 69.44 222.88 69.7C222.88 69.75 222.79 69.77 222.75 69.7C222.744 69.0808 222.925 68.4742 223.27 67.96C223.61 67.33 224.05 66.59 224.27 66.14C224.184 66.0823 224.083 66.0516 223.98 66.0516C223.877 66.0516 223.776 66.0823 223.69 66.14C223.77 66.2144 223.853 66.2845 223.94 66.3499C223.499 67.1966 223.115 68.0719 222.79 68.9699C222.63 69.3799 222.49 69.7399 222.36 69.9699C222.268 70.2146 222.129 70.4389 221.95 70.6299C221.95 71.1099 222.54 69.93 222.34 71.17C222.02 72.0779 221.524 72.9138 220.88 73.6299L220.98 74.7599C220.36 74.7599 219.88 76.66 219.33 78.7C219.92 77.36 220.53 75.9799 221.13 74.5299C221.47 73.7099 221.81 72.8499 222.13 71.9699C222.19 71.7899 222.26 71.6 222.33 71.42C221.85 75.06 219.97 78.0399 219 81.6299C218.88 83.5099 219.75 80 220.05 79.89C220.69 80.63 219.12 81.4899 219.52 82.4999C220.03 82.9099 221.25 78.9799 222.06 77.4999C222.39 76.1299 222.2 76.09 222 75.58C222.43 75.34 222.94 73.99 223.36 73.74C223.446 73.0778 223.594 72.425 223.8 71.7899C223.89 71.4999 223.99 71.23 224.09 70.96C224.19 70.69 224.32 70.36 224.43 70.05C225.037 68.5808 225.477 67.0477 225.74 65.4799C225.798 65.3698 225.876 65.2715 225.97 65.1899L225.71 65.17Z" fill="#424242"/>
<path d="M225.97 65.2499L225.45 67C225.26 67.5301 225.45 67.09 225.66 66.5C225.87 65.91 226.09 65.2099 225.97 65.2499Z" fill="#FC8156"/>
<path d="M217.94 62.7C217.79 62.61 217.63 62.5299 217.45 62.4399C217.609 62.5351 217.772 62.6219 217.94 62.7Z" fill="#FC8156"/>
<path d="M214.54 61.6401L213.04 61.21C213.517 61.4251 214.022 61.57 214.54 61.6401Z" fill="#424242"/>
<path d="M216.27 61.62C213.97 60.71 215.2 61.62 214.54 61.62L216.69 62.23L216.27 61.62Z" fill="#424242"/>
<path d="M218.92 83.7C218.92 84.97 219.6 83.7 219.92 82.28C219.53 83.52 219.06 84.07 218.92 83.7Z" fill="#FC8156"/>
<path d="M211.57 98.7C211.37 98.78 211.14 99.1299 210.97 100.13C211.234 99.6829 211.436 99.2018 211.57 98.7Z" fill="#424242"/>
<path d="M222.71 68.1699C222.71 68.3299 222.61 68.4899 222.55 68.6499C222.614 68.4936 222.667 68.3333 222.71 68.1699Z" fill="#FC8156"/>
<path d="M215.4 87.5401L215.53 87.3401C215.484 87.3996 215.444 87.4632 215.41 87.5301L215.4 87.5401Z" fill="#FC8156"/>
<path d="M162.23 48.1699L161.17 47.8999C161.521 48.0121 161.879 48.1055 162.24 48.1799L162.23 48.1699Z" fill="#FC8156"/>
<path d="M163.39 47.86C163.077 47.6131 162.743 47.3955 162.39 47.2101C161.93 46.9921 161.436 46.8535 160.93 46.8C161.364 46.9869 161.779 47.2146 162.17 47.48C162.28 47.58 162.17 47.58 162.02 47.58C161.87 47.58 161.71 47.58 161.7 47.64C161.69 47.7 161.84 47.87 162.24 48.17C163.52 48.5 164.82 48.8301 166.07 49.1201C165.099 48.8903 164.186 48.4612 163.39 47.86Z" fill="#424242"/>
<path d="M166.06 49.1201C166.26 49.1801 166.47 49.2301 166.7 49.2801L166.06 49.1201Z" fill="#FC8156"/>
<path d="M190.78 54.8999H190.65C190.88 54.9302 191 54.9402 190.78 54.8999Z" fill="#FC8156"/>
<path d="M155.03 118.35C155.58 118.64 156.93 118.7 157.93 119.16C157.05 118.81 155.56 117.89 155.03 118.35Z" fill="#424242"/>
<path d="M154.47 120.48V120.38C154.33 120.38 154.15 120.38 153.94 120.38L154.47 120.48Z" fill="#424242"/>
<path d="M154.62 120.13L154.51 120.38C154.81 120.39 154.93 120.33 154.62 120.13Z" fill="#424242"/>
<path d="M150.57 119.2L152.52 119.84C152.37 120.19 152.3 120.36 151.11 119.95C151.751 120.201 152.425 120.359 153.11 120.42L152.67 120.25C153.102 120.245 153.533 120.275 153.96 120.34C152.25 119.76 151.19 118.47 150.57 119.2Z" fill="#424242"/>
<path d="M147.71 118.7C148.46 118.93 150.29 119.45 149.88 118.82L147.71 118.7Z" fill="#424242"/>
<path d="M144.92 117.24C147.1 118.24 146.02 117.24 147.38 117.55C147.017 117.415 146.636 117.331 146.25 117.3C147.38 117.87 145.43 117.24 144.92 117.24Z" fill="#424242"/>
<path d="M147.38 117.55C147.569 117.615 147.763 117.665 147.96 117.7L147.38 117.55Z" fill="#FC8156"/>
<path d="M169.11 121.77L169.04 121.54C168.91 121.57 168.89 121.63 169.11 121.77Z" fill="#FC8156"/>
<path d="M140.43 115.32L140.21 115.23L139.21 114.96L140.43 115.32Z" fill="#FC8156"/>
<path d="M136.87 107.18V107.13C136.87 107.13 136.89 107.12 136.87 107.18Z" fill="#FC8156"/>
<path d="M215.28 86.96C215.97 85.42 215.28 88.13 215.93 86.87C215.77 88.52 214.11 90.21 213.62 93.08C213.82 92.08 214.1 92.56 214.04 93.08C213.26 94.82 212.52 97.81 211.94 99.63C211.983 99.6024 212.034 99.5878 212.085 99.5878C212.136 99.5878 212.187 99.6024 212.23 99.63C211.712 100.89 211.128 102.122 210.48 103.32C207.71 109.78 205.73 119.19 203.07 124.55C202.07 126.17 203.15 122.55 202.7 123.21C202.43 124.934 202.297 126.676 202.3 128.42C197.316 126.287 192.215 124.44 187.02 122.89C186.23 122.78 185.52 122.76 186.53 123.25C188.31 123.48 189.05 124.17 187.7 124.11C185.8 123.76 188.04 123.71 185.7 123.47L186.7 123.94C185.185 123.446 183.59 123.246 182 123.35C173.78 120.17 164.18 119.06 157.19 115.83L154.5 115.71C154.5 115.42 154.28 115.02 153.02 114.79C153.46 114.96 154.22 115.19 154.02 115.25L148.41 113.57L148.9 114.03C147.8 113.564 146.658 113.203 145.49 112.95C144.403 112.761 143.363 112.36 142.43 111.77C142.34 111.94 141.35 111.77 141.21 112.02C140.78 111.83 140.35 111.66 139.92 111.49C140.28 110.49 140.57 109.55 140.85 108.59C141.2 107.34 141.56 106.08 141.85 104.86C142.463 102.534 143.276 100.266 144.28 98.08C143.94 98.45 143.94 97.94 143.88 97.74C144.4 95.91 144.23 97.37 144.57 97.01C143.31 95.79 152.57 72.56 152.65 69.37C152.47 69.81 152.3 70.25 152.24 70.05C153.36 66.21 154.53 62.23 155.69 58.26C156.26 56.26 156.83 54.26 157.4 52.35L158.15 49.66L158.81 47.24L161.07 47.83C160.14 47.53 159.94 47.24 159.83 46.96C159.72 46.68 159.74 46.41 158.98 46.09C158.28 46.01 158.83 46.27 159.27 46.48C159.71 46.69 160.05 46.88 159.19 46.74C158.886 46.5468 158.573 46.3699 158.25 46.21C157.988 46.7469 157.878 47.345 157.93 47.94C157.941 48.2308 157.904 48.5214 157.82 48.8C157.681 49.2133 157.482 49.6041 157.23 49.96C157.23 49.4334 157.25 48.8533 157.29 48.22C156.91 50.1 156.51 51.86 156 53.82C155.49 55.78 154.91 57.82 154.33 59.67L153.87 59.14C153.7 60.6 153.06 62.55 152.49 62.64C153.93 58.31 152.84 57.16 154.23 54.64C154.34 55.03 154.23 54.83 154.51 54.59C154.477 53.7877 154.52 52.984 154.64 52.19C154.713 51.6907 154.816 51.1965 154.95 50.71C155.017 50.4634 155.097 50.2134 155.19 49.96L155.37 49.45C155.45 49.27 155.52 49.08 155.59 48.9V49.7C155.579 49.8865 155.579 50.0735 155.59 50.26C156.16 48.42 156.74 46.51 157.31 44.62L161.37 45.85L163.21 46.37L164.71 46.7C163.9 46.18 164.93 46.18 166.32 46.53C168.39 47.28 165.61 46.58 166.42 47.11C167.52 48.11 171.54 48.32 173.05 48.79C172.54 48.79 177 50.35 174.15 49.79C177.42 50.95 180.04 50.79 182.02 52.17C182.754 51.9924 183.518 51.972 184.26 52.11L184.04 52.63L185.26 52.58C187.48 53.26 188.26 54.65 190.64 54.87C190.2 54.78 189.31 54.55 189.33 54.25C189.67 53.85 193.96 55.01 193.33 54.14L191.33 53.97C192.11 53.74 189.65 53.1 190.23 52.97L185.12 51.7V51.24L186.24 51.82C187.99 51.3 183.78 51.18 182.48 50.2L182.34 50.54C178.07 48.93 180.65 49.68 177.14 48.29L175.93 48.35C175.73 48.4 179.29 48.87 179.07 49.35C176.66 49 173.51 47.96 170.91 47.67L172.91 47.36C171.97 47.36 170.71 46.12 168.42 45.53L170.42 46.46C169.024 46.4529 167.642 46.1779 166.35 45.65C165.55 45.39 164.72 45.12 163.91 44.88L163.25 44.7L162.25 44.43C161.583 44.2567 160.963 44.1167 160.39 44.01C161.66 44.4 162.94 44.79 163.07 45.1C161.138 44.7136 159.251 44.1271 157.44 43.35C157.44 42.85 160.31 43.58 163.03 44.35L163.51 44.47L163.79 44.54L164.32 44.66C164.67 44.74 164.98 44.8 165.23 44.84C165.74 44.91 166.03 44.89 165.91 44.65C165.323 44.4573 164.726 44.3004 164.12 44.18L163.68 44.1L163.35 44.03L162.95 43.94L161.43 43.61C159.43 43.21 157.82 42.94 156.43 42.61C156.231 43.4731 155.984 44.3244 155.69 45.16C155.81 44.16 155.94 43.11 156.1 42H156.28H156.08L155.42 44.77L155.7 44C155.63 44.8936 155.421 45.7708 155.08 46.6C154.91 47.08 154.73 47.6 154.54 48.12C154.45 48.39 154.36 48.66 154.28 48.94L154.17 49.35L154.11 49.56V49.69V49.57V49.36V48.94V48.06L153.22 50.98L153.45 50.74C152.658 54.1826 151.574 57.5514 150.21 60.81L151.02 58.93C150.941 59.6694 150.745 60.3916 150.44 61.07C150.85 60.9 151.44 58.44 151.71 58.71C150.71 61.86 150.15 62.14 148.94 65.22C149.05 65.61 150.38 63.44 149.8 66.1C149.4 65.75 148.53 67.95 148.59 66.1C148.26 68.42 147.72 67.68 147.72 69.61C147.796 69.3167 147.893 69.0292 148.01 68.75C148.47 68.26 148.01 69.75 147.89 70.41C147.166 71.3254 146.601 72.3566 146.22 73.46L145.47 77.06C145.35 77.19 145.29 76.99 145.29 76.99C144.48 80.4 143.09 83.91 142.63 86.45C142.74 86.84 142.74 87.86 143.26 86.03C143.26 87.57 142.26 89.37 141.64 90.81L141.53 89.4C140.37 93.69 138.18 98.57 137.53 102.56L138.1 101.96C137.88 102.88 137.63 103.79 137.35 104.67C137.21 105.11 137.07 105.54 136.94 105.96L136.51 107.24C135.56 110.24 134.7 112.92 134.34 114.69C134.88 113.41 135.11 112.99 135.16 113.05C135.136 113.507 135.045 113.959 134.89 114.39C136.51 114.83 138.89 115.55 139.62 115.68C138.28 115.2 136.71 114.68 135.1 114.28C135.61 112.47 136.1 110.68 136.42 109.28C136.7 108.2 136.92 107.37 137.01 107.17C136.973 107.196 136.942 107.23 136.92 107.27L138.03 102.27L138.55 102.48C137.46 101.85 141.04 96.03 139.71 96.66C140.06 95.27 140.71 94.85 140.93 95.12L141.74 91.2C142.08 90.84 142.37 91.81 142.2 92.25C141.73 93.76 141.44 96.36 140.46 97.66C140.4 99 141.38 96.66 140.69 99.46C139.804 101.511 139.055 103.619 138.45 105.77L137.32 109.57C136.86 111.07 136.41 112.49 135.94 113.82C136.56 114.04 137.13 114.26 137.66 114.49C136.66 113.99 135.58 113.66 137.31 113.87C138.25 114.3 139.26 114.76 140.31 115.24C141.05 115.42 141.74 115.57 142.31 115.65L143.4 115.75C144.063 115.769 144.711 115.948 145.29 116.27C145.58 116.18 144.78 115.85 143.77 115.47L142.1 114.85C141.41 114.6 140.81 114.37 140.46 114.21C141.13 114.126 141.81 114.177 142.46 114.36C142.594 114.391 142.724 114.435 142.85 114.49L143.2 114.63L143.9 114.98C144.78 115.582 145.836 115.874 146.9 115.81C147.9 115.35 141.97 114.54 143.84 114.13L146.36 115.06C145.549 114.441 144.591 114.045 143.58 113.91C142.67 113.71 141.64 113.48 141.58 112.99C142.339 113.064 143.083 113.246 143.79 113.53C144.367 113.712 144.923 113.954 145.45 114.25C146.28 114.31 144.16 113.25 145.62 113.45C146.99 114.25 147.84 113.85 148.89 114.6L148.11 114.83C149.18 115.12 151.82 116.16 153.11 116.39C153.02 117.03 149.85 116.45 148.65 116.04C149.916 116.679 151.261 117.146 152.65 117.43L150.77 116.62C153.67 117.43 153.28 116.34 156.54 117.49C159.32 118.19 157.08 118.24 157.89 118.76C161.05 119.34 158.96 119.05 159.05 118.42C161.51 119.06 162.05 119.52 165.22 120.42C163.32 120.07 162.73 120.24 160.98 119.55L161.39 120.18C163.93 120.65 165.98 120.65 169.02 121.12L169.17 121.58C169.87 121.43 193.39 128.51 192.17 127.34C192.49 127.54 187.47 126.03 183.04 124.71L183.32 124.63C187 125.46 197.38 128.3 194.32 127.46C194.73 126.88 196.22 127.81 196.32 127.17C198.391 127.606 200.435 128.163 202.44 128.84C202.56 131.26 203.27 132.1 204.37 131.92L204.52 130.97C204.62 131.05 205.04 131.08 205.25 130.05C205.56 128.49 205.01 129.51 204.77 129.61H204.69C204.673 129.528 204.673 129.442 204.69 129.36C206.58 127.54 205.9 122.36 208.12 120.45C210.75 110.94 213.9 99.45 216.75 91.01L216.5 91.4C216.6 90.4 217.5 88.17 217.79 88.2L217.4 87.66C218.14 84.39 218.61 89.75 219.6 86.1C218.73 87.86 218.37 86.05 218.88 84.7C218.64 84.98 217.79 84.7 217.61 85.46L216.47 87.25C217.3 87.58 215.93 90.67 215.4 91.74C215.396 91.6968 215.396 91.6532 215.4 91.61C215.52 91.18 215.48 91.24 215.4 91.48C215.29 90.9832 215.287 90.4688 215.39 89.9707C215.494 89.4726 215.702 89.002 216 88.59C216.333 87.1238 216.76 85.6808 217.28 84.27C216.309 84.8945 215.599 85.8505 215.28 86.96ZM176.9 122.96L177.7 123.21L176.7 122.94L176.9 122.96ZM182.48 124.6L181.94 124.44C181.89 124.38 182.3 124.44 183.01 124.6H182.48Z" fill="#424242"/>
<path d="M217.06 84.19C217.595 83.7283 218.002 83.1357 218.24 82.47C218.24 82.36 218.15 82.24 218.07 82.33C218.587 81.1761 218.999 79.9779 219.3 78.75C219.21 78.95 219.12 79.14 219.04 79.34C218.32 80.97 217.65 82.57 217.06 84.19Z" fill="#FC8156"/>
<path d="M217.65 88.1201L217.73 88.23C217.71 88.1601 217.71 88.1301 217.65 88.1201Z" fill="#FC8156"/>
<path d="M143.77 86.19C143.77 86.56 143.58 86.56 143.64 86.88C143.472 87.6776 143.221 88.4552 142.89 89.2C142.51 90.2 142.07 91.2 141.7 92.2C141.13 93.33 140.57 94.33 140 95.4C139.75 95.84 136.8 99.61 136.49 99.86C135.67 100.42 134.29 102.05 133.54 102.55C132.639 103.01 131.69 103.368 130.71 103.62C129.898 103.726 129.075 103.706 128.27 103.56C126.95 103.37 125 101.43 124.38 100.17C124.024 99.6415 123.729 99.0746 123.5 98.48C123.232 97.4725 123.064 96.4407 123 95.4C123 90.13 123.62 89.4 125.13 84.29C125.25 83.85 125.32 83.48 125.44 83.04C125.531 82.61 125.658 82.1884 125.82 81.78C126.01 81.09 126.2 80.4 126.38 79.78C126.7 78.4 128.38 76.01 126.82 75.7C126.38 75.63 126.01 75.7 125.63 75.38C125.25 75.06 124.88 74.94 124.5 74.69C124.312 74.5532 124.178 74.3552 124.12 74.13C124.221 74.0729 124.328 74.0291 124.44 74L127.01 73.44C127.611 73.3183 128.219 73.2348 128.83 73.19C128.969 73.1633 129.099 73.1029 129.209 73.0139C129.319 72.9249 129.405 72.8103 129.46 72.68C129.706 72.1959 129.917 71.6946 130.09 71.18C130.71 69.99 131.15 68.73 131.84 67.6C132.411 66.6356 133.107 65.7512 133.91 64.97C134.044 64.7899 134.192 64.6195 134.35 64.46C134.46 64.3602 134.59 64.2859 134.732 64.2427C134.874 64.1995 135.023 64.1883 135.17 64.21C135.55 64.34 135.92 64.15 136.36 64.15C136.42 64.15 136.42 64.15 136.49 64.09C137.37 63.9 137.68 64.28 137.93 64.97C138.236 65.5914 138.387 66.2776 138.37 66.97C138.376 67.3072 138.419 67.6426 138.5 67.97C138.56 68.2603 138.56 68.5598 138.5 68.85C138.43 69.16 138.37 69.47 138.31 69.85C138.25 70.23 138.06 70.85 137.93 71.36C137.939 71.5289 137.919 71.6981 137.87 71.86C138.063 71.9635 138.283 72.0054 138.5 71.98L140.82 71.8H144.08C144.48 71.835 144.878 71.8951 145.27 71.98C145.196 72.1127 145.113 72.2397 145.02 72.36C144.893 72.4884 144.744 72.5933 144.58 72.67C144.14 72.86 143.64 73.11 143.2 73.3C143.2 73.3159 143.194 73.3312 143.182 73.3425C143.171 73.3537 143.156 73.36 143.14 73.36C142.418 73.5351 141.682 73.6423 140.94 73.68C140.493 73.6793 140.049 73.7433 139.62 73.87C139.356 73.9569 139.085 74.0205 138.81 74.06L137.37 74.24C137.11 74.31 136.99 74.49 136.86 74.75C136.8 74.81 136.8 74.87 136.74 74.93C135.99 77.07 134.98 79.08 134.16 81.15C134.043 81.3736 133.939 81.604 133.85 81.84C133.537 82.4397 133.286 83.0696 133.1 83.72C132.892 84.2936 132.616 84.8407 132.28 85.35C132.03 85.79 132.09 86.35 131.78 86.79C130.858 89.608 130.392 92.5551 130.4 95.52C130.479 96.5041 130.691 97.473 131.03 98.4C131.176 98.6809 131.365 98.9373 131.59 99.16C131.66 99.16 131.72 99.22 131.84 99.22C132.607 99.3006 133.383 99.1942 134.1 98.91C134.48 98.65 136.36 97.15 136.74 96.83C138.138 95.4698 139.379 93.957 140.44 92.32C141.01 91.25 141.32 89.87 141.88 88.86C142.13 88.24 142.76 86.86 143.08 86.17C143.39 86.25 143.83 86 143.77 86.19ZM134.04 76.9C134.67 75.33 134.86 74.08 132.78 75.39C132.09 77.46 131.84 78.91 131.28 80.85C129.9 86.06 131.91 82.17 132.78 79.85C133.134 78.8397 133.555 77.8542 134.04 76.9ZM135.99 69.68C136.05 69.43 136.11 69.12 136.17 68.8C136.24 68.3 136.36 67.8 136.42 67.3C136.465 66.7329 136.445 66.1625 136.36 65.6C136.3 65.35 136.11 65.29 135.99 65.42C135.737 65.5589 135.537 65.7767 135.42 66.04C135.148 66.5575 134.937 67.1044 134.79 67.67C134.73 67.86 134.6 68.05 134.54 68.24C134.48 68.43 134.29 68.74 134.16 69.06C134.04 69.68 133.91 70.37 133.73 71.06C133.47 72.69 135.23 72.76 135.61 71.63C135.71 71 135.86 70.37 135.99 69.7V69.68Z" fill="#FC8156"/>
<path d="M147.71 88.38C148.557 86.2788 149.518 84.2257 150.59 82.23C150.985 81.671 151.343 81.0864 151.66 80.48C152.037 79.9856 152.371 79.4604 152.66 78.91C152.761 78.7181 152.903 78.5507 153.076 78.4194C153.249 78.2882 153.448 78.1962 153.66 78.15C154.1 78.15 154.47 78.09 154.85 78.09C155.6 78.09 156.04 78.66 156.42 79.47V79.7C156.54 80.52 156.73 81.3999 156.86 82.2799C156.94 83.1141 156.96 83.9529 156.92 84.79C156.95 85.3529 156.95 85.917 156.92 86.48C157.23 86.67 157.17 86.92 157.23 86.86C157.29 86.8 157.8 86.92 157.93 86.79C158.06 86.66 158.11 86.61 158.18 86.48C158.459 86.2836 158.711 86.0516 158.93 85.79C159.12 85.48 159.31 85.48 159.56 85.79C159.564 85.8876 159.543 85.9847 159.499 86.0721C159.455 86.1595 159.39 86.2344 159.31 86.29C159.227 86.3838 159.163 86.4924 159.12 86.61C159.092 86.705 159.043 86.7927 158.978 86.867C158.912 86.9413 158.831 87.0003 158.74 87.04L158.55 87.23C158.49 87.3 158.36 87.36 158.36 87.42C158.36 87.48 158.24 87.48 158.18 87.55C158.096 87.6502 157.99 87.7302 157.87 87.7839C157.751 87.8376 157.621 87.8636 157.49 87.86C157.281 87.8913 157.084 87.9775 156.92 88.11C156.852 88.1725 156.763 88.2072 156.67 88.2072C156.577 88.2072 156.488 88.1725 156.42 88.11C155.99 87.9172 155.55 87.7503 155.1 87.61C154.705 87.472 154.35 87.2395 154.066 86.9327C153.782 86.6259 153.577 86.2541 153.47 85.85C153.122 84.6923 153.057 83.468 153.28 82.2799C153.374 81.7607 153.437 81.2365 153.47 80.71C153.53 80.33 153.59 79.95 153.66 79.58C153.768 79.3663 153.79 79.1191 153.72 78.89C153.66 78.89 153.53 78.82 153.53 78.95C153.432 79.0409 153.348 79.1452 153.28 79.26C153.03 79.77 152.72 80.26 152.4 80.83C152.203 81.1782 152.077 81.5624 152.03 81.96C152.09 82.21 151.9 82.4 151.84 82.59C151.256 83.6291 150.771 84.7205 150.39 85.85C150.08 86.73 149.64 87.48 149.27 88.36C148.638 89.6271 148.071 90.9255 147.57 92.25C147.45 92.69 147.19 93.19 147.01 93.7C146.425 94.9894 145.733 96.2271 144.94 97.4C144.94 97.52 144.75 97.59 144.62 97.71C144.342 98.1271 143.926 98.4323 143.444 98.5714C142.963 98.7105 142.448 98.6746 141.99 98.47C141.86 98.59 141.74 98.47 141.61 98.34C140.61 98.09 140.1 97.15 139.85 95.89C139.692 94.8109 139.628 93.7201 139.66 92.63C139.73 91 139.79 89.37 139.91 87.73C140.002 86.589 140.193 85.4581 140.48 84.35C140.627 82.8012 140.987 81.2801 141.55 79.83C141.666 79.4225 141.813 79.0246 141.99 78.64C142.43 77.51 142.8 76.5 143.3 75.5C143.55 74.68 143.81 74.56 144.43 74.68C144.96 74.7137 145.486 74.7974 146 74.93C146.473 75.0104 146.912 75.2296 147.26 75.5599C147.733 76.3293 148.286 77.0467 148.91 77.7C149.194 78.131 149.371 78.6233 149.426 79.1363C149.482 79.6493 149.415 80.1682 149.23 80.65C148.91 81.91 148.79 80.97 148.47 82.29C147.66 84.92 146.15 86.99 145.47 89.38C144.52 92.4 147.41 89.45 147.71 88.38Z" fill="#FC8156"/>
<path d="M182.36 86.56C182.173 87.3514 181.833 88.0987 181.36 88.76C181.18 88.82 181.11 89.01 180.99 89.07C180.778 89.3576 180.547 89.6315 180.3 89.89C180.138 90.0021 180.007 90.1535 179.92 90.33C179.751 90.6493 179.489 90.9105 179.17 91.08C179.04 91.1283 178.928 91.2156 178.85 91.3301C178.454 91.7473 178.036 92.1445 177.6 92.5201C177.256 92.8175 176.849 93.033 176.41 93.1501C175.88 93.221 175.355 93.3279 174.84 93.4701C174.364 93.6044 173.879 93.7079 173.39 93.7801H172.83C172.072 93.6189 171.351 93.3207 170.7 92.9001C170.599 92.8273 170.492 92.7637 170.38 92.7101C169.798 92.4908 169.281 92.1258 168.88 91.6501C168.41 91.8683 167.967 92.1401 167.56 92.4601C167.317 92.5851 167.086 92.7324 166.87 92.9001C166.822 92.9075 166.777 92.9283 166.74 92.9601C166.37 93.4701 165.86 93.5301 165.36 93.7201C164.941 93.8607 164.497 93.9164 164.056 93.8838C163.615 93.8511 163.184 93.7309 162.79 93.5301C162.491 93.355 162.176 93.2077 161.85 93.0901C161.006 92.7781 160.271 92.2253 159.738 91.5C159.205 90.7748 158.896 89.909 158.85 89.01C158.725 88.041 158.9 87.057 159.35 86.19C159.757 85.3574 160.261 84.5754 160.85 83.86C160.85 83.8 160.92 83.74 160.98 83.68C161.821 82.4352 162.732 81.2398 163.71 80.0999C164.405 79.3381 165.206 78.6813 166.09 78.1499C166.271 78.0754 166.464 78.0347 166.66 78.0299C167.052 77.9537 167.45 77.9102 167.85 77.8999H168.04C168.471 78.0416 168.912 78.1486 169.36 78.2199C169.476 78.2881 169.606 78.3291 169.74 78.3399C170.05 78.4099 170.3 78.4099 170.43 78.6599C170.461 78.6938 170.504 78.7151 170.55 78.7199C170.86 78.7199 171.12 79.0299 171.43 79.0299C171.545 79.0353 171.655 79.0814 171.74 79.1599C172.147 79.4858 172.507 79.866 172.81 80.2899C172.87 80.4799 172.93 80.5999 173 80.7899C173.083 81.0317 173.07 81.2959 172.964 81.5283C172.858 81.7607 172.667 81.9438 172.43 82.0399C171.874 82.3187 171.348 82.6538 170.86 83.0399V83.0999C170.108 83.7505 169.415 84.4666 168.79 85.24C168.555 85.5236 168.305 85.794 168.04 86.05C167.48 86.68 167.04 87.37 166.53 88.05C166.35 88.36 166.09 88.68 165.91 88.93C165.803 89.0358 165.718 89.1615 165.66 89.3C165.296 89.9479 165.04 90.6503 164.9 91.38C164.84 91.44 164.9 91.5 164.9 91.63C164.993 91.5812 165.078 91.5169 165.15 91.44C165.796 90.7847 166.487 90.1764 167.22 89.62C167.618 89.3299 167.957 88.9668 168.22 88.55C168.364 88.3444 168.532 88.1564 168.72 87.99C169.106 87.5539 169.464 87.0929 169.79 86.61C170.22 85.92 170.66 85.23 171.1 84.47C171.348 84.4105 171.608 84.4201 171.851 84.4976C172.095 84.5752 172.312 84.7178 172.48 84.91L172.86 85.29C173.226 85.8263 173.421 86.4607 173.42 87.11C173.407 87.2218 173.365 87.3284 173.3 87.42C173.05 87.99 172.73 88.61 172.42 89.18C172.235 89.5939 172.17 90.0509 172.23 90.5C172.368 91.0408 172.559 91.5666 172.8 92.07C172.859 92.165 172.942 92.2433 173.04 92.2975C173.138 92.3517 173.248 92.3801 173.36 92.3801C173.812 92.334 174.255 92.2298 174.68 92.07C175.09 91.8858 175.487 91.6753 175.87 91.44C176.31 91.19 176.75 90.9401 177.25 90.6201C177.57 90.31 177.94 90.06 178.25 89.74C179.06 88.93 180.32 86.86 181.13 86.04C181.2 85.98 181.26 85.98 181.32 85.92C181.728 86.0131 182.093 86.238 182.36 86.56Z" fill="#FC8156"/>
<path d="M201.81 87.19C201.638 87.6767 201.534 88.1849 201.5 88.7C201.43 88.88 201.06 89.07 200.93 89.2C200.81 89.58 198.74 90.08 198.55 90.08C197.92 90.45 196.29 89.32 196.1 89.26C196.1 89.26 195.22 88.63 195.16 88.57C195.1 88.51 194.09 87.57 193.97 87.44C193.4 86.37 193.09 86.06 192.52 85.06C192.131 85.6244 191.815 86.236 191.58 86.88C191.08 87.82 190.7 88.82 190.08 89.83C189.89 89.95 189.82 90.14 189.7 90.27C189.483 90.8933 189.116 91.4533 188.63 91.9C188.264 92.4011 187.968 92.9494 187.75 93.53C187.75 93.59 187.69 93.78 187.69 93.84C187.689 94.248 187.556 94.6446 187.31 94.97C186.927 95.4041 186.61 95.8928 186.37 96.42C186.075 97.2895 185.502 98.0378 184.74 98.55C184.655 98.6696 184.543 98.7668 184.412 98.833C184.281 98.8992 184.137 98.9325 183.99 98.93C183.758 98.9386 183.526 98.9151 183.3 98.86C182.921 98.8804 182.544 98.9238 182.17 98.99C181.982 99.092 181.775 99.1535 181.562 99.1706C181.35 99.1877 181.135 99.1601 180.934 99.0894C180.732 99.0188 180.548 98.9067 180.392 98.7604C180.236 98.6141 180.113 98.4369 180.03 98.24C179.275 97.481 178.459 96.7853 177.59 96.16C177.005 95.474 176.655 94.6191 176.59 93.72C176.619 93.2559 176.683 92.7947 176.78 92.34C177.03 91.4 177.16 90.27 177.41 89.26C177.6 88.51 177.72 87.75 177.91 86.94C178.35 85.18 178.66 83.49 179.1 81.86C179.395 80.9134 179.625 79.9478 179.79 78.97C179.82 78.377 179.904 77.7879 180.04 77.21C180.11 76.59 180.04 76.84 180.11 76.33C180.144 76.1536 180.208 75.9844 180.3 75.83C180.403 75.7768 180.52 75.7606 180.633 75.7843C180.746 75.808 180.848 75.8701 180.92 75.96C181.011 76.096 181.119 76.2203 181.24 76.33C181.49 76.65 181.36 76.71 181.8 76.71C181.877 76.724 181.95 76.7533 182.016 76.7962C182.081 76.8392 182.137 76.8949 182.18 76.96C182.513 77.4559 182.937 77.8836 183.43 78.22C183.68 78.72 184.12 79.03 184.19 79.66C183.978 79.6698 183.766 79.6496 183.56 79.6C183.471 79.7608 183.419 79.9396 183.409 80.1232C183.398 80.3067 183.43 80.4902 183.5 80.66C183.755 81.3235 183.88 82.0295 183.87 82.74C183.87 83.05 183.94 83.36 183.94 83.55C184.146 84.3051 184.231 85.0883 184.19 85.87V86.37C184.25 87 184.25 87.63 184.25 88.26C184.209 88.7406 184.229 89.2245 184.31 89.7C184.339 90.0059 184.273 90.3133 184.12 90.58L183.94 90.52C183.87 90.2 183.87 89.95 183.81 89.7C183.81 89.64 183.68 89.58 183.62 89.51C183.56 89.44 183.5 89.39 183.43 89.51C183.36 89.63 183.31 89.64 183.31 89.7C183.31 90.39 183.31 91.02 183.37 91.65C183.455 91.9763 183.475 92.316 183.43 92.65C183.398 92.7463 183.393 92.8496 183.416 92.9484C183.439 93.0472 183.489 93.1378 183.56 93.21C183.62 93.21 183.81 93.28 183.87 93.21C183.93 93.14 184 93.09 183.94 92.96C183.915 92.5551 183.977 92.1495 184.12 91.77L184.25 91.65C184.25 91.71 184.31 91.77 184.31 91.9C184.413 92.2228 184.457 92.5616 184.44 92.9C184.471 93.0293 184.511 93.1563 184.56 93.28C184.559 93.3499 184.584 93.4176 184.63 93.47C184.31 93.9 184.69 94.03 184.75 94.34C184.87 94.275 184.978 94.1905 185.07 94.09C186.052 92.9882 186.951 91.815 187.76 90.58L188.7 89.26C189.132 88.691 189.47 88.0562 189.7 87.38C189.842 86.8919 190.054 86.427 190.33 86C191.02 84.37 191.14 85.43 191.58 84C191.51 83.3632 191.383 82.734 191.2 82.12C191.2 80.93 190.89 80.99 191.64 80.8C192.178 80.8554 192.706 80.9832 193.21 81.18C193.59 81.36 193.28 81.43 193.72 81.43C193.934 81.402 194.152 81.4441 194.34 81.55C194.404 81.5801 194.46 81.6246 194.503 81.6802C194.547 81.7358 194.576 81.8008 194.59 81.87C194.59 81.99 194.66 82.05 194.72 82.24C194.902 83.8296 195.348 85.3776 196.04 86.82C196.6 87.26 197.29 88.96 198.55 88.71C199.063 88.4921 199.587 88.3018 200.12 88.14C200.68 88.02 201.12 87.33 201.68 87.01C201.706 86.9875 201.736 86.9706 201.769 86.9603C201.802 86.95 201.836 86.9465 201.87 86.95C201.94 87.06 201.87 87.13 201.81 87.19ZM183.36 86.75L183.42 86.88C183.42 86.94 183.49 86.88 183.49 86.88C183.521 86.731 183.561 86.5841 183.61 86.44V86.12C183.55 86.06 183.49 86 183.42 86.06C183.35 86.12 183.36 86.25 183.42 86.25C183.488 86.3082 183.552 86.3718 183.61 86.44C183.565 86.5692 183.477 86.6788 183.36 86.75ZM183.49 87.32C183.49 87.3015 183.483 87.2837 183.47 87.2705C183.456 87.2574 183.439 87.25 183.42 87.25C183.36 87.25 183.36 87.32 183.36 87.32C183.36 87.32 183.42 87.44 183.42 87.5C183.465 87.4507 183.49 87.3866 183.49 87.32ZM183.55 87.88V87.94H183.61C183.61 87.88 183.61 87.88 183.55 87.88ZM183.93 94.09C183.86 94.22 183.8 94.22 183.8 94.28C183.8 94.2959 183.806 94.3112 183.818 94.3225C183.829 94.3337 183.844 94.34 183.86 94.34C183.897 94.3083 183.942 94.2875 183.99 94.28C183.93 94.22 183.93 94.22 183.93 94.09ZM183.99 93.53C184.017 93.5223 184.041 93.5059 184.058 93.4833C184.075 93.4608 184.084 93.4333 184.084 93.405C184.084 93.3768 184.075 93.3493 184.058 93.3267C184.041 93.3042 184.017 93.2878 183.99 93.28H183.93C183.93 93.34 183.86 93.4 183.86 93.53C183.86 93.66 183.93 93.53 183.93 93.65L183.99 93.53Z" fill="#FC8156"/>
<path d="M204.07 86.37C204.059 86.4402 204.03 86.5063 203.986 86.5622C203.943 86.6182 203.885 86.6622 203.82 86.69C203.764 86.7202 203.716 86.7648 203.683 86.8193C203.65 86.8738 203.631 86.9361 203.63 87C203.57 87.25 203.5 87.32 203.32 87.38C203.14 87.44 203.19 87.5 203.13 87.88C203.25 87.88 203.32 87.88 203.38 87.94V88.01H202.94C202.986 87.8441 203.007 87.6721 203 87.5H202.88C202.81 87.94 202.75 88.38 202.69 88.82C202.81 88.88 202.88 88.95 202.94 88.95C202.99 89.3647 203.01 89.7825 203 90.2C203.012 90.5891 203.096 90.9725 203.25 91.33C203.44 91.58 203.94 92.96 204.13 93.21C205.01 94.09 206.13 95.21 207.13 95.29C207.953 95.2418 208.772 95.1349 209.58 94.97C211.155 94.4733 212.624 93.6865 213.91 92.65C214.97 91.83 215.98 90.89 217.05 90.01L217.23 89.83C217.61 89.39 217.99 89.01 218.36 88.57C219.055 87.8954 219.688 87.1591 220.25 86.37C220.396 86.0343 220.664 85.7663 221 85.62C220.899 86.1619 220.731 86.6892 220.5 87.19C220.432 87.3784 220.323 87.5492 220.18 87.69C219.814 88.0899 219.498 88.5332 219.24 89.01C219.05 89.26 218.8 89.51 218.61 89.76C218.55 89.83 218.49 89.95 218.36 90.14C218.55 90.08 218.68 90.01 218.87 89.95C218.8 90.33 218.49 90.39 218.43 90.7C218.49 90.77 218.49 90.83 218.61 90.89C218.443 91.1731 218.234 91.4293 217.99 91.65C217.602 91.97 217.244 92.3248 216.92 92.71C216.363 93.3058 215.754 93.8512 215.1 94.34C214.827 94.5944 214.532 94.8252 214.22 95.03C213.97 95.22 213.72 95.35 213.47 95.54C213.079 95.7194 212.702 95.9266 212.34 96.16C211.726 96.5478 211.05 96.8253 210.34 96.98L209.78 97.17C209.046 97.402 208.288 97.5496 207.52 97.61C205.692 97.5319 203.879 97.2365 202.12 96.73C199.92 95.85 199.48 94.78 198.48 93.9C198.082 93.5437 197.78 93.0933 197.6 92.59C197.328 91.7357 197.179 90.8466 197.16 89.95C197.185 88.0157 197.636 86.1106 198.48 84.37C198.67 83.99 198.67 83.99 198.61 83.43C198.46 83.4905 198.326 83.584 198.217 83.7034C198.108 83.8228 198.027 83.9652 197.98 84.12C197.778 84.6842 197.527 85.2296 197.23 85.75C197.271 85.2641 197.418 84.7931 197.66 84.37C198.149 83.2525 198.738 82.1814 199.42 81.17C200.087 80.1259 200.865 79.1569 201.74 78.28C202.574 77.3644 203.525 76.5641 204.57 75.9C204.786 75.8056 204.996 75.6988 205.2 75.58C205.51 75.46 205.82 75.39 206.01 75.71C206.2 76.03 206.45 75.83 206.58 75.96C206.71 76.09 206.83 76.33 206.95 76.46C207.58 76.77 209.95 77.4 210.53 77.78C210.728 77.9495 210.879 78.1662 210.97 78.41C211.212 78.9835 211.55 79.5111 211.97 79.97C212.093 80.1401 212.178 80.3344 212.22 80.54C212.38 81.2849 212.38 82.0552 212.22 82.8C212.069 83.6701 211.75 84.5024 211.28 85.25C211.013 85.6659 210.782 86.1042 210.59 86.56C210.437 87.0062 210.225 87.4299 209.96 87.82C209.846 88.0456 209.687 88.2454 209.492 88.4071C209.298 88.5687 209.073 88.6889 208.83 88.76C208.462 88.9442 208.047 89.0105 207.64 88.95C207.45 88.88 207.27 88.95 207.14 88.7C207.142 88.6913 207.141 88.6825 207.139 88.674C207.136 88.6655 207.132 88.6577 207.127 88.651C207.121 88.6443 207.114 88.6389 207.106 88.6353C207.098 88.6317 207.089 88.6299 207.08 88.63C206.58 88.7 206.26 88.13 205.89 87.94C205.818 87.8515 205.772 87.7438 205.76 87.63C205.89 87.38 205.76 87.25 205.7 87.06C205.454 86.526 205.181 86.0052 204.88 85.5C204.82 85.31 204.63 85.25 204.44 85.43C204.25 85.61 204.07 86 204.07 86.37ZM198.07 92.02C198.13 92.21 198.19 92.34 198.25 92.52C198.31 92.7 198.44 92.84 198.32 93.09C198.25 93.03 198.19 93.03 198.19 92.96C197.919 92.2347 197.757 91.473 197.71 90.7C197.64 90.64 197.71 90.58 197.71 90.52C197.67 89.5897 197.754 88.6581 197.96 87.75C198.03 87.5709 198.07 87.3819 198.08 87.19V86.75C197.929 87.0309 197.805 87.3256 197.71 87.63C197.64 87.94 197.58 88.19 197.52 88.51C197.2 90.0083 197.376 91.5701 198.02 92.96C198.167 93.2038 198.334 93.4347 198.52 93.65C198.643 93.7697 198.794 93.8558 198.96 93.9C198.96 93.97 199.03 93.9 199.15 93.9C198.958 93.6258 198.79 93.3345 198.65 93.03C198.46 92.65 198.46 92.27 198.27 91.96C198.241 91.9583 198.211 91.9627 198.184 91.973C198.156 91.9833 198.131 91.9994 198.11 92.02H198.07ZM198.07 88.02C197.809 88.9578 197.765 89.9426 197.94 90.9C197.94 90.97 198 90.97 198.07 91.03C198.13 90.34 198.19 89.71 198.25 89.08C198.364 88.6677 198.343 88.2295 198.19 87.83C198.17 87.88 198.11 87.94 198.11 88.01L198.07 88.02ZM205.97 83C205.811 83.222 205.664 83.4523 205.53 83.69C205.28 84.13 205.35 84.44 205.66 84.63C205.875 84.7365 206.066 84.8863 206.22 85.07C206.6 85.51 207.1 85.44 207.6 85.38C208.048 85.1852 208.405 84.8279 208.6 84.38C209.04 83.31 209.29 83.12 209.67 82.05C210.67 79.67 208.67 80.23 207.67 80.99C207.04 81.5893 206.483 82.2605 206.01 82.99L205.97 83Z" fill="#FC8156"/>
<path d="M237.2 89.2C236.89 89.83 235.82 91.2 235.82 91.9C235.708 92.0201 235.58 92.1244 235.44 92.21C235.23 92.4279 235.06 92.682 234.94 92.96C234.813 93.202 234.666 93.4328 234.5 93.65C233.776 95.0878 232.8 96.3848 231.62 97.48C231.24 97.8 227.91 101 227.62 101.31C225.8 102.82 223.36 102.13 221.54 102.19C221.086 102.219 220.632 102.133 220.22 101.94C219.411 101.613 218.667 101.145 218.02 100.56C217.46 99.18 216.02 98.24 215.89 96.29C215.83 95.79 215.57 95.47 215.51 94.97C215.57 92.97 215.89 90.97 216.14 88.88C216.52 87.44 216.83 85.88 217.08 84.43C217.456 82.5162 218.131 80.6736 219.08 78.97C219.71 77.34 220.27 77.21 220.9 75.58C221.329 74.715 221.81 73.8768 222.34 73.07C222.795 72.1125 223.319 71.19 223.91 70.31C225.007 68.3744 226.312 66.5637 227.8 64.91C228.74 63.97 229.8 62.97 230.69 62.15C231.192 61.6889 231.762 61.3078 232.38 61.02C232.558 60.9119 232.75 60.8278 232.95 60.77C233.395 60.6696 233.859 60.6896 234.294 60.8278C234.729 60.9661 235.119 61.2178 235.425 61.5568C235.73 61.8959 235.94 62.3102 236.032 62.7572C236.125 63.2042 236.096 63.6676 235.95 64.1C235.82 64.85 235.76 65.6 235.57 66.29C235.467 66.8907 235.253 67.467 234.94 67.99C234.51 69.0697 233.964 70.0992 233.31 71.06C232.87 71.88 232.37 72.69 231.93 73.51C231.18 74.64 230.55 75.83 229.8 76.9C228.48 78.66 227.35 80.54 226.16 82.3C224.16 85.62 224.4 86.19 223.71 89.51C223.552 90.6327 223.489 91.7667 223.52 92.9C223.58 93.28 223.77 95.72 223.84 95.98C223.991 96.6796 224.244 97.3534 224.59 97.98C224.71 98.24 225.59 98.42 225.91 98.55C226.35 98.86 229.67 96.55 230.11 96.29C231.109 95.613 232.017 94.8097 232.81 93.9C233.657 92.9627 234.395 91.9328 235.01 90.83C236.13 89.32 236.51 88.07 237.7 86.44C238.58 86.31 238.08 87.63 237.2 89.2ZM227.2 77.9C228.704 75.5909 230.086 73.2042 231.34 70.75C232.03 69.43 232.6 68.11 233.29 66.8C233.584 65.8774 233.795 64.9303 233.92 63.97C234.04 63.66 234.04 63.47 233.73 63.6C233.479 63.6481 233.243 63.7543 233.04 63.91C232.151 64.2733 231.401 64.9109 230.9 65.73C230.46 66.23 230.15 66.8 229.65 67.3C229.126 67.9439 228.741 68.6897 228.52 69.49C228.21 70.12 227.89 70.87 227.58 71.49C227.096 72.8568 226.528 74.1926 225.88 75.49C225.63 76.11 225.44 76.8 225.19 77.43C224.44 79.56 224.75 78.5 224.06 80.63C223.88 81.13 224 82.63 224.82 81.7C225.71 80.29 226.35 79.35 227.16 77.9H227.2Z" fill="#FC8156"/>
<defs>
<filter id="filter0_d_40_1422" x="0" y="0" width="361" height="208" filterUnits="userSpaceOnUse" color-interpolation-filters="sRGB">
<feFlood flood-opacity="0" result="BackgroundImageFix"/>
<feColorMatrix in="SourceAlpha" type="matrix" values="0 0 0 0 0 0 0 0 0 0 0 0 0 0 0 0 0 0 127 0" result="hardAlpha"/>
<feOffset dy="20"/>
<feGaussianBlur stdDeviation="25"/>
<feComposite in2="hardAlpha" operator="out"/>
<feColorMatrix type="matrix" values="0 0 0 0 0.192157 0 0 0 0 0.192157 0 0 0 0 0.192157 0 0 0 0.05 0"/>
<feBlend mode="normal" in2="BackgroundImageFix" result="effect1_dropShadow_40_1422"/>
<feBlend mode="normal" in="SourceGraphic" in2="effect1_dropShadow_40_1422" result="shape"/>
</filter>
</defs>
</svg>
