<svg width="361" height="208" viewBox="0 0 361 208" fill="none" xmlns="http://www.w3.org/2000/svg">
<g filter="url(#filter0_d_40_1490)">
<rect x="50" y="30" width="261" height="108" rx="10" fill="white"/>
</g>
<path d="M157.086 67.1747C126.837 66.3603 104.034 70.8103 103.016 78.2852C102.493 82.1245 116.105 88.6977 124.365 90.1811C117.006 91.6353 107.147 92.4206 94.8144 92.3915L94 93.0023C127.186 94.7474 150.193 91.8971 151.182 83.8696C151.821 78.6633 134.312 72.6718 134.312 72.6718L133.585 72.8463C133.585 72.8463 140.216 75.9875 140.216 80.0885C140.216 84.4513 135.272 87.8252 125.587 89.9193C119.13 87.5925 115.349 84.7421 115.407 81.6591C115.523 74.475 130.415 68.8616 156.65 68.1054L157.086 67.1747Z" fill="black"/>
<path d="M164.008 88.1449C164.91 88.1449 165.87 87.4178 166.16 86.5161L166.742 84.7419H172.792L170.145 92.8276H151.24L159.674 67.0581H178.58L176.34 73.8931H170.291L170.378 73.6314C170.669 72.7297 170.174 72.0026 169.302 72.0026H166.509H166.48C165.579 72.0026 164.648 72.7588 164.357 73.6314L160.14 86.5452C159.849 87.3887 160.343 88.174 161.245 88.174H164.008V88.1449Z" fill="black"/>
<path d="M179.132 67.1165H185.909L187.334 75.4929L193.471 67.1165H200.539L188.643 83.2877L185.618 92.8567H179.016L181.896 83.2877L179.132 67.1165Z" fill="black"/>
<path d="M235.267 87.9704H225.174C225.174 87.9704 223.197 87.8832 223.778 86.0508L225 82.3279H235.82L237.39 77.5288H226.541C226.541 77.5288 227.181 75.6092 227.85 73.5733C228.49 71.5955 230.439 71.7991 230.439 71.7991H239.252L240.822 67H223.226L214.791 92.7695H233.696L235.267 87.9704ZM248.181 84.8583C248.006 84.8583 247.919 85.0619 247.715 85.3528L242.684 92.7986H234.802L243.702 79.8266L242.742 67.0291H249.664L250.159 74.0095C250.159 74.1259 250.159 74.3295 250.246 74.3295C250.304 74.3295 250.333 74.2131 250.449 74.0968L255.423 67.0291H263.421L254.638 78.9831L255.888 92.7986H249.053L248.326 85.4109C248.326 85.0328 248.297 84.8583 248.181 84.8583ZM206.094 87.9414C206.967 87.9414 208.363 87.3015 208.77 86.3708L209.236 85.0037C209.788 83.2877 210.428 82.0661 207.927 82.0661H203.39L201.441 87.9704L206.094 87.9414ZM215.373 67.0291C218.805 67.0291 219.939 69.4432 219.037 72.2063L217.583 76.4236C216.682 78.8668 213.977 79.4485 213.977 79.4485C217.234 80.0302 216.013 83.055 216.013 83.055C215.664 84.3057 215.46 85.0037 215.053 86.2253C214.5 87.9414 214.064 89.3374 213.54 90.5881C213.046 91.7806 211.388 92.7695 209.178 92.7695H192.977L201.412 67L215.373 67.0291ZM210.05 71.8281H206.734L204.902 77.4416H208.101C210.515 77.5288 211.563 76.5109 212.115 74.7948L212.61 73.3987C212.9 72.5262 212.58 71.8281 211.912 71.8281H210.05Z" fill="black"/>
<path d="M266.359 68.9487C266.679 68.9487 266.941 68.9196 267.057 68.5706C267.144 68.2797 266.912 68.2215 266.65 68.2215H266.155L265.923 68.9778H266.359V68.9487ZM265.486 70.3157H265.137L265.923 67.9016H266.824C267.377 67.9016 267.61 68.1052 267.435 68.5706C267.29 69.0069 266.97 69.1814 266.592 69.2395L266.941 70.2866H266.534L266.243 69.2395H265.835L265.486 70.3157ZM265.748 70.8392C266.679 70.8392 267.668 70.1121 268.017 69.0941C268.337 68.1052 267.842 67.3781 266.912 67.3781C265.952 67.3781 264.963 68.1343 264.643 69.0941C264.294 70.1121 264.817 70.8392 265.748 70.8392ZM264.207 69.0941C264.585 67.9016 265.865 67.0291 266.999 67.0291C268.133 67.0291 268.802 67.9016 268.424 69.0941C268.017 70.3157 266.766 71.1882 265.632 71.1882C264.498 71.1882 263.829 70.3157 264.207 69.0941Z" fill="black"/>
<defs>
<filter id="filter0_d_40_1490" x="0" y="0" width="361" height="208" filterUnits="userSpaceOnUse" color-interpolation-filters="sRGB">
<feFlood flood-opacity="0" result="BackgroundImageFix"/>
<feColorMatrix in="SourceAlpha" type="matrix" values="0 0 0 0 0 0 0 0 0 0 0 0 0 0 0 0 0 0 127 0" result="hardAlpha"/>
<feOffset dy="20"/>
<feGaussianBlur stdDeviation="25"/>
<feComposite in2="hardAlpha" operator="out"/>
<feColorMatrix type="matrix" values="0 0 0 0 0.192157 0 0 0 0 0.192157 0 0 0 0 0.192157 0 0 0 0.05 0"/>
<feBlend mode="normal" in2="BackgroundImageFix" result="effect1_dropShadow_40_1490"/>
<feBlend mode="normal" in="SourceGraphic" in2="effect1_dropShadow_40_1490" result="shape"/>
</filter>
</defs>
</svg>
