<svg width="361" height="208" viewBox="0 0 361 208" fill="none" xmlns="http://www.w3.org/2000/svg">
<g filter="url(#filter0_d_40_1406)">
<rect x="50" y="30" width="261" height="108" rx="10" fill="white"/>
</g>
<path d="M225.41 81.8518C225.41 81.6719 225.3 81.4919 225.24 81.3219L225 80.8019C224.85 80.2819 224.59 79.7219 224.35 79.1319C224.057 78.5713 223.722 78.0331 223.35 77.5219C222.862 76.8001 222.237 76.1816 221.51 75.7019C220.697 75.2191 219.836 74.8236 218.94 74.5219C218.109 74.2512 217.26 74.0374 216.4 73.8819C214.816 73.6115 213.215 73.4577 211.61 73.4219C210.07 73.4219 208.61 73.4219 207.26 73.4219C205.91 73.4219 204.54 73.4219 203.26 73.5519C198.17 73.7619 193.13 73.7819 188.26 73.9019C185.66 73.9552 183.12 74.0586 180.64 74.2119L180.21 73.9119C179.6 73.9724 179.004 74.1241 178.44 74.3619L177.25 74.4619C176.241 74.2847 175.203 74.3885 174.25 74.7619C173.34 74.6119 173.93 74.5119 173.4 74.3719C172.02 74.4719 170.52 74.5019 168.99 74.4819C168.158 74.3067 167.309 74.2328 166.46 74.2619V74.3819C162.515 74.2293 158.597 73.6663 154.77 72.7019C152.25 73.6319 149.08 72.9019 146.17 73.3119C144.45 73.4619 142.56 73.7319 140.77 73.9519C139.87 74.0619 139.03 74.1419 138.11 74.2419C137.19 74.3419 136.36 74.5219 135.57 74.7019C134.63 74.9397 133.746 75.3611 132.97 75.9419C132.245 76.4853 131.61 77.1401 131.09 77.8819C129.702 80.0163 128.87 82.4639 128.67 85.0018C128.67 85.1118 128.62 85.2218 128.6 85.3318C128.58 85.4418 128.6 85.6818 128.6 85.8618C128.593 87.1715 128.82 88.4719 129.27 89.7018C129.501 90.2867 129.84 90.8227 130.27 91.2818L130.67 91.7018C131.67 93.2018 132.96 94.8218 132.96 95.5118C135.7 97.6217 139.46 97.6117 142.96 97.5117L158.74 97.0618C159.216 97.1013 159.686 97.1987 160.14 97.3518L160.23 97.0218L166.4 96.8518C170.72 97.2918 176.79 97.1018 181.95 97.1118C183.06 97.1118 183.78 96.4818 184.95 96.4718L186.53 96.8018C187.645 96.7392 188.764 96.7392 189.88 96.8018C192.626 97.2115 195.407 97.3455 198.18 97.2018C201.32 97.1218 204.53 97.0318 207.06 97.0918C208.816 97.117 210.571 96.973 212.3 96.6618C214.246 96.3137 216.152 95.771 217.99 95.0418C218.455 94.8892 218.906 94.6986 219.34 94.4718C219.57 94.3618 219.81 94.1918 220.06 94.0418C220.31 93.8911 220.551 93.7241 220.78 93.5418C221.788 92.7707 222.666 91.8421 223.38 90.7918C224.16 89.6748 224.77 88.4481 225.19 87.1518C225.62 85.8053 225.813 84.3944 225.76 82.9818C225.675 82.5961 225.557 82.2182 225.41 81.8518Z" fill="#424242"/>
<path d="M180.8 98.4619H180.08C180.37 98.4619 180.61 98.4719 180.8 98.4619Z" fill="#424242"/>
<path d="M180.46 97.8218C180.46 98.0018 182.46 98.4518 180.8 98.4618C181.72 98.4618 182.55 98.4618 181.8 98.8118C183.59 98.8118 181.93 98.3318 183.11 98.0718C182.1 98.3718 181.33 97.9118 180.46 97.8218Z" fill="#424242"/>
<path d="M187.27 98.1519C186.38 98.1519 185.58 97.792 184.83 98.1519C185.637 98.2928 186.463 98.2928 187.27 98.1519Z" fill="#424242"/>
<path d="M185.18 99.3418L185.66 99.2318L184.42 98.8718L185.18 99.3418Z" fill="#424242"/>
<path d="M190.14 98.8518C190.48 98.9118 190.74 98.9918 190.8 99.1118L187.65 99.2518L190.49 99.4518C192.21 99.1218 191.37 98.9818 190.14 98.8518Z" fill="#424242"/>
<path d="M186.49 98.6018C187.356 98.7101 188.228 98.7569 189.1 98.7418C188.525 98.7415 187.957 98.6224 187.43 98.3918L186.49 98.6018Z" fill="#424242"/>
<path d="M190.14 98.8518C189.81 98.7925 189.476 98.7558 189.14 98.7419L190.14 98.8518Z" fill="#424242"/>
<path d="M193.12 99.6018H193.57L193.69 99.1118C192.77 99.2218 193.14 99.5118 193.12 99.6018Z" fill="#424242"/>
<path d="M196.59 99.9319C197.9 100.012 196.96 100.222 196.91 100.412C197.961 100.533 199.024 100.486 200.06 100.272C198.92 100.026 197.756 99.912 196.59 99.9319Z" fill="#424242"/>
<path d="M200.78 100.932H198.1C198.67 101.492 199.67 100.992 200.78 100.932Z" fill="#424242"/>
<path d="M203.67 100.212L205.16 100.622C205.4 100.562 205.16 100.422 205.7 100.312C205.029 100.207 204.348 100.174 203.67 100.212Z" fill="#424242"/>
<path d="M131.61 69.1519C131.88 68.8319 132.15 68.4518 132.42 68.0718C133.097 67.0872 134.105 66.3777 135.26 66.0718C135.63 66.0041 136.013 66.0792 136.33 66.2819C136.803 66.5499 137.361 66.6285 137.89 66.5018C138.53 66.3918 138.96 66.5018 139.13 66.8718C139.09 67.103 139.069 67.3372 139.07 67.5718C139.115 67.7763 139.114 67.9881 139.067 68.1921C139.02 68.3961 138.929 68.5872 138.8 68.7518C138.7 68.7518 138.8 68.9118 138.8 69.0218C138.75 70.2519 139.07 69.1818 138.53 70.4118C138.26 71.0018 138.21 71.5418 137.99 72.0218C135.42 78.5218 138.1 75.3018 140.25 72.4518C140.485 71.8608 140.851 71.3309 141.32 70.9018C142.07 69.8218 142.99 68.9018 143.74 67.7318C144.949 66.1255 146.396 64.7126 148.03 63.5418C148.62 63.1718 149.16 62.5419 149.69 62.6919C150.223 62.7336 150.729 62.9398 151.14 63.2819C151.518 63.5877 151.828 63.9692 152.05 64.4019C152.16 64.4619 152.21 64.5119 152.27 64.5119C153.02 64.6719 153.02 65.4218 153.02 66.1218C152.953 66.2596 152.899 66.4037 152.86 66.5518C152.125 67.9556 151.583 69.4526 151.25 71.0018C151.14 71.7518 151.03 72.5618 150.98 73.2618C150.93 73.9618 150.82 74.7618 150.66 75.5618C150.649 76.3173 150.404 77.0509 149.96 77.6618C149.96 77.6618 149.96 77.7618 149.96 77.8718C150.34 78.1918 149.8 78.5718 149.64 78.9418C149.64 79.1118 149.48 79.3218 149.64 79.4818C149.73 79.7948 149.743 80.125 149.677 80.444C149.611 80.7629 149.468 81.0608 149.26 81.3118C149.251 81.4183 149.251 81.5254 149.26 81.6318C149.1 82.1118 148.99 82.5418 148.88 82.9718C148.93 82.9718 148.93 82.9718 149.15 82.8118C148.99 83.5618 148.08 84.2018 148.34 84.9018C148.72 84.9018 148.67 85.2818 148.56 85.7618C148.364 86.8575 148.077 87.9346 147.7 88.9818C147.7 88.9818 147.7 89.0919 147.7 89.1419C147.97 89.6819 147.33 90.4319 147.49 91.1419C147.49 91.5619 147.22 92.1419 147.49 92.6419C147.423 93.0561 147.215 93.4344 146.9 93.7119C146.79 93.9319 146.52 94.0919 146.31 94.3018C145.99 95.0518 145.93 95.1119 145.24 95.1618C145.021 95.1811 144.803 95.2178 144.59 95.2719C144.22 95.2719 143.95 95.2719 143.79 95.0518C143.676 94.9328 143.524 94.8583 143.36 94.8419C142.66 94.6819 142.44 94.0319 142.77 93.3419C143.219 91.5381 143.553 89.7078 143.77 87.8619C143.917 87.405 144.04 86.9411 144.14 86.4718C144.36 85.8218 144.52 85.0719 144.84 84.3219C144.84 84.5419 144.73 84.8019 144.73 85.0719C144.89 84.9619 144.89 84.9619 144.95 84.9619C145.087 84.5775 145.194 84.183 145.27 83.7819C145.57 82.845 145.752 81.874 145.81 80.8919C145.782 80.8621 145.766 80.8228 145.766 80.7819C145.766 80.7409 145.782 80.7016 145.81 80.6719C146.34 80.1318 145.86 79.6019 146.29 79.0618C146.45 78.9018 146.4 78.6918 146.45 78.5818C146.38 77.9523 146.552 77.3197 146.93 76.8118V76.5019C146.55 77.3019 146.23 78.1118 145.93 78.9118H145.67C146.47 74.1918 146.67 73.6018 143.04 78.7018C142.99 78.6418 142.93 78.5918 142.93 78.5418C142.878 78.5227 142.822 78.5227 142.77 78.5418C142.739 78.7085 142.686 78.8701 142.61 79.0218C142.401 79.6329 141.959 80.1363 141.38 80.4219C141.308 80.4417 141.244 80.4829 141.195 80.54C141.147 80.5971 141.117 80.6675 141.11 80.7418C140.898 80.9131 140.73 81.1325 140.62 81.3818C140.03 83.0518 136.55 87.9818 135.53 89.6518C135.012 90.3686 134.384 90.9996 133.67 91.5218C133.67 91.2018 133.62 90.9918 133.78 90.7718H133.67C133.44 91.1456 133.19 91.5062 132.92 91.8519C132.92 91.7919 132.87 91.7918 132.81 91.7418C132.684 92.0375 132.484 92.2963 132.231 92.4939C131.977 92.6915 131.678 92.8216 131.36 92.8718C130.475 93.2382 129.491 93.2945 128.57 93.0319C127.983 92.9462 127.419 92.7457 126.91 92.4418C126.53 92.1718 126.48 92.2218 126.86 91.5818C127.35 90.729 127.888 89.9044 128.47 89.1119C129.035 88.476 129.341 87.6521 129.33 86.8018C130.51 80.8518 133.83 73.2818 129.43 80.1518C128.911 81.086 128.301 81.9669 127.61 82.7819C125.89 86.4819 121.61 91.9519 121.01 95.9319C120.941 96.3414 120.813 96.7389 120.63 97.1119C120.31 97.5919 120.04 97.6419 119.77 97.4319C119.5 97.2219 119.56 97.3719 119.51 97.3219C119.24 96.6819 118.7 96.5719 118 96.4619C117.64 96.3654 117.301 96.2026 117 95.9818C117 95.9818 117 95.6618 117.06 95.5518C117.936 93.8804 118.569 92.0924 118.94 90.2418C119.038 89.5671 119.179 88.8992 119.36 88.2418C119.53 87.4319 120.87 84.2419 121.08 83.4619L121.73 80.8919C122.15 79.2219 122.53 77.5619 123.01 75.8919C123.117 75.5395 123.191 75.1779 123.23 74.8118C123.365 73.5172 123.702 72.2517 124.23 71.0618C124.39 70.6818 124.45 70.2518 124.66 69.8218C124.783 69.4213 124.926 69.0275 125.09 68.6418C125.25 68.2718 125.47 68.1018 125.74 68.2118C126 68.4818 126.38 68.7018 126.65 68.9618C126.92 69.2218 126.76 69.5018 126.81 69.8218C126.637 70.9117 126.387 71.9878 126.06 73.0418C124.82 79.0418 129.44 72.1818 130.06 71.2218C130.49 70.4918 131.13 69.8519 131.61 69.1519ZM128.61 90.5618C128.67 90.4518 128.72 90.3418 128.88 90.0818V89.8118C128.798 89.9546 128.689 90.0802 128.56 90.1819C128.574 90.3116 128.553 90.4427 128.5 90.5618H128.61ZM135.96 80.0918C136.256 79.6617 136.527 79.2142 136.77 78.7519C137.094 77.917 137.628 77.1798 138.32 76.6119C138.505 76.3788 138.619 76.0978 138.65 75.8018C137.419 77.1938 136.414 78.7694 135.67 80.4718C135.811 80.373 135.927 80.243 136.01 80.0918H135.96ZM141.22 72.8519C141.237 72.6861 141.316 72.5328 141.44 72.4219C142.11 71.5719 142.699 70.6613 143.2 69.7018C142.136 70.8539 141.219 72.1337 140.47 73.5118C140.641 73.4615 140.8 73.3771 140.938 73.2637C141.075 73.1503 141.188 73.0102 141.27 72.8519H141.22Z" fill="#FC8156"/>
<path d="M152.67 81.2818C152.106 80.233 151.766 79.0788 151.67 77.8918C151.549 76.9761 151.759 76.0474 152.26 75.2718C152.296 75.2011 152.349 75.1398 152.413 75.093C152.477 75.0461 152.552 75.0149 152.63 75.0018C153.133 74.5938 153.672 74.2323 154.24 73.9218C154.76 73.6203 155.374 73.5273 155.96 73.6618C156.39 73.6618 157.57 74.7318 157.84 74.9418C158.149 75.2403 158.484 75.5113 158.84 75.7518C159.326 76.1899 159.695 76.7437 159.91 77.3618C160.04 77.7669 160.2 78.1613 160.39 78.5418C160.534 79.0507 160.644 79.5685 160.72 80.0918C160.74 80.5253 160.794 80.9566 160.88 81.3818C160.88 81.4418 160.88 81.4418 160.88 81.5418C160.72 80.6918 160.88 81.9218 160.88 82.0818C160.936 82.6906 160.936 83.3031 160.88 83.9118C160.72 84.2318 161.04 84.6018 161.47 84.6018C164.1 84.4418 165.12 84.8218 167.69 84.3918C167.96 84.2818 168.23 84.1218 168.55 83.9618C168.66 83.9118 168.82 83.8018 168.93 83.7418C168.967 83.8182 168.987 83.9019 168.987 83.9868C168.987 84.0717 168.967 84.1555 168.93 84.2318C168.77 84.5018 169.3 84.6018 169.09 84.8218C167.48 86.5318 162.54 86.4818 160.61 86.4818H160.45C160.29 86.4818 160.13 86.4818 160.13 86.6418C160.13 86.8018 160.07 86.8018 160.02 86.9118C159.784 87.8384 159.448 88.7369 159.02 89.5918C158.766 90.1737 158.429 90.716 158.02 91.2018C157.829 91.5493 157.575 91.8579 157.27 92.1118C157.16 92.1718 157.05 92.2818 156.89 92.3818C156.746 92.4484 156.632 92.566 156.57 92.7118C156.179 93.1846 155.657 93.5323 155.07 93.7118C154.876 93.7453 154.692 93.8203 154.53 93.9318C153.809 94.1077 153.058 94.1248 152.33 93.9818C151.861 93.8886 151.422 93.6848 151.048 93.3874C150.674 93.0899 150.376 92.7075 150.18 92.2718C150.02 91.8418 149.86 91.2718 149.7 90.8218C149.578 89.8431 149.561 88.8541 149.65 87.8718C149.77 86.8252 150.079 85.8089 150.56 84.8718C151.055 83.7189 151.73 82.6521 152.56 81.7118C152.72 81.7118 152.72 81.5518 152.77 81.3918C152.762 81.3677 152.748 81.3455 152.731 81.3266C152.714 81.3077 152.693 81.2925 152.67 81.2818ZM159.05 79.1318C158.961 78.5517 158.837 77.9774 158.68 77.4118C158.557 76.9195 158.297 76.4722 157.93 76.1218C157.734 75.8714 157.497 75.6552 157.23 75.4818C156.92 75.2168 156.585 74.9823 156.23 74.7818C155.59 74.2518 154.41 75.3718 154.03 75.7818C152.58 77.7818 154.03 80.6118 155.32 82.0618C156.88 85.1218 159.72 84.0618 159.08 80.4518C159.201 80.0173 159.183 79.5559 159.03 79.1318H159.05ZM154.28 89.5918C154.23 89.8756 154.21 90.1639 154.22 90.4518C154.12 90.5618 154.22 90.6118 154.28 90.7218C154.33 90.863 154.408 90.9926 154.509 91.1027C154.61 91.2127 154.733 91.3009 154.87 91.3618C154.92 91.3618 154.92 91.3618 154.97 91.3618C155.02 91.3618 155.14 91.2518 155.19 91.2018C156.079 90.1649 156.78 88.9804 157.26 87.7018C157.478 87.292 157.658 86.8636 157.8 86.4218C156.56 85.8818 155.97 86.3618 155.28 87.2818C154.808 87.9867 154.463 88.7684 154.26 89.5918H154.28Z" fill="#FC8156"/>
<path d="M183.56 84.4419C183.23 84.8719 182.91 85.3519 182.56 85.7819C182.175 86.306 181.84 86.8651 181.56 87.4519C181.56 87.4519 181.56 87.6119 181.51 87.6119C181.13 88.1419 180.81 88.6819 180.44 89.1119C179.85 89.7519 179.31 90.3419 178.72 90.9319C178.161 91.4467 177.547 91.8993 176.89 92.2819C176.027 92.7892 175.112 93.2016 174.16 93.5119C173.247 93.4569 172.332 93.4569 171.42 93.5119C170.67 93.6719 169.06 92.9719 168.36 92.7119C167.618 92.4008 166.916 92.0012 166.27 91.5219C165.754 91.0957 165.335 90.5653 165.038 89.9656C164.742 89.3659 164.575 88.7104 164.55 88.0419C164.45 87.1313 164.45 86.2125 164.55 85.3019C164.607 84.7557 164.717 84.2164 164.88 83.6919C165.04 83.3119 165.14 82.9419 165.3 82.5619C165.723 81.4633 166.245 80.4056 166.86 79.4019C167.02 79.1819 167.13 78.9719 167.29 78.7519C167.67 78.131 168.142 77.5713 168.69 77.0919C169.322 76.5218 169.983 75.9844 170.67 75.4819C170.992 75.2374 171.385 75.1041 171.79 75.1019C171.957 75.0928 172.122 75.0591 172.28 75.0019C172.654 74.7906 173.082 74.6965 173.51 74.7319C174.149 74.6936 174.78 74.8852 175.29 75.2719C175.34 75.2719 175.39 75.3219 175.45 75.3219C175.508 75.327 175.565 75.309 175.61 75.2719C175.77 75.1619 175.88 75.1019 176.04 75.2119C176.126 75.2814 176.191 75.3732 176.228 75.4773C176.265 75.5814 176.273 75.6938 176.25 75.8019C176.205 75.9149 176.187 76.0364 176.195 76.1576C176.204 76.2788 176.24 76.3964 176.3 76.5019C176.36 76.5019 176.3 76.6619 176.36 76.7119L176.04 77.2019C176.079 77.541 176.149 77.8758 176.25 78.2019C176.377 78.6925 176.451 79.1954 176.47 79.7019C176.495 79.968 176.495 80.2358 176.47 80.5019C176.251 81.4412 175.947 82.3584 175.56 83.2419C175.511 83.4016 175.421 83.5452 175.298 83.6578C175.175 83.7704 175.023 83.8478 174.86 83.8819C174.75 83.8819 174.64 83.9419 174.54 83.9419C174.42 83.945 174.304 83.9061 174.21 83.8319C173.913 83.5795 173.575 83.38 173.21 83.2419C173.21 83.1819 173.1 83.1819 173.05 83.1319C172.96 83.0773 172.89 82.9954 172.851 82.8982C172.811 82.801 172.804 82.6936 172.83 82.5919C172.89 82.3319 172.94 82.0619 172.99 81.8419C173.271 80.789 173.604 79.751 173.99 78.7319C173.989 78.6224 174.01 78.5137 174.05 78.4119C173.983 78.4731 173.909 78.5268 173.83 78.5719C173.464 79.2213 173.031 79.8312 172.54 80.3919C172.106 81.0017 171.731 81.6513 171.42 82.3319C170.99 83.2419 170.56 84.1019 170.13 85.0119C169.707 85.8519 169.372 86.7332 169.13 87.6419C169.052 87.9234 168.998 88.2112 168.97 88.5019C168.919 88.8828 168.975 89.2704 169.13 89.6219C169.3 89.9419 169.46 90.3219 169.62 90.7019C169.742 90.9286 169.886 91.1429 170.05 91.3419C170.31 91.6619 171.66 91.1319 172.05 91.0719C173.76 90.7084 175.37 89.9783 176.77 88.9319C177.817 88.1283 178.819 87.2669 179.77 86.3519C180.04 86.0319 180.31 85.7119 180.57 85.3519C181.06 84.7119 182.57 83.6419 183.04 82.9419C183.31 82.5619 184.17 82.0819 184.44 81.7119C184.71 81.3419 184.44 82.4619 184.71 82.3019C184.432 83.067 184.045 83.7878 183.56 84.4419Z" fill="#FC8156"/>
<path d="M191.67 92.0619C191.93 92.5869 192.235 93.0887 192.58 93.5619C192.65 93.7501 192.776 93.9128 192.94 94.0287C193.104 94.1447 193.299 94.2085 193.5 94.2119C194.072 94.3483 194.673 94.2921 195.21 94.0519C195.75 93.8919 197.68 92.3319 198.27 92.0519C198.49 91.9419 200.69 89.5819 200.95 89.4219C201.788 88.4454 202.525 87.3866 203.15 86.2619C203.69 85.4019 204.15 84.4319 204.66 83.5719C204.76 83.3619 204.87 83.1419 204.98 82.8819C205.09 82.6219 205.09 82.4519 205.14 82.2319C205.41 82.9819 206.14 82.3919 205.89 82.9319C205.796 83.154 205.742 83.3909 205.73 83.6319C205.475 84.3349 205.139 85.006 204.73 85.6319C204.504 86.379 204.199 87.0998 203.82 87.7819V87.8919C203.5 88.5319 203.01 89.2319 202.69 89.8919C202.32 90.3219 199.79 93.1119 199.36 93.4919C199.093 93.7271 198.784 93.9102 198.45 94.0319C197.65 94.4619 195.55 96.1719 194.75 96.3919C194.206 96.5296 193.65 96.6199 193.09 96.6619C192.666 96.6903 192.241 96.6283 191.843 96.4801C191.444 96.3318 191.082 96.1006 190.78 95.8019C190.51 95.4819 190.19 95.1019 189.92 94.7219C189.33 93.7219 188.58 92.5819 188.04 91.4019C187.56 90.8119 187.4 90.3219 186.91 91.0219C186.81 91.1819 186.81 91.5019 186.7 91.6719C186.5 91.9939 186.319 92.3278 186.16 92.6719C186.045 93.0249 185.884 93.3612 185.68 93.6719C185.611 93.7737 185.513 93.8533 185.4 93.9012C185.286 93.9491 185.161 93.9632 185.04 93.9419C184.893 93.9243 184.745 93.9394 184.605 93.9861C184.465 94.0327 184.337 94.1099 184.23 94.2119C183.11 94.6919 182.68 94.6919 181.87 93.9919C181.402 93.6363 181.017 93.1845 180.739 92.6669C180.461 92.1493 180.298 91.5781 180.26 90.9919C180.215 90.8915 180.198 90.7811 180.21 90.6719C180.299 89.8328 180.279 88.9857 180.15 88.1519C180.09 87.0785 180.11 86.0022 180.21 84.9319C180.289 84.4684 180.342 84.0011 180.37 83.5319C180.492 82.0378 180.781 80.562 181.23 79.1319C181.5 78.2719 181.76 77.3619 182.09 76.5619C182.604 75.0299 183.195 73.5247 183.86 72.0519C184.23 71.4119 184.45 70.7119 184.86 70.1219C185.804 68.1646 186.863 66.2647 188.03 64.4319C188.749 63.3318 189.576 62.3067 190.5 61.3719C190.87 61.0519 191.25 60.6719 191.68 60.3719C192.077 60.112 192.546 59.9827 193.02 60.0019C193.02 60.0019 193.18 60.1619 193.29 60.2119C193.662 60.7815 194.158 61.26 194.74 61.6119C195.72 62.3643 196.553 63.2895 197.2 64.3419C197.557 64.8628 197.745 65.4805 197.74 66.1119V66.6019C197.704 66.7245 197.635 66.8346 197.539 66.9195C197.444 67.0044 197.326 67.0607 197.2 67.0819C197.09 66.9883 196.965 66.914 196.83 66.8619C196.72 66.7019 196.51 66.6019 196.4 66.4419C195.86 66.0119 195.4 66.0619 194.84 66.6519C194.36 67.0819 193.84 67.6519 193.34 68.1519C193.27 68.3511 193.161 68.5346 193.02 68.6919C192.48 69.5519 191.89 70.3019 191.35 71.0519C191.324 71.1883 191.269 71.3177 191.19 71.4319C190.981 72.0114 190.713 72.5677 190.39 73.0919C190.01 73.8419 189.58 74.5919 189.21 75.4519C188.99 75.8319 188.83 76.1519 188.62 76.5819C188.19 77.5819 187.62 78.6719 187.22 79.7419C186.619 81.0352 186.118 82.3724 185.72 83.7419C185.72 84.0719 185.56 84.2819 185.51 84.5519C185.386 85.2276 185.223 85.8954 185.02 86.5519C184.81 88.2719 185.29 88.2119 185.67 87.6219C186.47 86.3919 187.06 84.9419 187.97 83.7019C188.88 82.3971 189.904 81.1756 191.03 80.0519C191.5 79.6347 192.057 79.3284 192.661 79.1553C193.265 78.9822 193.901 78.9469 194.52 79.0519C194.663 79.0603 194.801 79.1101 194.916 79.1953C195.032 79.2805 195.12 79.3975 195.17 79.5319C195.217 79.6671 195.288 79.7925 195.38 79.9019C195.793 80.4846 196.001 81.1882 195.97 81.9019C195.981 83.2315 195.782 84.5545 195.38 85.8219C195.33 86.0319 195.33 86.1419 195.27 86.3519C195.035 87.0445 194.698 87.6983 194.27 88.2919C193.95 88.5519 193.74 88.8819 193.47 89.0919C193.154 89.5308 192.726 89.8764 192.23 90.0919C191.992 90.1564 191.761 90.2435 191.54 90.3519C191.37 90.3519 191.37 90.5719 191.21 90.6219C191.252 91.1306 191.409 91.623 191.67 92.0619ZM180.35 87.0619V88.2019C180.475 87.8375 180.489 87.4441 180.39 87.0719L180.35 87.0619ZM190.15 83.7019C189.993 84.1922 189.778 84.6621 189.51 85.1019C189.3 85.6419 188.97 86.0119 188.81 86.4919C188.22 87.3519 189.89 86.8219 190.21 86.4919C191.525 85.3958 192.526 83.9707 193.11 82.3619C193.96 79.5719 192.95 79.8419 191.6 81.5619C191.005 82.1929 190.516 82.9154 190.15 83.7019Z" fill="#FC8156"/>
<path d="M208.08 88.6319C207.214 88.9492 206.309 89.1476 205.39 89.2219C204.671 89.1752 203.965 89.0096 203.3 88.7319C201.96 87.9319 201.91 87.5519 201.64 85.7319C201.506 84.9717 201.6 84.189 201.91 83.4819C202.18 82.2519 205.07 77.7919 205.56 76.6619C205.836 76.0253 206.17 75.416 206.56 74.8419C206.72 74.4619 206.99 74.3619 207.26 74.2019C207.53 74.0419 208.01 74.0419 208.26 73.7719C209.06 73.3419 208.47 72.9619 209.01 72.9119C209.241 72.9001 209.471 72.9482 209.678 73.0516C209.884 73.155 210.061 73.3101 210.19 73.5019C210.41 73.5519 210.41 73.8219 210.62 74.0419C210.83 74.2619 210.73 74.3619 210.73 74.5719C210.41 75.9119 209.22 78.4419 208.9 79.7219C208.67 80.4382 208.509 81.1749 208.42 81.9219C208.334 82.4618 208.172 82.987 207.94 83.4819C207.83 83.9119 207.56 84.7119 207.83 84.9319C208.1 85.1519 208.15 86.1119 208.47 86.0019C209.76 85.3019 211.47 85.2519 212.18 84.3919C212.61 83.8019 212.87 84.0719 213.3 83.5319C213.572 83.2381 213.792 82.8999 213.95 82.5319C214.27 81.8319 214.32 82.0419 214.59 81.4519C214.941 80.7704 215.356 80.1242 215.83 79.5219C215.987 79.0749 216.22 78.6586 216.52 78.2919C217.06 78.1319 217.01 78.1819 217.22 78.2319C218.03 78.1819 217.33 78.2319 217.81 78.5019C217.92 78.7219 217.81 78.9319 217.97 79.0419C217.6 80.0419 217.54 81.1319 217.06 82.3119C216.9 82.6919 217.06 82.3119 216.68 82.8019C216.669 83.2376 216.541 83.6623 216.31 84.0319C216.09 84.5119 216.15 85.1019 215.83 85.5319C215.4 87.3619 215.18 88.3219 215.18 88.5319C215.02 89.2219 216.9 89.7119 218.78 89.1219C220.578 88.0548 222.102 86.5823 223.23 84.8219C223.61 84.1819 223.93 83.5419 224.52 82.6819C225.11 81.8219 225.52 83.3219 225.27 83.6819C225.141 83.8834 225.034 84.0979 224.95 84.3219C224.52 84.6419 224.03 86.3219 223.66 86.6819C223.55 86.7919 223.61 86.9519 223.34 87.0619C222.394 88.2541 221.332 89.3495 220.17 90.3319C219.819 90.4518 219.483 90.6129 219.17 90.8119C218.886 91.1094 218.546 91.3474 218.17 91.5119C217.943 91.5843 217.74 91.7154 217.58 91.8919C217.46 91.8469 217.33 91.838 217.206 91.8665C217.081 91.8949 216.968 91.9594 216.88 92.0519C215.88 92.6419 211.51 92.8519 211.19 91.0519C210.809 89.61 210.809 88.0938 211.19 86.6519V86.4319C210.226 87.2628 209.184 87.9995 208.08 88.6319Z" fill="#FC8156"/>
<path d="M237.75 84.6019C237.81 85.9419 238.23 85.4619 240.22 85.1419C241.201 84.9824 242.105 84.5128 242.8 83.8019C243.28 83.3119 243.87 83.9119 244.14 84.1719C243.936 84.6739 243.664 85.1451 243.33 85.5719C241.794 86.5232 240.036 87.0575 238.23 87.1219C236.89 87.4519 236.79 88.1219 236.3 89.2219L236.09 89.6519C235.895 90.2232 235.623 90.765 235.28 91.2619C235.186 91.3807 235.079 91.4881 234.96 91.5819L234.42 92.2219C234.197 92.6424 233.887 93.0106 233.51 93.3019L233.14 93.7219L232.6 94.2119C232.444 94.2617 232.276 94.2617 232.12 94.2119C231.954 94.0834 231.772 93.9759 231.58 93.8919C231.556 93.7294 231.556 93.5643 231.58 93.4019C231.47 92.9219 231.31 92.4919 230.83 92.4019C230.625 92.2682 230.443 92.1028 230.29 91.9119C230.128 91.662 229.904 91.4586 229.64 91.3219C229.388 91.0841 229.233 90.7622 229.204 90.4174C229.174 90.0725 229.273 89.7289 229.48 89.4519C229.639 89.0423 229.922 88.6927 230.29 88.4519C230.614 88.1882 230.974 87.9726 231.36 87.8119C231.983 87.5088 232.628 87.2547 233.29 87.0519C233.715 86.781 234.022 86.3595 234.15 85.8719C234.595 84.27 234.929 82.6395 235.15 80.9919V79.2419C235.159 79.1285 235.139 79.0147 235.09 78.9119C235.04 78.6519 234.77 78.5419 234.61 78.7519C234.556 78.7773 234.509 78.815 234.473 78.8619C234.436 78.9088 234.411 78.9636 234.4 79.0219C234.013 79.6009 233.678 80.2133 233.4 80.8519C232.59 82.4019 231.84 84.0719 231.04 85.5719C230.445 86.6529 229.908 87.7644 229.43 88.9019C228.62 90.8319 226.8 92.7619 226.1 94.9019C226.007 95.2862 225.801 95.6342 225.51 95.9019C225.24 96.0119 225.13 96.4319 225.13 96.7619C225.134 97.1412 225.08 97.5189 224.97 97.8819C224.892 98.0776 224.784 98.2598 224.65 98.4219C224.422 98.7038 224.224 99.0088 224.06 99.3319C223.486 100.643 223.125 102.037 222.99 103.462C222.966 104.113 222.893 104.762 222.77 105.402C222.763 105.611 222.7 105.814 222.588 105.99C222.475 106.166 222.317 106.308 222.13 106.402C221.826 106.586 221.598 106.873 221.49 107.212C221.43 107.212 221.27 107.482 221.22 107.482C221.17 107.482 221 107.852 220.89 108.012C220.03 108.182 219.5 107.532 219.17 106.512C218.874 105.463 218.713 104.381 218.69 103.292C218.597 100.746 218.724 98.1962 219.07 95.6719C219.17 94.6719 219.39 93.5819 219.55 92.6119C219.768 90.9636 220.102 89.3329 220.55 87.7319C221.137 85.3719 221.78 83.0652 222.48 80.8119C222.64 80.2719 222.86 79.8119 223.02 79.1519C223.66 77.5419 224.2 75.8219 224.84 74.1519C225.153 73.2894 225.514 72.4447 225.92 71.6219C226.029 71.5214 226.172 71.4656 226.32 71.4656C226.468 71.4656 226.611 71.5214 226.72 71.6219L228.01 72.4319C228.874 73.5034 229.38 74.818 229.46 76.1919C229.563 77.0711 229.509 77.9616 229.3 78.8219C228.98 80.1019 228.6 81.5019 228.12 82.8219C227.8 83.6819 227.47 84.7519 227.12 85.7219C226.26 88.7219 227.98 88.3519 228.36 87.4419C228.52 87.0119 229.36 85.9319 229.48 85.4419L231.25 81.7919C231.485 81.1669 231.823 80.5856 232.25 80.0719C232.63 79.6419 233 79.0719 233.43 78.6819C233.739 78.3491 234.158 78.1395 234.61 78.0919H235.52C236.01 77.9819 236.44 78.4119 236.87 78.7819C237.02 78.9049 237.145 79.0567 237.236 79.2284C237.327 79.4001 237.383 79.5883 237.4 79.7819C237.479 80.2083 237.533 80.639 237.56 81.0719L237.78 82.6319L237.75 84.6019ZM231.47 88.8419C231.278 88.9674 231.126 89.1452 231.032 89.3543C230.938 89.5635 230.906 89.7951 230.94 90.0219C230.99 90.2919 231.15 90.5119 231.31 90.5119C231.47 90.5119 231.58 90.4019 231.69 90.2919C231.968 90.1333 232.207 89.9146 232.39 89.6519C232.98 88.8419 233.19 87.9819 233.03 88.3119C232.44 88.5719 231.96 88.4719 231.47 88.8419Z" fill="#FC8156"/>
<defs>
<filter id="filter0_d_40_1406" x="0" y="0" width="361" height="208" filterUnits="userSpaceOnUse" color-interpolation-filters="sRGB">
<feFlood flood-opacity="0" result="BackgroundImageFix"/>
<feColorMatrix in="SourceAlpha" type="matrix" values="0 0 0 0 0 0 0 0 0 0 0 0 0 0 0 0 0 0 127 0" result="hardAlpha"/>
<feOffset dy="20"/>
<feGaussianBlur stdDeviation="25"/>
<feComposite in2="hardAlpha" operator="out"/>
<feColorMatrix type="matrix" values="0 0 0 0 0.192157 0 0 0 0 0.192157 0 0 0 0 0.192157 0 0 0 0.05 0"/>
<feBlend mode="normal" in2="BackgroundImageFix" result="effect1_dropShadow_40_1406"/>
<feBlend mode="normal" in="SourceGraphic" in2="effect1_dropShadow_40_1406" result="shape"/>
</filter>
</defs>
</svg>
