<svg width="361" height="208" viewBox="0 0 361 208" fill="none" xmlns="http://www.w3.org/2000/svg">
<g filter="url(#filter0_d_40_1500)">
<rect x="50" y="30" width="261" height="108" rx="10" fill="white"/>
</g>
<path d="M114.792 70.826C115.143 68.9938 116.786 67.4311 118.645 67.0808C118.888 67.0269 118.726 67 118.645 67H114.496C112.367 67 110.293 68.7244 109.889 70.799L105.739 92.246H106.763C108.892 92.246 110.966 90.5486 111.37 88.447L114.792 70.826Z" fill="#03AFCC"/>
<path d="M143.783 67H130.85C128.722 67 126.647 68.7244 126.243 70.799L122.094 92.246H124.761C126.89 92.246 128.964 90.5486 129.368 88.447L132.467 72.4426C132.575 71.9306 133.087 71.4996 133.626 71.4996H139.715C140.254 71.4996 140.604 71.9306 140.496 72.4426L139.472 77.6696C139.365 78.1815 138.853 78.6126 138.314 78.6126H132.224L132.09 79.2593C131.686 81.3609 133.087 83.0583 135.242 83.0583H140.658C142.786 83.0583 144.861 81.3339 145.265 79.2593L146.909 70.799C147.34 68.7244 145.939 67 143.783 67Z" fill="#424242"/>
<path d="M205.592 91.5722C205.996 89.4707 204.595 87.7732 202.439 87.7732H196.727C196.188 87.7732 195.838 87.3421 195.946 86.8302L198.721 72.4693C198.829 71.9574 199.341 71.5263 199.88 71.5263H205.592C207.72 71.5263 209.795 69.8019 210.199 67.7273L210.334 67.0537H197.104C194.976 67.0537 192.901 68.7781 192.497 70.8527L189.102 88.5007C188.698 90.6023 190.099 92.2997 192.255 92.2997H205.457L205.592 91.5722Z" fill="#424242"/>
<path d="M214.725 86.8304L217.5 72.4426C217.608 71.9306 218.12 71.4996 218.659 71.4996H224.748C225.287 71.4996 225.637 71.9306 225.529 72.4426L222.754 86.8304C222.646 87.3423 222.134 87.7734 221.596 87.7734H215.506C214.994 87.7734 214.644 87.3423 214.725 86.8304ZM229.248 67H215.911C213.782 67 211.707 68.7244 211.303 70.799L207.908 88.447C207.504 90.5486 208.932 92.246 211.061 92.246H224.398C226.526 92.246 228.601 90.5216 229.005 88.447L232.427 70.799C232.804 68.7244 231.376 67 229.248 67Z" fill="#424242"/>
<path d="M168.463 79.2593L170.107 70.799C170.511 68.6974 169.11 67 166.955 67H154.022C151.893 67 149.819 68.7244 149.414 70.799L145.265 92.246H151.812L155.638 72.4156C155.746 71.8768 156.258 71.4726 156.797 71.4726H162.886C163.425 71.4726 163.775 71.9037 163.668 72.4156L162.644 77.6427C162.536 78.1546 162.024 78.5857 161.485 78.5857H155.396L155.261 79.2323C155.18 79.6634 155.099 80.5526 155.477 81.2531L161.701 92.2191H168.679L163.479 83.0314H163.829C165.985 83.0852 168.059 81.3609 168.463 79.2593Z" fill="#424242"/>
<path d="M253.928 79.2593L255.571 70.799C255.976 68.6974 254.548 67 252.419 67H239.486C237.358 67 235.283 68.7244 234.879 70.799L230.729 92.246H237.277L241.103 72.4156C241.21 71.8768 241.722 71.4726 242.261 71.4726H248.351C248.889 71.4726 249.24 71.9037 249.132 72.4156L248.108 77.6427C248 78.1546 247.488 78.5857 246.949 78.5857H240.887L240.752 79.2323C240.672 79.6634 240.591 80.5526 240.968 81.2531L247.192 92.2191H254.17L248.97 83.0852H249.32C251.449 83.0852 253.524 81.3609 253.928 79.2593Z" fill="#424242"/>
<path d="M123.791 70.826C124.141 68.9938 125.785 67.458 127.617 67.0808C127.887 67.0269 127.725 67 127.644 67H121.878C119.75 67 117.675 68.7244 117.271 70.799L113.122 92.246H115.762C117.891 92.246 119.965 90.5486 120.369 88.447L123.791 70.826Z" fill="#026496"/>
<path d="M104.149 70.826L100 92.2191C101.913 91.9227 103.637 90.36 103.988 88.4739L107.409 70.826C107.76 68.9938 109.403 67.4311 111.262 67.0808C111.505 67.0269 111.316 67 111.262 67H108.784C106.628 67 104.553 68.7244 104.149 70.826Z" fill="#8ED7F4"/>
<path d="M177.651 67C175.522 67 173.448 68.7244 173.043 70.799L169.649 88.447C169.244 90.5486 170.672 92.246 172.801 92.246H186.677L186.812 91.5724C187.216 89.4708 185.815 87.7734 183.659 87.7734H177.274C176.735 87.7734 176.384 87.3423 176.492 86.8304L177.462 81.8189H186.38L187.243 77.4002H178.324L179.294 72.4695C179.402 71.9576 179.914 71.5265 180.453 71.5265H186.838C188.967 71.5265 191.042 69.8021 191.446 67.7275L191.581 67.0539H177.651V67Z" fill="#424242"/>
<path d="M259.37 67.0269C260.637 67.0269 261.66 68.0507 261.66 69.317C261.66 70.5834 260.637 71.6072 259.37 71.6072C258.104 71.6072 257.08 70.5834 257.08 69.317C257.08 68.0507 258.104 67.0269 259.37 67.0269ZM259.37 71.0684C260.34 71.0684 261.095 70.287 261.095 69.344C261.095 68.374 260.313 67.6196 259.37 67.6196C258.4 67.6196 257.646 68.401 257.646 69.344C257.646 70.287 258.4 71.0684 259.37 71.0684ZM259.02 70.314C259.02 70.4756 258.966 70.6103 258.751 70.6103C258.535 70.6103 258.481 70.5026 258.481 70.314V68.401C258.481 68.2663 258.535 68.1315 258.778 68.1315H259.478C259.99 68.1315 260.394 68.2932 260.394 68.859C260.394 69.2901 260.179 69.5326 259.774 69.5326L260.206 70.2601C260.232 70.314 260.232 70.3678 260.232 70.3948C260.232 70.5295 260.152 70.6103 259.936 70.6103C259.747 70.6103 259.667 70.4487 259.586 70.314L259.182 69.5865H258.993V70.314H259.02ZM259.478 69.1284C259.694 69.1284 259.801 69.0746 259.801 68.859C259.801 68.6435 259.694 68.5896 259.478 68.5896H259.02V69.1554H259.478V69.1284Z" fill="#424242"/>
<defs>
<filter id="filter0_d_40_1500" x="0" y="0" width="361" height="208" filterUnits="userSpaceOnUse" color-interpolation-filters="sRGB">
<feFlood flood-opacity="0" result="BackgroundImageFix"/>
<feColorMatrix in="SourceAlpha" type="matrix" values="0 0 0 0 0 0 0 0 0 0 0 0 0 0 0 0 0 0 127 0" result="hardAlpha"/>
<feOffset dy="20"/>
<feGaussianBlur stdDeviation="25"/>
<feComposite in2="hardAlpha" operator="out"/>
<feColorMatrix type="matrix" values="0 0 0 0 0.192157 0 0 0 0 0.192157 0 0 0 0 0.192157 0 0 0 0.05 0"/>
<feBlend mode="normal" in2="BackgroundImageFix" result="effect1_dropShadow_40_1500"/>
<feBlend mode="normal" in="SourceGraphic" in2="effect1_dropShadow_40_1500" result="shape"/>
</filter>
</defs>
</svg>
