<svg width="361" height="208" viewBox="0 0 361 208" fill="none" xmlns="http://www.w3.org/2000/svg">
<g filter="url(#filter0_d_40_1401)">
<rect x="50" y="30" width="261" height="108" rx="10" fill="white"/>
</g>
<path d="M194.926 96.0646C193.69 96.0646 192.459 96.7937 191.526 95.3645C191.216 95.3645 191.823 92.5059 191.526 91.0767H190.26C189.939 88.9357 190.551 86.7889 190.26 84.6421C190.26 84.5843 190.26 84.5322 190.26 84.4801L194.979 84.3991H190.242C189.863 82.6226 188.708 83.8725 188.399 82.5069C187.448 81.0834 188.982 80.3601 189.956 80.3544C189.636 78.9251 190.581 80.3544 190.575 78.9251C190.575 76.0666 190.575 73.2023 189.274 71.0671C188.953 70.3495 189.274 68.2086 189.274 66.7793C185.459 66.7793 181.3 66.7793 177.555 69.6725C174.452 71.8656 170.602 68.8451 167.539 71.2522C167.072 71.6168 166.437 71.0902 165.842 70.9224C165.706 70.8668 165.557 70.853 165.413 70.883C165.269 70.9129 165.138 70.9851 165.037 71.0902C164.667 71.5651 164.444 72.1358 164.395 72.7336H165.387C164.517 74.8977 163.333 72.7336 161.992 73.5726C162.097 74.9961 162.137 75.7078 161.77 76.4658C162.639 76.3848 163.782 75.6268 164.477 76.3328L164.529 78.4738C164.202 78.8383 163.765 78.6705 163.298 78.5143C162.832 78.358 162.324 78.2076 161.957 78.5953C162.015 79.3128 162.137 80.7363 162.202 81.448C162.266 82.1597 161.91 82.1887 161.554 82.2292C161.916 82.1887 162.616 82.1308 162.954 82.1134C162.989 82.7557 163.065 83.9883 163.112 84.7463C162.404 84.7799 161.699 84.8552 161 84.972L163.123 84.9372V84.9662C163.164 85.6779 162.867 85.6953 162.54 85.7242C162.651 87.1477 162.54 88.6174 162.849 89.2829C163.094 89.2829 163.357 89.2482 163.625 89.2308C163.1 89.6185 162.826 90.7179 162.779 91.9852C162.756 93.2394 162.836 94.4934 163.018 95.7348C163.018 95.0115 163.292 97.1409 163.327 96.4176C163.288 96.9956 163.288 97.5755 163.327 98.1535C163.327 98.7322 163.415 99.3108 163.485 99.849C163.537 100.109 163.543 100.37 163.572 100.607C163.596 100.828 163.645 101.045 163.718 101.255C163.753 101.434 163.8 101.689 163.882 102.135C163.806 102.407 164.517 102.54 165.97 102.65C167.422 102.76 168.729 102.788 170.112 102.777C172.877 102.728 175.637 102.517 178.377 102.146C183.826 101.498 189.268 100.41 194.658 99.6696C195.212 98.9231 194.926 97.4997 194.926 96.0646Z" fill="#424242"/>
<path d="M141.822 83.9893C141.976 84.1035 142.144 84.1976 142.322 84.2693C143.532 84.9594 144.659 85.7847 145.682 86.7293C147.225 88.1081 148.316 89.9205 148.812 91.9293C149.151 93.565 148.851 95.2685 147.972 96.6893C147.688 97.2873 147.332 97.8481 146.912 98.3593C146.699 98.6493 146.454 98.9143 146.182 99.1493C145.163 100.099 143.967 100.84 142.662 101.329C142.072 101.626 141.407 101.741 140.752 101.659C140.247 101.638 139.745 101.755 139.302 101.999C138.869 102.2 138.421 102.367 137.962 102.499C136.922 102.775 135.836 102.833 134.772 102.669C133.315 102.561 131.936 101.97 130.852 100.989C130.421 100.501 130.139 99.8999 130.04 99.2564C129.94 98.6129 130.028 97.9545 130.292 97.3593C130.705 96.3392 131.249 95.3777 131.912 94.4993C132.552 93.5551 133.304 92.6921 134.152 91.9293C134.312 91.7881 134.444 91.6186 134.542 91.4293C134.992 90.5893 135.222 90.4293 136.052 90.5293C136.392 90.4193 136.612 89.9193 137.052 90.0793C136.832 90.1993 136.662 90.3093 136.322 90.4793C136.602 90.4793 136.772 90.5893 136.882 90.5893C136.872 90.8507 136.892 91.1124 136.942 91.3693C137.002 91.5393 136.942 91.7093 136.772 91.9293C136.442 92.3793 136.162 92.8293 135.772 93.3293C135.224 93.9671 134.858 94.7409 134.712 95.5693C134.628 96.0625 134.571 96.5599 134.542 97.0593C134.523 97.1441 134.521 97.2318 134.537 97.3173C134.552 97.4028 134.585 97.4843 134.632 97.557C134.68 97.6297 134.742 97.6922 134.814 97.7407C134.886 97.7891 134.967 97.8227 135.052 97.8393C135.552 98.0191 136.092 98.0572 136.612 97.9493C137.67 97.8008 138.705 97.5185 139.692 97.1093C140.692 96.6693 141.762 96.2693 142.772 95.7693C143.566 95.4159 144.301 94.9439 144.952 94.3693C145.452 93.9793 145.622 93.5293 145.452 93.1993C145.157 91.9272 144.455 90.7861 143.452 89.9493C141.632 88.5377 139.706 87.2673 137.692 86.1493C136.489 85.4442 135.348 84.6379 134.282 83.7393C133.107 82.8002 132.152 81.616 131.482 80.2693C130.202 78.1493 131.372 75.2693 133.162 73.0593C134.842 71.1511 136.881 69.5916 139.162 68.4693C139.832 68.1893 140.512 68.0193 141.162 67.7393C144.27 66.6727 147.572 66.2907 150.842 66.6193C151.842 66.7393 152.692 66.8993 153.642 67.0193C154.6 67.0671 155.526 67.3748 156.322 67.9093C156.474 67.9958 156.588 68.1369 156.64 68.304C156.692 68.4711 156.678 68.6517 156.602 68.8093C156.576 68.938 156.576 69.0706 156.602 69.1993C156.57 69.4836 156.513 69.7647 156.432 70.0393C155.971 70.9261 155.685 71.894 155.592 72.8893C155.468 73.3884 155.258 73.8622 154.972 74.2893C154.752 74.7393 154.412 75.0693 154.192 75.4593C153.983 75.8383 153.671 76.1504 153.292 76.3593C152.739 76.6517 152.16 76.8927 151.562 77.0793C151.429 77.1638 151.275 77.2087 151.117 77.2087C150.959 77.2087 150.805 77.1638 150.672 77.0793C149.836 76.7769 148.966 76.5787 148.082 76.4893C146.233 76.2026 144.364 76.0589 142.492 76.0593C141.905 76.0988 141.322 76.1925 140.752 76.3393C140.082 76.4493 139.472 76.6193 138.852 76.7293C134.852 77.7293 137.172 80.6493 139.192 82.0993C140.105 82.6778 140.983 83.3088 141.822 83.9893Z" fill="#FC8156"/>
<path d="M161.682 90.4193C161.658 90.4021 161.629 90.3912 161.6 90.3877C161.57 90.3841 161.54 90.3879 161.512 90.3988C161.485 90.4097 161.46 90.4274 161.441 90.4502C161.421 90.4729 161.408 90.5001 161.402 90.5293C161.342 90.5293 161.342 90.5893 161.342 90.6393C161.122 91.1993 160.842 91.5393 160.342 91.4293C160.062 91.7093 159.952 91.9893 159.732 92.2093C159.587 92.2773 159.461 92.3791 159.363 92.5061C159.266 92.6331 159.2 92.7817 159.172 92.9393C159.172 93.0493 159.112 93.0993 159.062 93.2193C158.782 93.6093 158.502 93.8893 158.272 94.2193C158.052 94.7098 157.707 95.134 157.272 95.4493C157.027 95.6804 156.818 95.9467 156.652 96.2393C156.634 96.3003 156.597 96.3542 156.547 96.3936C156.497 96.4329 156.436 96.4559 156.372 96.4593C156.06 96.5647 155.774 96.7352 155.532 96.9593C154.954 97.3173 154.306 97.549 153.632 97.6393C153.036 97.6691 152.442 97.5523 151.902 97.2993C151.467 97.0048 151.115 96.6039 150.879 96.1349C150.642 95.6658 150.53 95.1441 150.552 94.6193C150.534 94.3349 150.572 94.0496 150.662 93.7793C150.801 92.0187 151.102 90.2746 151.562 88.5693C151.842 87.5693 152.182 86.7793 152.562 85.9393C153.292 84.4293 153.902 82.8093 154.632 81.2993C154.645 81.1639 154.683 81.0318 154.742 80.9093C155.14 79.612 155.705 78.3717 156.422 77.2193C156.612 76.843 156.779 76.4556 156.922 76.0593C157.055 76.0137 157.198 76.0054 157.336 76.0354C157.473 76.0653 157.6 76.1324 157.702 76.2293C158.322 76.6193 158.932 77.0593 159.612 77.4593C159.722 77.4593 159.892 77.6193 159.892 77.7393C160.353 78.554 160.725 79.4155 161.002 80.3093C161.122 80.8693 161.172 81.3693 161.282 81.9293C161.426 82.5641 161.356 83.2289 161.082 83.8193C160.862 84.2693 160.742 84.7693 160.522 85.2193C160.522 85.4993 160.352 85.7793 160.302 86.0593C159.97 87.2018 159.563 88.321 159.082 89.4093C159.073 89.4454 159.073 89.4833 159.082 89.5193C159.082 89.5193 159.082 89.5793 158.962 89.6893C158.908 90.1386 158.776 90.5751 158.572 90.9793C158.682 90.9193 158.802 90.9193 158.852 90.8693C159.412 90.2493 160.032 89.5193 160.592 88.8693C161.592 87.7493 162.492 86.6393 163.442 85.5193C163.825 85.1147 164.179 84.6836 164.502 84.2293C165.568 82.8346 166.71 81.4992 167.922 80.2293C168.093 80.0403 168.301 79.8873 168.532 79.7793C168.97 79.5783 169.454 79.5021 169.932 79.5593C170.111 79.6282 170.28 79.7225 170.432 79.8393C170.882 80.2893 171.272 80.8393 171.722 81.1793C172.013 81.4505 172.224 81.7964 172.332 82.1793C172.464 82.5591 172.558 82.951 172.612 83.3493C172.756 83.9204 172.756 84.5183 172.612 85.0893C172.268 86.3241 171.858 87.5392 171.382 88.7293C171.272 89.2293 171.042 89.7293 170.932 90.3493C171.077 90.3005 171.209 90.2222 171.322 90.1193C172.472 89.4466 173.511 88.5999 174.402 87.6093C175.261 86.7678 176.218 86.0325 177.252 85.4193C177.428 85.3507 177.584 85.2369 177.702 85.0893C177.755 85.0298 177.819 84.982 177.892 84.9493C177.964 84.9166 178.043 84.8997 178.122 84.8997C178.202 84.8997 178.28 84.9166 178.352 84.9493C178.425 84.982 178.49 85.0298 178.542 85.0893C178.822 85.3093 178.932 85.6993 179.322 85.8693C179.712 86.0393 179.772 86.2593 179.992 86.5393C179.942 87.0047 179.942 87.474 179.992 87.9393C179.975 88.3631 179.88 88.78 179.712 89.1693C179.382 89.3393 179.602 89.7893 179.382 90.0693C179.322 90.7393 179.212 91.4093 179.102 92.0693C179.042 92.6645 179.042 93.2642 179.102 93.8593C179.102 94.2493 179.212 94.4193 179.492 94.5293C180.332 94.6993 183.242 92.6293 183.802 91.8993C184.776 90.706 185.63 89.4198 186.352 88.0593C186.389 87.7892 186.504 87.5356 186.682 87.3293C186.792 87.4993 186.852 87.4993 186.792 87.5593C186.632 88.3993 186.912 87.8893 186.792 88.8393C186.792 88.6193 186.512 89.7893 186.352 89.6793C186.192 89.5693 186.232 89.8493 186.122 89.9593C185.792 90.5793 185.452 91.1393 185.122 91.8093C185.122 92.0293 184.952 92.1993 184.902 92.3093C184.454 92.6381 184.041 93.0135 183.672 93.4293C183.672 93.5993 183.502 93.6493 183.392 93.7093C182.551 94.7613 181.447 95.5721 180.192 96.0593C179.545 96.0569 178.902 95.9453 178.292 95.7293C177.576 95.2207 176.967 94.5749 176.502 93.8293C176.23 93.0728 176.209 92.2488 176.442 91.4793C176.706 90.0884 177.081 88.7207 177.562 87.3893C177.631 87.2099 177.671 87.0211 177.682 86.8293C177.732 86.7193 177.682 86.6693 177.682 86.4993C177.342 86.4993 177.122 86.9493 176.842 86.9993C176.563 87.0947 176.297 87.2258 176.052 87.3893C176.063 87.7826 175.923 88.1651 175.662 88.4593C175.442 88.6793 175.332 88.9593 175.102 89.2393C174.822 89.0693 174.542 89.2393 174.262 89.4593C173.822 89.8493 173.422 90.1893 172.922 90.5793C172.812 90.6893 172.642 90.7493 172.532 90.9693C172.005 91.5666 171.403 92.0942 170.742 92.5393C170.682 92.6493 170.572 92.6493 170.462 92.8193C170.122 93.4893 169.462 93.8193 168.952 94.3893C168.778 94.6227 168.591 94.8464 168.392 95.0593C168.001 95.3914 167.547 95.6414 167.058 95.7943C166.568 95.9472 166.053 95.9999 165.542 95.9493C165.07 95.8663 164.647 95.605 164.362 95.2193C164.158 94.9968 164.007 94.7309 163.921 94.4417C163.834 94.1525 163.814 93.8474 163.862 93.5493C163.864 92.9377 163.976 92.3314 164.192 91.7593C165.096 89.0123 166.407 86.4166 168.082 84.0593C168.472 83.3293 168.982 82.6593 169.372 81.8793C169.494 81.7808 169.586 81.6493 169.635 81.5004C169.685 81.3515 169.691 81.1915 169.652 81.0393C169.482 80.8693 169.262 80.8693 169.032 81.0393C168.892 81.2165 168.723 81.3686 168.532 81.4893C168 82.0417 167.439 82.5657 166.852 83.0593C166.512 83.4251 166.229 83.8397 166.012 84.2893C165.761 84.9228 165.402 85.5081 164.952 86.0193C164.465 86.4709 164.032 86.9776 163.662 87.5293C163.332 87.9793 163.102 88.5293 162.822 88.9293C162.681 89.2751 162.514 89.6094 162.322 89.9293C162.212 90.0993 162.042 90.3193 161.932 90.4893C161.842 90.5293 161.732 90.4193 161.682 90.4193Z" fill="#FC8156"/>
<path d="M186.572 82.9793L186.632 82.9193C186.75 82.7597 186.9 82.6267 187.072 82.5293C187.692 82.4193 189.072 81.4093 189.652 81.7493C189.812 81.9693 190.372 82.2493 190.652 82.4793C190.773 82.6584 190.846 82.8651 190.865 83.0802C190.885 83.2952 190.849 83.5117 190.762 83.7093C190.422 84.4293 190.032 85.1093 189.582 85.9993C189.472 86.3393 189.362 86.6193 189.312 86.8393C189.082 87.3393 188.862 88.0093 188.582 88.5193C188.352 89.1893 189.362 87.0593 189.252 87.6193C189.231 87.7775 189.173 87.9283 189.082 88.0593C188.745 88.6351 188.572 89.2922 188.582 89.9593C188.582 90.5193 188.352 93.3693 188.412 93.8793C188.483 94.195 188.639 94.4854 188.862 94.7193C189.129 94.8905 189.41 95.0378 189.702 95.1593C189.982 95.3893 190.262 95.2793 190.592 95.2193C195.232 93.5393 193.592 92.9293 196.242 90.0693C196.83 89.3867 197.302 88.6133 197.642 87.7793C197.642 87.7193 197.642 87.7193 197.812 87.4393C198.092 87.9993 197.472 88.7893 198.262 88.9593C197.082 91.0793 196.262 94.1593 194.342 95.2793C193.782 95.9993 189.982 99.3593 187.512 98.4093C186.732 98.6893 186.002 97.9093 185.162 97.5693C184.539 97.2822 183.986 96.8624 183.542 96.3393C183.225 95.6314 183.036 94.8731 182.982 94.0993C182.895 93.7735 182.858 93.4363 182.872 93.0993C183.042 92.4293 182.932 91.0993 183.152 90.6993C183.243 90.4068 183.3 90.1049 183.322 89.7993C183.432 89.7993 183.322 89.4693 183.712 89.4093C183.772 89.4093 183.822 89.1893 183.882 89.1293C184.162 88.7393 184.212 88.4093 184.492 88.0093C184.492 88.0093 183.322 89.1893 183.992 88.0693C184.442 86.9493 185.442 85.7193 185.782 84.9393C185.798 84.8392 185.836 84.7437 185.892 84.6593C186.062 84.3193 186.232 84.0993 186.122 83.7093C186.077 83.4353 186.134 83.154 186.282 82.9193C186.352 82.9793 186.402 83.0593 186.572 82.9793ZM191.722 76.8793C191.593 77.0231 191.497 77.1939 191.442 77.3793C191.445 77.4321 191.436 77.4849 191.415 77.5335C191.394 77.5821 191.363 77.6252 191.322 77.6593C191.162 77.8293 190.992 78.0593 190.772 78.3393C190.537 78.5597 190.247 78.7118 189.932 78.7793C189.812 78.7793 189.652 78.8393 189.532 78.9493C189.423 79.0371 189.291 79.0898 189.151 79.1006C189.012 79.1113 188.873 79.0795 188.752 79.0093C188.623 78.9142 188.462 78.8714 188.302 78.8893C188.1 78.9141 187.895 78.9141 187.692 78.8893C187.743 78.8118 187.8 78.7383 187.862 78.6693C187.899 78.4783 187.952 78.2909 188.022 78.1093C188.136 77.8558 188.27 77.6117 188.422 77.3793C188.422 77.2693 188.582 77.1493 188.582 77.0993C188.582 76.7593 188.862 76.4793 189.032 76.1493L189.372 75.6393C189.482 75.5293 189.592 75.4193 189.702 75.4193C189.743 75.39 189.792 75.3743 189.842 75.3743C189.892 75.3743 189.941 75.39 189.982 75.4193C189.982 75.5293 190.092 75.5293 190.212 75.4793C190.332 75.4293 190.372 75.3593 190.432 75.4193C190.666 75.5213 190.911 75.5952 191.162 75.6393C191.545 75.8109 191.859 76.107 192.052 76.4793C191.882 76.5993 191.832 76.7693 191.722 76.8793Z" fill="#FC8156"/>
<path d="M213.252 90.3593C212.972 90.9193 212.022 92.1493 212.022 92.7693C211.925 92.8771 211.814 92.9713 211.692 93.0493C211.498 93.2398 211.345 93.4677 211.242 93.7193C211.123 93.9329 210.993 94.1399 210.852 94.3393C210.2 95.6191 209.326 96.7736 208.272 97.7493C207.942 98.0293 204.972 100.879 204.752 101.159C203.132 102.499 200.952 101.889 199.322 101.939C198.92 101.965 198.518 101.889 198.152 101.719C197.418 101.432 196.74 101.015 196.152 100.489C195.652 99.2593 194.362 98.4193 194.252 96.6893C194.192 96.2393 193.972 95.9593 193.912 95.5093C193.972 93.7193 194.252 91.9293 194.472 90.0793C194.812 88.7993 195.092 87.3993 195.312 86.0793C195.649 84.3752 196.253 82.735 197.102 81.2193C197.662 79.7593 198.172 79.6493 198.722 78.2193C199.132 77.4503 199.586 76.7057 200.082 75.9893C200.488 75.1328 200.955 74.3072 201.482 73.5193C202.463 71.7963 203.626 70.1837 204.952 68.7093C205.792 67.8693 206.682 66.9793 207.522 66.2493C207.974 65.8441 208.483 65.5072 209.032 65.2493C209.192 65.1552 209.364 65.0813 209.542 65.0293C209.912 64.9727 210.289 64.999 210.647 65.1062C211.005 65.2134 211.335 65.399 211.612 65.6493C211.9 65.9598 212.102 66.3392 212.2 66.7509C212.299 67.1625 212.289 67.5925 212.172 67.9993C212.052 68.6693 212.002 69.3393 211.832 69.9493C211.737 70.4821 211.548 70.9936 211.272 71.4593C210.889 72.4253 210.403 73.3472 209.822 74.2093C209.422 74.9293 208.982 75.6593 208.582 76.3893C207.912 77.3893 207.352 78.4593 206.682 79.3893C205.512 80.9493 204.502 82.6293 203.442 84.1993C201.702 87.1993 201.872 87.6693 201.262 90.6293C201.117 91.6224 201.06 92.6263 201.092 93.6293C201.092 93.9693 201.312 96.1493 201.372 96.3793C201.512 97.0041 201.737 97.6065 202.042 98.1693C202.152 98.3893 202.932 98.5593 203.212 98.6693C203.612 98.9493 206.572 96.9293 206.962 96.6693C207.853 96.0654 208.663 95.3495 209.372 94.5393C210.14 93.7046 210.811 92.7853 211.372 91.7993C212.372 90.4593 212.712 89.3393 213.772 87.8793C214.482 87.7893 214.082 88.9693 213.252 90.3593ZM204.302 80.2893C205.642 78.2299 206.877 76.1038 208.002 73.9193C208.612 72.7393 209.112 71.5693 209.732 70.3893C209.999 69.5693 210.187 68.7254 210.292 67.8693C210.402 67.5893 210.402 67.4293 210.122 67.5393C209.9 67.5833 209.691 67.6792 209.512 67.8193C208.721 68.1457 208.053 68.7124 207.602 69.4393C207.212 69.8893 206.932 70.4393 206.482 70.8393C206.012 71.4284 205.671 72.1099 205.482 72.8393C205.202 73.3993 204.922 74.0693 204.642 74.6293C204.211 75.8324 203.707 77.0079 203.132 78.1493C202.902 78.7093 202.742 79.3293 202.512 79.8893C201.842 81.7893 202.122 80.8393 201.512 82.7393C201.342 83.1893 201.452 84.4693 202.182 83.7393C202.947 82.6264 203.655 81.4749 204.302 80.2893Z" fill="#FC8156"/>
<path d="M216.082 87.8493C216.071 87.9104 216.045 87.9679 216.007 88.0167C215.969 88.0655 215.919 88.1042 215.862 88.1293C215.812 88.1571 215.77 88.1976 215.74 88.2467C215.71 88.2958 215.694 88.3519 215.692 88.4093C215.632 88.6293 215.582 88.6893 215.412 88.7393C215.242 88.7893 215.302 88.8493 215.242 89.1893C215.352 89.1893 215.412 89.1893 215.462 89.2393V89.2993H215.082C215.128 89.154 215.149 89.0017 215.142 88.8493H215.032C214.972 89.2393 214.922 89.6393 214.862 90.0293C214.972 90.0293 215.032 90.1393 215.082 90.1393C215.112 90.512 215.112 90.8866 215.082 91.2593C215.092 91.6035 215.167 91.9428 215.302 92.2593C215.472 92.4793 215.922 93.7093 216.092 93.9293C216.872 94.7193 217.822 95.7193 218.722 95.7793C219.455 95.7452 220.184 95.6515 220.902 95.4993C222.307 95.0558 223.616 94.3538 224.762 93.4293C225.762 92.6993 226.602 91.8593 227.552 91.0793C227.614 91.0277 227.671 90.9708 227.722 90.9093C228.062 90.5193 228.392 90.1893 228.722 89.7893C229.337 89.1886 229.899 88.5362 230.402 87.8393C230.535 87.5386 230.773 87.2968 231.072 87.1593C230.987 87.6445 230.836 88.1156 230.622 88.5593C230.565 88.7291 230.469 88.8832 230.342 89.0093C230.015 89.3673 229.733 89.7635 229.502 90.1893C229.332 90.4093 229.112 90.6293 228.942 90.8593C228.942 90.8593 228.832 91.0293 228.722 91.1893C228.892 91.1893 229.002 91.0793 229.172 91.0293C229.112 91.3593 228.832 91.4193 228.782 91.6993C228.832 91.6993 228.832 91.8093 228.942 91.8593C228.79 92.1123 228.601 92.3414 228.382 92.5393C228.019 92.8415 227.684 93.1762 227.382 93.5393C226.884 94.0672 226.342 94.5523 225.762 94.9893C225.515 95.2111 225.254 95.4181 224.982 95.6093C224.752 95.7693 224.532 95.8893 224.312 96.0493C223.967 96.2149 223.633 96.402 223.312 96.6093C222.764 96.9581 222.158 97.2054 221.522 97.3393L221.022 97.5093C220.372 97.7136 219.701 97.8444 219.022 97.8993C217.393 97.8343 215.778 97.5723 214.212 97.1193C212.212 96.3293 211.862 95.3793 210.972 94.5993C210.615 94.2778 210.343 93.8722 210.182 93.4193C209.937 92.663 209.805 91.8744 209.792 91.0793C209.812 89.346 210.215 87.6385 210.972 86.0793C211.047 85.9542 211.095 85.8151 211.114 85.6707C211.133 85.5262 211.122 85.3794 211.082 85.2393C210.951 85.2951 210.833 85.3784 210.736 85.4836C210.639 85.5888 210.566 85.7135 210.522 85.8493C210.345 86.3558 210.12 86.8446 209.852 87.3093C209.886 86.8747 210.019 86.4538 210.242 86.0793C210.676 85.0816 211.198 84.1245 211.802 83.2193C212.4 82.2925 213.094 81.4311 213.872 80.6493C214.619 79.8358 215.466 79.1201 216.392 78.5193C216.586 78.4422 216.774 78.3485 216.952 78.2393C217.232 78.1293 217.512 78.0793 217.682 78.3593C217.852 78.6393 218.072 78.4693 218.182 78.5793C218.292 78.6893 218.412 78.9093 218.522 79.0293C219.082 79.3093 221.202 79.8693 221.712 80.1993C221.883 80.3538 222.017 80.5453 222.102 80.7593C222.319 81.2723 222.62 81.7455 222.992 82.1593C223.098 82.3107 223.176 82.4801 223.222 82.6593C223.354 83.3194 223.354 83.9992 223.222 84.6593C223.08 85.432 222.796 86.1714 222.382 86.8393C222.142 87.2107 221.935 87.6021 221.762 88.0093C221.626 88.406 221.438 88.7827 221.202 89.1293C221.104 89.3318 220.964 89.5112 220.792 89.656C220.619 89.8007 220.418 89.9075 220.202 89.9693C219.872 90.1371 219.498 90.1966 219.132 90.1393C218.972 90.0793 218.802 90.1393 218.692 89.9193C218.692 89.9114 218.691 89.9036 218.688 89.8963C218.685 89.8891 218.68 89.8825 218.675 89.8769C218.669 89.8713 218.662 89.8669 218.655 89.8639C218.648 89.8609 218.64 89.8593 218.632 89.8593C218.182 89.9193 217.902 89.4093 217.572 89.2393C217.508 89.1622 217.466 89.0687 217.452 88.9693C217.572 88.7393 217.452 88.6293 217.452 88.4593C217.233 87.9806 216.989 87.5134 216.722 87.0593C216.722 86.8993 216.502 86.8393 216.332 87.0593C216.162 87.2793 216.082 87.5093 216.082 87.8493ZM210.772 92.8493C210.822 93.0193 210.882 93.1293 210.932 93.2993C210.982 93.4693 211.102 93.5793 210.992 93.7993C210.932 93.7993 210.882 93.7993 210.882 93.6893C210.62 93.0497 210.448 92.3765 210.372 91.6893C210.372 91.6293 210.372 91.5693 210.372 91.5193C210.334 90.6926 210.412 89.8647 210.602 89.0593C210.662 88.8953 210.699 88.7236 210.712 88.5493V88.1593C210.572 88.4104 210.458 88.6751 210.372 88.9493C210.372 89.2193 210.262 89.4493 210.212 89.7293C209.918 91.0749 210.072 92.4799 210.652 93.7293C210.788 93.9459 210.938 94.1531 211.102 94.3493C211.212 94.4533 211.346 94.5288 211.492 94.5693C211.492 94.6293 211.552 94.5693 211.662 94.5693C211.49 94.3228 211.339 94.0618 211.212 93.7893C211.052 93.4493 211.052 93.1093 210.882 92.7893C210.853 92.7919 210.825 92.8015 210.801 92.8172C210.777 92.8328 210.756 92.8541 210.742 92.8793L210.772 92.8493ZM210.772 89.2693C210.54 90.1061 210.499 90.9845 210.652 91.8393C210.652 91.8993 210.712 91.8993 210.772 91.9593C210.822 91.3393 210.882 90.7793 210.932 90.2193C211.048 89.8549 211.048 89.4637 210.932 89.0993C210.792 89.1893 210.742 89.2393 210.742 89.2993L210.772 89.2693ZM217.842 84.7993C217.699 84.9937 217.568 85.1975 217.452 85.4093C217.232 85.7993 217.292 86.0793 217.562 86.2493C217.756 86.3447 217.929 86.4772 218.072 86.6393C218.233 86.7927 218.432 86.8997 218.648 86.949C218.865 86.9983 219.091 86.988 219.302 86.9193C219.701 86.7457 220.019 86.4278 220.192 86.0293C220.592 85.0293 220.812 84.9093 221.192 83.9593C222.082 81.8293 220.292 82.3293 219.452 82.9593C218.818 83.5084 218.256 84.1369 217.782 84.8293L217.842 84.7993Z" fill="#FC8156"/>
<defs>
<filter id="filter0_d_40_1401" x="0" y="0" width="361" height="208" filterUnits="userSpaceOnUse" color-interpolation-filters="sRGB">
<feFlood flood-opacity="0" result="BackgroundImageFix"/>
<feColorMatrix in="SourceAlpha" type="matrix" values="0 0 0 0 0 0 0 0 0 0 0 0 0 0 0 0 0 0 127 0" result="hardAlpha"/>
<feOffset dy="20"/>
<feGaussianBlur stdDeviation="25"/>
<feComposite in2="hardAlpha" operator="out"/>
<feColorMatrix type="matrix" values="0 0 0 0 0.192157 0 0 0 0 0.192157 0 0 0 0 0.192157 0 0 0 0.05 0"/>
<feBlend mode="normal" in2="BackgroundImageFix" result="effect1_dropShadow_40_1401"/>
<feBlend mode="normal" in="SourceGraphic" in2="effect1_dropShadow_40_1401" result="shape"/>
</filter>
</defs>
</svg>
