<svg width="361" height="208" viewBox="0 0 361 208" fill="none" xmlns="http://www.w3.org/2000/svg">
<g filter="url(#filter0_d_40_1525)">
<rect x="50" y="30" width="261" height="108" rx="10" fill="white"/>
</g>
<path d="M236.524 87.8933H223.055L224.455 86.8404C225.061 86.0452 225.571 85.1818 225.975 84.2679L229.621 76.4409C229.869 75.9144 229.919 75.5469 229.77 75.3681C229.621 75.1893 229.164 75.0999 228.389 75.0999H224.356C223.843 75.0778 223.33 75.1554 222.846 75.3284C222.414 75.5781 222.084 75.9719 221.913 76.4409L218.267 84.2679C217.919 84.9354 217.652 85.6424 217.473 86.3736C217.446 86.9002 217.559 87.4247 217.8 87.8933H204.361L205.355 87.347C206.162 86.4452 206.802 85.4056 207.242 84.2778L211.215 75.6661C211.545 75.0363 211.798 74.3694 211.97 73.6796C212.001 73.1174 211.899 72.5558 211.672 72.0407H223.055L222.608 73.6994C223.109 73.2525 223.651 72.8534 224.227 72.5075C224.904 72.1909 225.645 72.0313 226.392 72.0407H235.332C240.206 72.0407 241.742 73.9742 239.941 77.8414L236.961 84.3076C236.624 84.9684 236.36 85.6647 236.176 86.3835C236.138 86.9197 236.259 87.4553 236.524 87.9231" fill="#CF4044"/>
<path d="M237.408 88.4495H221.386L223.055 87.198L224.048 86.4431C224.608 85.6979 225.081 84.8915 225.459 84.0394L229.104 76.2024C229.182 76.0521 229.239 75.8916 229.273 75.7256C228.979 75.6688 228.679 75.6455 228.379 75.6561H224.346C223.912 75.634 223.477 75.6947 223.065 75.8349C222.936 75.8945 222.688 76.0733 222.409 76.6792L218.764 84.5062C218.434 85.1357 218.18 85.8027 218.009 86.4928C217.994 86.9153 218.094 87.334 218.297 87.7046L218.655 88.4893H204.352L204.093 87.496L204.471 87.2973L205.067 86.9795C205.79 86.1288 206.371 85.166 206.785 84.1288L210.758 75.517C211.075 74.9311 211.316 74.3069 211.473 73.6596C211.492 73.1912 211.4 72.725 211.205 72.2988L210.927 71.5439H223.84L223.631 72.3187L224.019 72.0803C224.778 71.7164 225.61 71.5329 226.452 71.5439H235.392C238.223 71.5439 239.991 72.1697 240.805 73.451C241.62 74.7324 241.421 76.1527 240.497 78.1393L237.517 84.6055C237.195 85.2193 236.949 85.8696 236.782 86.5424C236.767 86.9643 236.874 87.3816 237.09 87.7443L237.408 88.4495ZM224.714 87.3371H235.72C235.614 86.9933 235.583 86.6308 235.63 86.2742C235.813 85.5017 236.09 84.7545 236.455 84.0493L239.434 77.5731C240.189 75.964 240.318 74.7522 239.812 73.9576C239.305 73.163 237.716 72.567 235.332 72.567H226.393C225.73 72.5536 225.073 72.6965 224.476 72.9842C223.938 73.3055 223.432 73.6781 222.966 74.0966L221.595 75.2787L222.33 72.567H212.397C212.501 72.9484 212.532 73.3463 212.487 73.7391C212.313 74.4913 212.047 75.2188 211.692 75.9044L207.719 84.5161C207.286 85.5159 206.739 86.4625 206.09 87.3371H217.016C216.911 87.0001 216.88 86.6441 216.927 86.2941C217.105 85.5093 217.385 84.7512 217.761 84.0394L221.416 76.2024C221.636 75.6087 222.068 75.1171 222.628 74.8217C223.179 74.6123 223.767 74.5177 224.356 74.5436H228.389C229.382 74.5436 229.929 74.6827 230.197 75.0105C230.604 75.5071 230.346 76.2024 230.117 76.6792L226.472 84.5062C226.052 85.4608 225.518 86.3612 224.883 87.1881L224.793 87.2775L224.714 87.3371Z" fill="#231F20"/>
<path d="M253.072 78.5864L254.065 76.421C254.237 75.9687 254.56 75.5897 254.979 75.3483C255.393 75.17 255.84 75.0852 256.29 75.0999H260.82C261.892 75.0999 262.23 75.537 261.813 76.421L260.82 78.5864H253.072ZM272.372 76.8084C273.206 75.0105 273.305 73.7689 272.679 73.0637C272.054 72.3585 270.574 72.0108 268.259 72.0108H251.463C249.59 71.902 247.721 72.2712 246.03 73.0836C244.637 73.9752 243.554 75.2765 242.931 76.8084L239.951 83.1059C239.116 84.8938 239.007 86.1454 239.623 86.8407C240.239 87.536 241.699 87.8936 244.013 87.8936H266.084L268.647 84.0992C267.888 84.3856 267.103 84.5952 266.303 84.7249C265.756 84.7845 264.783 84.8044 263.323 84.8044H252.675C250.986 84.8044 250.38 84.268 250.887 83.2052L251.572 81.7252H270.037L272.372 76.8084Z" fill="#CF4044"/>
<path d="M266.382 88.4497H244.053C241.55 88.4497 239.981 88.0425 239.246 87.2081C238.511 86.3737 238.54 84.8937 239.494 82.8674L242.474 76.5699C243.145 74.9329 244.307 73.5446 245.801 72.5968C247.576 71.7349 249.543 71.3416 251.513 71.4545H268.309C270.812 71.4545 272.391 71.8617 273.146 72.6862C273.901 73.5106 273.871 75.0105 272.928 77.0368L270.484 82.2814H251.97L251.423 83.4336C251.326 83.5871 251.294 83.7729 251.334 83.9501C251.334 83.9501 251.562 84.2481 252.714 84.2481H263.363C264.753 84.2481 265.727 84.2481 266.243 84.1686C267.003 84.0477 267.749 83.848 268.468 83.5727L270.027 83.0462L266.382 88.4497ZM251.483 72.557C249.709 72.4544 247.937 72.7958 246.328 73.5503C245.035 74.3853 244.032 75.5997 243.457 77.0268L240.477 83.3243C239.762 84.8739 239.613 85.9565 240.06 86.4631C240.507 86.9697 241.371 87.3273 244.033 87.3273H265.776L267.286 85.0824C266.975 85.161 266.66 85.2207 266.342 85.2612C265.776 85.3208 264.793 85.3506 263.363 85.3506H252.675C251.463 85.3506 250.688 85.0824 250.36 84.5361C250.221 84.2964 250.147 84.0239 250.147 83.7465C250.147 83.469 250.221 83.1966 250.36 82.9568L251.195 81.1589H269.66L271.805 76.56C272.521 75.0204 272.66 73.9377 272.203 73.4212C271.746 72.9047 270.872 72.557 268.23 72.557H251.483ZM261.207 79.1326H252.268L253.648 76.1528C253.87 75.5846 254.285 75.1131 254.82 74.8217C255.313 74.6016 255.85 74.4963 256.39 74.5138H260.909C261.199 74.4736 261.494 74.5092 261.765 74.6171C262.037 74.7251 262.276 74.9017 262.459 75.1297C262.588 75.3565 262.657 75.6133 262.657 75.8746C262.657 76.136 262.588 76.3928 262.459 76.6196L261.207 79.1326ZM253.946 78.04H260.482L261.346 76.1925C261.424 76.0639 261.462 75.9154 261.455 75.7654C261.263 75.6758 261.05 75.6414 260.84 75.666H256.32C255.949 75.6483 255.578 75.7163 255.237 75.8647C254.936 76.0463 254.708 76.3273 254.592 76.6593L253.946 78.04Z" fill="#231F20"/>
<path d="M207.123 77.9506C208.454 74.8117 209.268 72.0702 202.613 71.9908H169.736L171.335 68.554H160.26L158.67 71.961H135.547C135.547 71.961 129.259 71.6928 126.826 76.8182L123.846 83.2746C122.555 86.1453 124.174 87.8537 128.008 87.8537H145.678L148.211 84.0097C146.759 84.4905 145.241 84.7386 143.712 84.7447H136.659C136.659 84.7447 133.918 84.9533 134.901 83.0462L137.881 76.6692C137.881 76.6692 138.407 75.07 141.01 75.0402H157.27L153.297 83.6918C152.661 85.4599 152.482 87.8637 158.025 87.8537H171.752L174.166 84.1587C173.011 84.554 171.8 84.7587 170.58 84.7646H165.792C164.451 84.7646 163.806 84.7646 164.322 83.7117L168.365 75.0601H195.839C198.024 75.0601 197.041 77.1162 194.846 77.1261H184.188C181.814 77.1261 178.526 77.3943 176.47 80.99C176.47 80.99 175.308 83.3839 175.129 83.8507C173.987 86.8306 175.328 87.8239 179.351 87.8239H188.171C190.644 87.8239 192.035 87.069 192.829 86.1055L192.581 87.8239H203.597C203.299 87.3968 202.911 87.0392 203.478 85.7479L207.123 77.881V77.9506ZM193.952 82.4899C193.688 83.1879 193.282 83.8237 192.76 84.3573C192.291 84.6482 191.741 84.7806 191.191 84.7348H188.002C187.409 84.8051 186.809 84.7016 186.274 84.4368C186.045 84.2381 186.045 83.8905 186.274 83.3739L187.148 81.5066C187.555 80.6225 188.548 80.1855 190.128 80.1855H195.064L193.952 82.4899Z" fill="#CF4044"/>
<path d="M157.915 88.4597C155.263 88.4597 153.604 87.9333 152.83 86.8307C152.553 86.3345 152.397 85.78 152.375 85.2122C152.352 84.6444 152.464 84.0793 152.701 83.5628V83.5131L156.326 75.6563H140.97C138.844 75.6563 138.377 76.8681 138.358 76.9177V76.9674L135.378 83.3443C135.229 83.6323 135.189 83.8509 135.249 83.9502C135.308 84.0495 136.143 84.278 136.589 84.2482H143.632C145.097 84.2449 146.551 84.0102 147.943 83.5529L149.542 82.9668L145.907 88.4696H127.978C125.643 88.4696 124.005 87.8538 123.27 86.6917C122.954 86.1469 122.788 85.5284 122.788 84.8988C122.788 84.2691 122.954 83.6507 123.27 83.1059L126.249 76.6396C128.822 71.2461 135.189 71.4547 135.497 71.4646H158.243L159.842 68.0576H172.139L170.54 71.5043H202.613C205.593 71.5043 207.391 72.0904 208.166 73.2624C209.04 74.6034 208.414 76.3714 207.629 78.2289L204.004 86.046C203.616 86.94 203.765 87.1486 204.004 87.4664L204.689 88.4597H191.975L192.104 87.5459C190.91 88.1905 189.567 88.5059 188.211 88.4597H179.38C176.768 88.4597 175.288 88.0127 174.612 87.0194C174.242 86.4281 174.117 85.715 174.265 85.0329L172.01 88.4895H157.915V88.4597ZM153.734 83.9999C153.553 84.3428 153.458 84.7246 153.458 85.1123C153.458 85.5 153.553 85.8819 153.734 86.2248C154.27 86.9897 155.72 87.3969 157.915 87.3969H171.335L172.795 85.1819C172.03 85.3373 171.251 85.4171 170.47 85.4202H165.504C164.57 85.4202 163.945 85.4203 163.627 84.9038C163.529 84.6943 163.485 84.4638 163.499 84.2332C163.513 84.0025 163.584 83.7789 163.706 83.5827L167.898 74.6431H195.71C197.031 74.6431 197.488 75.2987 197.488 75.9046C197.488 76.8283 196.356 77.8117 194.677 77.8216H184.188C181.496 77.8216 178.754 78.2487 176.957 81.3975C176.649 82.0332 175.794 83.831 175.645 84.1886C175.228 85.2713 175.179 86.0162 175.497 86.4831C175.934 87.1287 177.195 87.4764 179.35 87.4764H188.171C190.157 87.4764 191.578 86.9599 192.402 85.9566L193.654 84.4468L193.227 87.4764H202.683C202.582 86.8778 202.683 86.2627 202.971 85.7282L206.606 77.8713C207.272 76.3118 207.808 74.8914 207.232 73.9677C206.656 73.0439 205.146 72.736 202.603 72.7161H168.832L170.431 69.2794H160.587L158.998 72.6863H135.517C135.437 72.6863 129.557 72.4976 127.292 77.2256L124.312 83.682C124.081 84.0563 123.948 84.4834 123.928 84.9231C123.907 85.3627 123.998 85.8005 124.193 86.195C124.72 87.0195 126.061 87.4664 127.968 87.4664H145.4L146.949 85.1123C145.892 85.3408 144.813 85.4606 143.731 85.4699H136.699C136.361 85.4699 134.931 85.5395 134.365 84.6852C134.212 84.424 134.136 84.1248 134.147 83.8224C134.157 83.5199 134.254 83.2267 134.424 82.9768L137.404 76.6396C137.523 76.3416 138.278 74.653 141.049 74.653H158.184L153.734 83.9999ZM164.66 84.2581C164.991 84.2758 165.322 84.2758 165.653 84.2581H170.54C171.692 84.2532 172.836 84.062 173.927 83.6919L174.781 83.3741C175.129 82.5993 175.904 81.0001 176.003 80.7915C178.109 77.1065 181.337 76.6198 184.218 76.6198H194.766C195.055 76.6367 195.344 76.5944 195.616 76.4953C195.887 76.3962 196.136 76.2425 196.346 76.0436C196.455 75.9145 196.475 75.8251 196.465 75.8152C196.455 75.8052 196.276 75.6662 195.799 75.6563H168.683L164.749 83.9999L164.66 84.2581ZM191.19 85.4004H188.002C187.275 85.4903 186.54 85.3403 185.906 84.9733C185.608 84.715 185.34 84.1985 185.777 83.2549L186.651 81.3776C187.158 80.2949 188.32 79.7387 190.128 79.7387H195.889L194.458 82.8278C194.161 83.6131 193.696 84.3247 193.098 84.9137C192.526 85.2636 191.858 85.4203 191.19 85.3607V85.4004ZM186.661 84.1389C187.094 84.2744 187.55 84.325 188.002 84.2879H191.19C191.619 84.3346 192.052 84.2405 192.422 84.0197C192.863 83.5403 193.201 82.9758 193.415 82.3609L194.111 80.8511H190.098C188.767 80.8511 187.932 81.1889 187.634 81.8444L186.75 83.7217C186.696 83.8405 186.666 83.9687 186.661 84.0992V84.1389Z" fill="#231F20"/>
<path d="M126.686 67.7595C125.892 66.7861 124.2 66.2994 121.611 66.2994H104.526C102.284 66.2105 100.061 66.7397 98.0997 67.8291C96.2865 68.9776 94.866 70.651 94.0272 72.6266L89.8653 81.5662C88.7992 83.864 88.6767 85.5195 89.4978 86.5326C90.2825 87.4564 91.9314 87.9133 94.4642 87.9133H111.539C113.807 88.005 116.058 87.4835 118.055 86.4035C119.87 85.2483 121.29 83.568 122.127 81.5861L126.299 72.6465C127.352 70.3818 127.481 68.7595 126.686 67.7794V67.7595ZM112.84 80.8014C105.957 85.152 98.4076 87.0194 95.9542 84.9732C93.5007 82.927 97.1064 77.7619 104.01 73.4213C110.913 69.0806 118.432 67.2033 120.896 69.2395C123.359 71.2758 119.723 76.4508 112.84 80.8014Z" fill="#CF4044"/>
<path d="M111.539 88.4496H94.4642C91.7327 88.4496 89.9746 87.9331 89.0806 86.8703C88.1866 85.8075 88.1966 83.8209 89.3587 81.3277L93.5305 72.3882C94.416 70.3156 95.9086 68.5598 97.8116 67.3522C99.8606 66.212 102.183 65.6555 104.526 65.7431H121.611C124.402 65.7431 126.2 66.2894 127.123 67.4118C128.117 68.5839 127.968 70.3917 126.796 72.8649L122.634 81.8045C121.746 83.8895 120.246 85.656 118.333 86.8703C116.251 87.9977 113.904 88.5433 111.539 88.4496ZM104.526 66.8556C102.386 66.7715 100.264 67.2729 98.3877 68.3058C96.6762 69.4018 95.3335 70.9867 94.5337 72.855L90.3719 81.7946C89.3786 83.8706 89.2594 85.3406 89.9348 86.1551C90.6103 86.9696 92.1101 87.3371 94.4642 87.3371H111.539C113.706 87.4301 115.857 86.9359 117.767 85.9068C119.485 84.803 120.832 83.2074 121.631 81.3277L125.792 72.3882C126.786 70.3519 126.905 68.9117 126.259 68.1071C125.614 67.3026 124.014 66.8556 121.611 66.8556H104.526ZM99.0433 86.3438C97.8208 86.4159 96.6108 86.0652 95.6164 85.3506C95.2703 85.0721 94.9984 84.7124 94.8251 84.3033C94.6518 83.8943 94.5824 83.4488 94.6231 83.0064C94.8119 80.2153 98.3678 76.2521 103.692 72.8948C110.863 68.3654 118.591 66.5477 121.203 68.7726C121.549 69.0495 121.82 69.4076 121.994 69.8149C122.167 70.2221 122.237 70.666 122.197 71.1068C122.018 73.888 118.462 77.8612 113.138 81.2185C108.032 84.4963 102.689 86.3438 99.0433 86.3438ZM117.846 68.9812C114.678 68.9812 109.562 70.5804 104.328 73.888C98.5963 77.4937 95.9045 81.1291 95.7654 83.1355C95.7345 83.3992 95.7701 83.6664 95.869 83.9128C95.9679 84.1592 96.1269 84.3769 96.3316 84.546C98.3182 86.2048 105.271 84.9135 112.542 80.3345C118.263 76.7189 120.955 73.0835 121.094 71.077C121.125 70.8134 121.09 70.5461 120.991 70.2997C120.892 70.0534 120.733 69.8357 120.528 69.6666C119.736 69.1439 118.792 68.9025 117.846 68.9812Z" fill="#231F20"/>
<path d="M157.151 87.7345C154.498 87.7345 152.84 87.1981 152.065 86.0956C151.788 85.5993 151.632 85.0448 151.61 84.4771C151.587 83.9093 151.699 83.3442 151.936 82.8277L155.571 74.9608H140.205C138.079 74.9608 137.613 76.1726 137.593 76.2223V76.272L134.613 82.6489C134.464 82.9468 134.424 83.1654 134.484 83.2647C134.543 83.364 135.368 83.5826 135.825 83.5528H142.877C144.342 83.5423 145.796 83.3044 147.188 82.8475L148.777 82.2615L145.152 87.7643H127.213C124.879 87.7643 123.24 87.1484 122.505 85.9863C122.19 85.443 122.024 84.8263 122.024 84.1984C122.024 83.5705 122.19 82.9537 122.505 82.4105L125.485 75.9343C128.057 70.5407 134.424 70.7493 134.732 70.7592H157.478L159.068 67.3423H171.374L169.775 70.789H201.779C204.759 70.789 206.557 71.3751 207.331 72.5471C208.205 73.8881 207.58 75.6561 206.795 77.5136L203.16 85.3804C202.762 86.2644 202.921 86.473 203.16 86.7909L203.378 87.0988L203.289 86.7313L203.626 86.5425L204.262 86.2148C204.989 85.3697 205.569 84.4097 205.98 83.374L209.954 74.7622C210.269 74.1743 210.503 73.546 210.649 72.8948C210.679 72.4256 210.587 71.9567 210.381 71.534L210.113 70.789H223.025L222.817 71.5539C222.94 71.4689 223.07 71.3926 223.204 71.3254C223.961 70.957 224.795 70.7732 225.638 70.789H234.527C237.358 70.789 239.126 71.4049 239.941 72.6862C240.666 73.8186 240.557 75.3979 239.633 77.3745L236.653 83.8408C236.335 84.4561 236.088 85.106 235.918 85.7777C235.908 86.1978 236.011 86.6129 236.216 86.9796L236.603 87.7742H220.612L222.201 86.5922C222.558 86.324 222.926 86.0558 223.293 85.7678C223.853 85.0226 224.326 84.2162 224.704 83.364L228.349 75.527C228.427 75.3767 228.484 75.2162 228.518 75.0502C228.224 74.9934 227.924 74.9701 227.624 74.9807H223.591C223.156 74.9547 222.72 75.019 222.31 75.1694C222.181 75.1694 221.933 75.3979 221.655 76.0038L218.009 83.8309C217.675 84.4587 217.421 85.1261 217.254 85.8174C217.239 86.238 217.343 86.6544 217.552 87.0193L217.9 87.804H191.18L191.31 86.8902C190.114 87.5402 188.766 87.8558 187.406 87.804H178.586C175.963 87.804 174.493 87.357 173.818 86.3638C173.447 85.7724 173.322 85.0594 173.47 84.3772L171.225 87.7146H157.2L157.151 87.7345ZM152.969 83.225C152.788 83.5696 152.693 83.9531 152.693 84.3424C152.693 84.7317 152.788 85.1152 152.969 85.4599C153.505 86.2148 154.955 86.622 157.151 86.622H170.57L172.03 84.407C171.265 84.5624 170.486 84.6422 169.706 84.6454H164.868C163.875 84.6454 163.229 84.6454 162.882 84.1289C162.782 83.9201 162.736 83.6892 162.75 83.458C162.764 83.2268 162.837 83.003 162.961 82.8078L167.153 73.8682H194.965C196.276 73.8682 196.743 74.5238 196.743 75.1297C196.743 76.0535 195.611 77.0368 193.932 77.0467H183.423C180.731 77.0467 177.99 77.4738 176.192 80.6325C175.884 81.2583 175.02 83.0561 174.881 83.4236C174.463 84.4964 174.414 85.2413 174.732 85.7082C175.169 86.3538 176.43 86.7015 178.586 86.7015H187.406C189.393 86.7015 190.803 86.185 191.637 85.1817L192.889 83.6719L192.462 86.7015H201.918C201.811 86.1062 201.913 85.4923 202.206 84.9632L205.841 77.0964C206.507 75.5469 207.043 74.1165 206.467 73.2027C205.891 72.2889 204.381 71.9611 201.838 71.9412H168.067L169.666 68.5045H159.822L158.233 71.9114H134.752C134.663 71.9114 128.792 71.7227 126.528 76.4508L123.548 82.9071C123.316 83.2833 123.184 83.712 123.163 84.1532C123.142 84.5945 123.233 85.0338 123.428 85.4301C123.955 86.2446 125.296 86.6915 127.203 86.6915H144.576L146.125 84.3374C145.067 84.5659 143.989 84.6857 142.907 84.695H135.874C135.537 84.695 134.106 84.7546 133.54 83.9004C133.387 83.6392 133.312 83.34 133.322 83.0375C133.333 82.7351 133.429 82.4419 133.6 82.1919L136.58 75.8548C136.689 75.5568 137.454 73.8682 140.225 73.8682H157.319L152.969 83.225ZM223.949 86.6021H234.955C234.848 86.2585 234.818 85.8959 234.865 85.5393C235.048 84.7668 235.325 84.0195 235.69 83.3144L238.669 76.8381C239.424 75.229 239.544 74.0172 239.047 73.2325C238.55 72.4478 236.951 71.832 234.567 71.832H225.677C225.011 71.8196 224.352 71.9624 223.75 72.2492C223.216 72.5711 222.714 72.9436 222.25 73.3616L220.89 74.5436L221.625 71.832H211.692C211.796 72.2134 211.826 72.6112 211.781 73.0041C211.61 73.7568 211.343 74.4844 210.987 75.1694L207.013 83.7812C206.581 84.781 206.034 85.7276 205.384 86.6021H216.231C216.128 86.2648 216.094 85.91 216.132 85.5592C216.321 84.7763 216.605 84.0192 216.976 83.3044L220.631 75.4674C220.861 74.8616 221.307 74.3624 221.883 74.0669C222.434 73.8575 223.022 73.7628 223.611 73.7888H227.644C228.637 73.7888 229.184 73.9278 229.452 74.2655C229.899 74.8118 229.501 75.6462 229.372 75.9243L225.727 83.7514C225.307 84.706 224.773 85.6065 224.138 86.4333L224.048 86.5227L223.949 86.6021ZM163.895 83.4832C164.226 83.5009 164.557 83.5009 164.888 83.4832H169.765C170.917 83.4783 172.061 83.2871 173.152 82.9171L174.007 82.5992C174.354 81.8244 175.129 80.2253 175.228 80.0167C177.334 76.3316 180.562 75.8448 183.443 75.8448H193.972C194.26 75.8618 194.549 75.8195 194.821 75.7204C195.093 75.6213 195.341 75.4676 195.551 75.2688C195.613 75.2063 195.654 75.1267 195.67 75.0403C195.67 75.0403 195.481 74.8913 195.005 74.8814H167.888L163.984 83.215L163.895 83.4832ZM265.588 87.7146H243.288C240.785 87.7146 239.216 87.3074 238.481 86.4829C237.746 85.6585 237.776 84.1587 238.729 82.1324L241.659 75.8349C242.33 74.1979 243.493 72.8096 244.987 71.8618C246.763 71.0037 248.729 70.6139 250.698 70.7294H267.495C269.998 70.7294 271.577 71.1268 272.332 71.9611C273.087 72.7955 273.057 74.2755 272.113 76.3018L269.68 81.5463H251.205L250.658 82.6985C250.561 82.8521 250.529 83.0378 250.569 83.215C250.569 83.215 250.798 83.523 251.95 83.523H262.608C263.998 83.523 264.962 83.5229 265.488 83.4336C266.244 83.312 266.986 83.1157 267.703 82.8475L269.273 82.3111L265.588 87.7146ZM250.688 71.8221C248.914 71.7194 247.142 72.0608 245.533 72.8153C244.241 73.6504 243.238 74.8647 242.663 76.2918L239.683 82.5992C238.958 84.1388 238.818 85.2215 239.265 85.738C239.712 86.2545 240.577 86.5922 243.239 86.5922H264.972L266.491 84.3474C266.166 84.4332 265.833 84.493 265.498 84.5262C264.507 84.6054 263.512 84.6353 262.518 84.6156H251.95C250.738 84.6156 249.963 84.3573 249.625 83.8011C249.489 83.5603 249.417 83.2883 249.417 83.0114C249.417 82.7346 249.489 82.4625 249.625 82.2218L250.46 80.4239H268.925L271.07 75.825C271.786 74.2854 271.925 73.2027 271.468 72.6862C271.011 72.1697 270.127 71.8221 267.495 71.8221H250.688ZM110.764 87.7146H93.7491C91.0176 87.7146 89.2594 87.1981 88.3555 86.1353C87.4517 85.0725 87.4815 83.0859 88.6436 80.5928L92.8154 71.6532C93.7041 69.5826 95.1959 67.8277 97.0965 66.6172C99.1471 65.4813 101.468 64.925 103.811 65.0081H120.896C123.687 65.0081 125.485 65.5544 126.398 66.6768C127.392 67.8489 127.243 69.6567 126.071 72.13L121.909 81.0695C121.021 83.1545 119.521 84.921 117.608 86.1353C115.514 87.2697 113.153 87.8155 110.774 87.7146H110.764ZM103.761 66.1206C101.621 66.0355 99.4987 66.537 97.6229 67.5708C95.8992 68.6626 94.5482 70.2526 93.7491 72.13L89.5872 81.0695C88.5939 83.1455 88.4747 84.6156 89.1402 85.4301C89.8057 86.2446 91.3255 86.6121 93.6796 86.6121H110.774C112.941 86.705 115.093 86.2108 117.002 85.1817C118.72 84.078 120.067 82.4824 120.866 80.6027L125.028 71.6631C126.021 69.6766 126.14 68.1866 125.495 67.392C124.849 66.5974 123.25 66.1206 120.846 66.1206H103.761ZM98.2785 85.6089C97.0555 85.6859 95.8438 85.3347 94.8516 84.6156C94.5034 84.3389 94.2301 83.9794 94.0566 83.5699C93.8831 83.1604 93.8149 82.714 93.8584 82.2714C94.0471 79.4902 97.603 75.5171 102.927 72.1598C110.099 67.6304 117.826 65.8127 120.439 68.0376C120.783 68.3151 121.054 68.6733 121.228 69.0804C121.401 69.4875 121.471 69.9311 121.432 70.3719C121.253 73.163 117.697 77.1262 112.373 80.4835C107.268 83.7614 101.904 85.6089 98.2785 85.6089ZM117.081 68.2462C113.903 68.2462 108.797 69.8454 103.553 73.1531C97.8315 76.7587 95.1397 80.3941 95.0006 82.4005C94.9694 82.6633 95.0039 82.9297 95.101 83.1759C95.198 83.422 95.3547 83.6403 95.5569 83.811C97.5434 85.4797 104.496 84.1785 111.777 79.5995C117.499 75.9839 120.19 72.3485 120.319 70.352C120.354 70.089 120.322 69.8214 120.224 69.5746C120.127 69.3278 119.968 69.1099 119.763 68.9415C118.975 68.411 118.028 68.1657 117.081 68.2462ZM190.426 84.6255H187.237C186.511 84.7169 185.774 84.5668 185.141 84.1984C184.843 83.9401 184.575 83.4236 185.012 82.48L185.886 80.6027C186.393 79.52 187.555 78.9638 189.363 78.9638H195.124L193.694 82.0628C193.394 82.8442 192.93 83.5521 192.333 84.1388C191.766 84.5013 191.097 84.6719 190.426 84.6255ZM185.896 83.374C186.33 83.5059 186.785 83.5565 187.237 83.523H190.426C190.854 83.5641 191.285 83.4703 191.657 83.2548C192.096 82.7704 192.434 82.203 192.651 81.5861L193.346 80.0763H189.323C187.992 80.0763 187.158 80.414 186.86 81.0695L185.976 82.9469C185.921 83.0825 185.894 83.2277 185.896 83.374ZM260.393 78.4075H251.403L252.784 75.4277C253.005 74.8596 253.421 74.3881 253.956 74.0967C254.446 73.8773 254.979 73.7721 255.516 73.7888H260.045C260.335 73.7476 260.632 73.7838 260.904 73.8937C261.176 74.0036 261.414 74.1832 261.595 74.4145C261.723 74.6398 261.791 74.8949 261.791 75.1545C261.791 75.4141 261.723 75.6692 261.595 75.8945L260.393 78.4075ZM253.152 77.2951H259.677L260.542 75.4475C260.691 75.1396 260.661 75.0304 260.661 75.0204C260.468 74.9332 260.255 74.899 260.045 74.9211H255.516C255.148 74.9083 254.782 74.9761 254.443 75.1198C254.141 75.3033 253.91 75.5833 253.787 75.9144L253.152 77.2951Z" fill="white"/>
<path d="M273.693 98.9487C273.677 99.7445 273.35 100.502 272.782 101.06C272.214 101.617 271.449 101.929 270.653 101.929L88.8821 101.978L89.3688 102.455V95.0253C89.3844 94.2312 89.7101 93.4748 90.2763 92.9179C90.8425 92.361 91.6042 92.0478 92.3983 92.0454H274.17L273.683 91.5587L273.693 98.9487ZM274.19 91.0024H92.4182C91.3645 91.0024 90.3539 91.421 89.6088 92.1661C88.8637 92.9113 88.4451 93.9218 88.4451 94.9756V102.922H88.9318H270.703C271.757 102.922 272.767 102.503 273.513 101.758C274.258 101.013 274.676 100.002 274.676 98.9487V91.0024H274.19Z" fill="#010101"/>
<path d="M105.301 94.2007C105.897 94.2007 106.195 94.3795 106.195 94.747C106.195 95.1145 105.897 95.2834 105.301 95.2834H98.2486V96.6939H105.301C105.897 96.6939 106.195 96.8727 106.195 97.2402C106.195 97.6077 105.897 97.7766 105.301 97.7766H98.2486V99.7632C98.2486 100.121 97.9506 100.3 97.3547 100.3C96.7587 100.3 96.4607 100.121 96.4607 99.7632V94.7967C96.4607 94.5384 96.6991 94.2603 97.3547 94.2603H105.301" fill="#010101"/>
<path d="M125.216 99.7434C125.216 100.101 124.928 100.28 124.332 100.28C123.736 100.28 123.438 100.101 123.438 99.7434V94.7769C123.438 94.4193 123.736 94.2405 124.332 94.2405C124.928 94.2405 125.216 94.4193 125.216 94.7769V99.7434Z" fill="#010101"/>
<path d="M153.138 94.747C153.138 95.1046 152.83 95.2834 152.234 95.2834H149.155V99.7434C149.155 100.101 148.857 100.28 148.261 100.28C147.665 100.28 147.367 100.101 147.367 99.7434V95.2834H144.307C143.711 95.2834 143.413 95.1046 143.413 94.747C143.413 94.3795 143.711 94.2007 144.307 94.2007H152.254C152.84 94.2007 153.148 94.3795 153.148 94.747" fill="#010101"/>
<path d="M180.354 99.7631C180.354 100.18 180.036 100.498 179.44 100.379C179.003 100.299 177.096 99.2565 173.748 97.0117L172.417 96.1177V99.7432C172.417 100.101 172.119 100.28 171.523 100.28C170.937 100.28 170.639 100.101 170.639 99.7432V94.7073C170.639 93.714 171.633 94.1212 171.633 94.1212C172.01 94.2802 174.086 95.5118 178.099 98.1441L178.615 98.4818V94.7371C178.615 94.3795 178.904 94.2007 179.49 94.2007C180.076 94.2007 180.393 94.3795 180.393 94.7371V99.7631" fill="#010101"/>
<path d="M208.285 99.7335C208.285 100.101 207.987 100.28 207.391 100.28H199.445C199.196 100.28 198.571 100.28 198.551 99.7434V94.7769C198.551 94.2604 199.057 94.2504 199.445 94.2405H207.391C207.987 94.2405 208.285 94.4193 208.285 94.7868C208.285 95.1543 207.987 95.3232 207.391 95.3232H200.339V96.7337H207.391C207.987 96.7337 208.285 96.9125 208.285 97.28C208.285 97.6475 207.987 97.8164 207.391 97.8164H200.339V99.2269H207.391C207.987 99.2269 208.285 99.4156 208.285 99.7732" fill="#010101"/>
<path d="M235.56 99.7434C235.56 100.2 235.054 100.28 234.666 100.28H226.72C226.124 100.28 225.826 100.101 225.826 99.7335C225.826 99.3659 226.124 99.1871 226.72 99.1871H233.802V97.8064H226.651C225.945 97.8064 225.836 97.4985 225.836 97.1409V94.7271C225.836 94.2503 226.492 94.2106 226.73 94.2007H234.676C235.272 94.2007 235.57 94.3795 235.57 94.747C235.57 95.1145 235.272 95.2834 234.676 95.2834H227.624V96.7237H234.796C235.64 96.7237 235.61 97.1906 235.61 97.5482V99.7434" fill="#010101"/>
<path d="M263.233 99.7434C263.233 100.2 262.737 100.28 262.34 100.28H254.393C253.797 100.28 253.499 100.101 253.499 99.7335C253.499 99.3659 253.797 99.1871 254.393 99.1871H261.446V97.8064H254.314C253.618 97.8064 253.499 97.4985 253.499 97.1409V94.7271C253.499 94.2503 254.155 94.2106 254.393 94.2007H262.34C262.935 94.2007 263.233 94.3795 263.233 94.747C263.233 95.1145 262.935 95.2834 262.34 95.2834H255.297V96.7237H262.419C263.273 96.7237 263.233 97.1906 263.233 97.5482V99.7434Z" fill="#010101"/>
<path d="M270.624 84.6354C270.955 84.6314 271.28 84.7262 271.557 84.9076C271.834 85.089 272.051 85.3488 272.18 85.6539C272.309 85.9591 272.345 86.2957 272.282 86.621C272.219 86.9462 272.06 87.2454 271.827 87.4804C271.593 87.7154 271.295 87.8755 270.97 87.9404C270.645 88.0053 270.309 87.972 270.003 87.8448C269.697 87.7175 269.436 87.5021 269.253 87.226C269.069 86.9498 268.973 86.6255 268.975 86.2942C268.972 86.0764 269.013 85.8604 269.095 85.6586C269.176 85.4568 269.298 85.2733 269.451 85.1189C269.605 84.9644 269.787 84.8421 269.989 84.7591C270.19 84.6761 270.406 84.634 270.624 84.6354ZM270.624 84.8936C270.342 84.8797 270.063 84.9505 269.822 85.0968C269.581 85.2431 269.389 85.4582 269.272 85.7144C269.154 85.9706 269.116 86.2561 269.163 86.5341C269.209 86.8122 269.338 87.0699 269.532 87.2742C269.726 87.4785 269.977 87.6199 270.252 87.6802C270.528 87.7405 270.815 87.7169 271.077 87.6125C271.338 87.5081 271.563 87.3277 271.721 87.0944C271.879 86.8612 271.964 86.586 271.965 86.3041C271.971 86.1229 271.942 85.9422 271.877 85.7727C271.813 85.6031 271.716 85.4481 271.591 85.3167C271.466 85.1853 271.316 85.0802 271.15 85.0075C270.984 84.9349 270.805 84.8961 270.624 84.8936ZM270.316 87.2576H270.028V85.4101C270.2 85.3975 270.372 85.3975 270.544 85.4101C270.746 85.3968 270.947 85.4453 271.12 85.5492C271.177 85.5939 271.222 85.6515 271.251 85.7172C271.28 85.7829 271.293 85.8548 271.289 85.9266C271.29 86.032 271.255 86.1344 271.19 86.2174C271.125 86.3003 271.034 86.3589 270.932 86.3835C271.09 86.3835 271.2 86.5624 271.239 86.8305C271.252 86.9886 271.293 87.1432 271.359 87.2874H271.051C270.978 87.1415 270.935 86.983 270.922 86.8206C270.919 86.7721 270.907 86.7247 270.885 86.6813C270.864 86.6379 270.833 86.5996 270.796 86.5687C270.758 86.5378 270.715 86.5151 270.668 86.502C270.621 86.489 270.572 86.4858 270.524 86.4928H270.316V87.2576ZM270.316 86.2644H270.554C270.792 86.2644 271.001 86.175 271.001 85.9465C271.001 85.7181 270.882 85.6287 270.554 85.6287H270.336L270.316 86.2644Z" fill="#010101"/>
<defs>
<filter id="filter0_d_40_1525" x="0" y="0" width="361" height="208" filterUnits="userSpaceOnUse" color-interpolation-filters="sRGB">
<feFlood flood-opacity="0" result="BackgroundImageFix"/>
<feColorMatrix in="SourceAlpha" type="matrix" values="0 0 0 0 0 0 0 0 0 0 0 0 0 0 0 0 0 0 127 0" result="hardAlpha"/>
<feOffset dy="20"/>
<feGaussianBlur stdDeviation="25"/>
<feComposite in2="hardAlpha" operator="out"/>
<feColorMatrix type="matrix" values="0 0 0 0 0.192157 0 0 0 0 0.192157 0 0 0 0 0.192157 0 0 0 0.05 0"/>
<feBlend mode="normal" in2="BackgroundImageFix" result="effect1_dropShadow_40_1525"/>
<feBlend mode="normal" in="SourceGraphic" in2="effect1_dropShadow_40_1525" result="shape"/>
</filter>
</defs>
</svg>
