<svg width="361" height="208" viewBox="0 0 361 208" fill="none" xmlns="http://www.w3.org/2000/svg">
<g filter="url(#filter0_d_40_1514)">
<rect x="50" y="30" width="261" height="108" rx="10" fill="white"/>
</g>
<path fill-rule="evenodd" clip-rule="evenodd" d="M205.919 72C205.919 72 205.888 80.2842 205.949 85.8578C205.949 91.736 210.03 95.9999 224.162 95.9999C239.055 95.9999 241.34 90 241.34 86.7715C241.34 83.5431 241.37 72.0305 241.37 72.0305H234.822C234.822 72.0305 234.852 81.4416 234.852 85.6751C234.852 89.9086 232.264 93.5939 225.045 93.5939C217.035 93.5939 215.36 89.4822 215.36 85.6751C215.36 81.8985 215.421 72.0305 215.421 72.0305H205.919V72Z" fill="black"/>
<path fill-rule="evenodd" clip-rule="evenodd" d="M243.502 72V95.5735H268.446V92.3756L253.492 92.5888V84.3959L268.111 84.6091L268.081 81.533L253.492 81.7157V74.8325L268.446 75.0152V72H243.502Z" fill="black"/>
<path fill-rule="evenodd" clip-rule="evenodd" d="M171.716 75.3807L160.203 74.9848L160.172 95.5735H150.304L150.152 74.9848L138.335 75.3807L138.365 72H171.746L171.716 75.3807Z" fill="black"/>
<path fill-rule="evenodd" clip-rule="evenodd" d="M90 72.0305V95.6041H93.9594C93.9594 95.6041 102.883 75.3808 118.477 75.3808C118.477 75.3808 125.939 74.7716 133.127 85.3706V72.0305H90Z" fill="#1AA2DC"/>
<path fill-rule="evenodd" clip-rule="evenodd" d="M108.67 95.6041H132.914C132.914 95.6041 129.015 83.4518 120.609 83.4518C120.609 83.4518 113.421 83.1168 108.67 95.6041Z" fill="#1AA2DC"/>
<path fill-rule="evenodd" clip-rule="evenodd" d="M269.969 73.5229C269.969 72.7919 270.517 72.2742 271.218 72.2742C271.918 72.2742 272.436 72.8224 272.436 73.5229C272.436 74.2539 271.888 74.8021 271.218 74.8021C270.517 74.7716 269.969 74.2539 269.969 73.5229ZM271.218 75.0457C272.04 75.0457 272.741 74.4061 272.741 73.5229C272.741 72.6701 272.04 72.0305 271.218 72.0305C270.396 72.0305 269.695 72.6701 269.695 73.5229C269.695 74.4061 270.396 75.0457 271.218 75.0457ZM270.913 73.6447H271.218L271.675 74.4061H271.979L271.492 73.6447C271.736 73.6143 271.949 73.462 271.949 73.1574C271.949 72.8224 271.736 72.6701 271.34 72.6701H270.67V74.4061H270.944V73.6447H270.913ZM270.913 73.4011V72.8528H271.279C271.462 72.8528 271.675 72.8833 271.675 73.127C271.675 73.4011 271.462 73.4011 271.248 73.4011H270.913Z" fill="black"/>
<path fill-rule="evenodd" clip-rule="evenodd" d="M194.68 84.5178C194.68 84.5178 194.528 84.396 194.71 84.3655C199.248 83.6346 203.451 81.9899 203.817 78.5178C204.121 73.8579 198.913 72.2133 192.913 72.061C191.573 72.0305 185.817 72.0305 183.502 72.0305H173.573V95.6041H183.502V84.8833C183.624 84.8833 183.807 84.8833 183.959 84.8833C184.264 84.8833 184.385 85.0356 184.385 85.0356L196.355 95.6041H209.269L194.68 84.5178ZM183.533 83.0559V74.0711C183.533 74.0711 185.725 74.0102 188.101 74.132C191.573 74.4366 193.583 75.5026 193.583 78.3655C193.583 83.7259 183.533 83.0559 183.533 83.0559Z" fill="black"/>
<defs>
<filter id="filter0_d_40_1514" x="0" y="0" width="361" height="208" filterUnits="userSpaceOnUse" color-interpolation-filters="sRGB">
<feFlood flood-opacity="0" result="BackgroundImageFix"/>
<feColorMatrix in="SourceAlpha" type="matrix" values="0 0 0 0 0 0 0 0 0 0 0 0 0 0 0 0 0 0 127 0" result="hardAlpha"/>
<feOffset dy="20"/>
<feGaussianBlur stdDeviation="25"/>
<feComposite in2="hardAlpha" operator="out"/>
<feColorMatrix type="matrix" values="0 0 0 0 0.192157 0 0 0 0 0.192157 0 0 0 0 0.192157 0 0 0 0.05 0"/>
<feBlend mode="normal" in2="BackgroundImageFix" result="effect1_dropShadow_40_1514"/>
<feBlend mode="normal" in="SourceGraphic" in2="effect1_dropShadow_40_1514" result="shape"/>
</filter>
</defs>
</svg>
