<svg width="17" height="15" viewBox="0 0 17 15" fill="none" xmlns="http://www.w3.org/2000/svg">
<path d="M17 1.78181C16.3748 2.07471 15.6945 2.28551 14.9938 2.36761C15.7213 1.89816 16.2661 1.15652 16.526 0.281814C15.8433 0.722914 15.0954 1.03222 14.3155 1.19601C13.9895 0.817523 13.5952 0.516 13.1573 0.310233C12.7193 0.104466 12.247 -0.00113561 11.7699 9.20947e-06C9.8392 9.20947e-06 8.2865 1.69971 8.2865 3.78551C8.2865 4.07841 8.31919 4.37131 8.37231 4.65311C5.48143 4.48891 2.90314 2.98891 1.18904 0.692316C0.876713 1.27171 0.713043 1.93143 0.715058 2.60282C0.715058 3.91643 1.33001 5.07471 2.26776 5.75592C1.71513 5.73229 1.17544 5.56731 0.692585 5.27441V5.32101C0.692585 7.16051 1.8898 8.68492 3.4854 9.03551C3.18581 9.12003 2.87761 9.16327 2.56808 9.16421C2.34131 9.16421 2.12679 9.1398 1.91023 9.10651C2.35152 10.6065 3.63658 11.696 5.16681 11.7315C3.96959 12.75 2.47002 13.3491 0.841726 13.3491C0.549573 13.3491 0.279894 13.338 0 13.3025C1.54453 14.3787 3.37712 15 5.35068 15C11.7576 15 15.2634 9.23521 15.2634 4.23152C15.2634 4.06731 15.2634 3.90311 15.2532 3.73891C15.9315 3.19971 16.526 2.53181 17 1.78181Z" fill="#FAFAFA"/>
</svg>
