<svg width="600" height="1307" viewBox="0 0 600 1307" fill="none" xmlns="http://www.w3.org/2000/svg">
<path d="M106.6 0.25C24.8089 15.4878 -78.6335 171.876 93.7705 258.491C116.49 267.312 174.119 273.728 222.873 228.817C283.816 172.678 206.835 58.7952 121.836 107.717C36.8371 156.638 75.3273 280.946 179.572 306.61C283.816 332.274 327.919 337.085 359.192 371.571C390.466 406.057 428.956 463.8 403.296 546.405C379.12 624.231 254.584 668.598 266.408 548.722C267.982 532.77 274.154 517.527 282.87 504.074C359.959 385.092 445.142 369.967 471.455 369.967C494.796 369.967 642.391 375.844 586.841 554.215C581.651 570.881 572.261 585.949 561.023 599.306C491.372 682.089 377.911 829.698 359.192 887.25C344.491 934.083 329.75 1028.75 359.192 1089.75C392.265 1158.27 465.75 1259.25 705.75 1306.25" stroke="#7C43FF" stroke-width="0.5" stroke-linecap="round"/>
</svg>
